SplineFontDB: 1.0
FontName: DejaVuSerifCondensed-Oblique
FullName: DejaVu Serif Condensed Oblique
FamilyName: DejaVu Serif Condensed
Weight: Book
Copyright: Copyright (c) 2003 by Bitstream, Inc. All Rights Reserved.\nDejaVu changes are in public domain\n
Version: 1.12
ItalicAngle: -11
UnderlinePosition: -213
UnderlineWidth: 133
Ascent: 1556
Descent: 492
Order2: 1
NeedsXUIDChange: 1
FSType: 4
PfmFamily: 17
TTFWeight: 400
TTFWidth: 5
Panose: 2 6 6 6 5 3 5 11 2 4
LineGap: 410
VLineGap: 0
OS2TypoAscent: 1556
OS2TypoDescent: -492
OS2TypoLinegap: 0
OS2WinAscent: 1901
OS2WinAOffset: 0
OS2WinDescent: 483
OS2WinDOffset: 0
HheadAscent: 1901
HheadAOffset: 0
HheadDescent: -483
HheadDOffset: 0
ScriptLang: 2
 1 latn 1 dflt 
 1 DFLT 1 dflt 
TtfTable: prep 1374
\,q1Gi5bg!`Y/Hn`$>N*A-9e9"N2Pf_[Q^b_']E'A-9Xq"2J1E^O63s$Nn!K"1l#W"hHGk\J,.U
1'>#b"1J12[Jg97rWBJ*"0o(#"gRn+YX\f!rWB<O"0MP)X:>?5WXK'3'Eb?D"0"$XW+6".*Wr2n
"/DT$"f)&!U1=A"Q4=(l,m0fb$3d(K".r3gSe)!p/d%W"*X/)5".P_j"e-M7RLfRhQjs:f,m0NZ
$3ce,".2=VQ^/*bQP9OgJ-;/J"-u1TPpHNsKJ3RorWA@I'*XRG"-ScU"d0N$P.1NX5R@RUO9u/R
%0Ma&!<>AV"HWrmOMD![Dg_eM]*"(E$O)P&"-,VLNI_H@NB.0#Mn9.OrWA(9>m6.u",h[4MMWV_
MHp=A5Qlq"*X.BH",M^E"c+3%Lq*K#5lUtB&Hd`?0Em/@",&?1K,+Q@Q32[G"+Xom"b?RSIr#Z"
Ii/?;I1?F01';q7"+5G+"agscHOg4)Q32CE"*b.TGBP)4GPVDbFW:R.+9Qa+"*A>j"`tdfF8c8^
rW@.Z%0^bN")n\OE'OPEI04A(4p>h>")U4(ChjF_C_-\bJ-9Wr")C.)C1LiYCAJ$HBY+F^rW?hH
>m4oR")*2fB4`FnB3bUP5Qk[F"(c"R"_IN4A7PdP'a%qE"(D02?sbMi@/^78/d#GZ"'tm.>Y>0'
I03[P"'J"o=T/D(rW?35"',=&;e,u.'E_2f"&Mc("]0UL:CdP&5sRa=9FCqpA-5CI#R*ec"%Y0L
7fs;+7hYto&d(Q($3`j9"%5Ki"[m,.6UD=f6PBPg5mmi_&-G3`#mEU&"$d.p5e-j05Z7eMQ30;R
/Hn=4"$Ja\"[,K\4?ElR4;7l[5Qj.U"$/FT"Zfok3B.TS3>)ER&Has$"#g,\2)H!N2?!\71D9pK
'E^-H$3`4!"#;S;"YpDe1:[A"5lUsA#m2k7(^2T]""u8A"YU\p0>I]C*XW'''a$(=">'pj"YH#B
/1VD</5$'q+p\?&'E]jN"=aH["Y+$b.4?kR.7"%a">'d*0EW[*/HmO$""$&2,n1[p-!^Tu,8(/*
;Ze6g#R)Fc"!^&6+p\8o+;b8*>lu2k&Hs9o"!GA^+!(am*t\SsJ-6o#"!0]1*?tY+%g*ar!u`%2
"WC;A)$DMp))).0rW<r<$3_7F!u;FM'bh>c'l*mc',(N`'E]%7";;FN&d0ci'"\5X!tYVJrW<]6

StartChar: .notdef
Encoding: 0 -1 0
Width: 1167
Flags: HW
Fore
-4.77246 -362 m 1,0,-1
 311.173 1444 l 1,1,-1
 1232.78 1444 l 1,2,-1
 916.828 -362 l 1,3,-1
 -4.77246 -362 l 1,0,-1
118.671 -248 m 1,4,-1
 834.171 -248 l 1,5,-1
 1110.05 1329 l 1,6,-1
 394.555 1329 l 1,7,-1
 118.671 -248 l 1,4,-1
EndSplineSet
EndChar
StartChar: exclam
Encoding: 33 33 4
Width: 782
Flags: HW
Fore
183.386 104 m 0,0,1
 193.183 160 193.183 160 234.206 199 c 128,-1,2
 275.229 238 275.229 238 326.529 238 c 0,3,4
 376.029 238 376.029 238 404.306 199 c 128,-1,5
 432.582 160 432.582 160 422.786 104 c 0,6,7
 413.164 49 413.164 49 371.241 10 c 128,-1,8
 329.318 -29 329.318 -29 279.818 -29 c 0,9,10
 228.518 -29 228.518 -29 201.055 9.5 c 128,-1,11
 173.589 48 173.589 48 183.386 104 c 0,0,1
429.981 1493 m 1,12,-1
 662.182 1493 l 1,13,-1
 457.353 672 l 1,14,-1
 413.269 420 l 1,15,-1
 302.568 420 l 1,16,-1
 346.653 672 l 1,17,-1
 429.981 1493 l 1,12,-1
EndSplineSet
EndChar
StartChar: quotedbl
Encoding: 34 34 5
Width: 894
Flags: HW
Fore
419.646 1493 m 1,0,-1
 322.554 938 l 1,1,-1
 179.454 938 l 1,2,-1
 276.546 1493 l 1,3,-1
 419.646 1493 l 1,0,-1
762.546 1493 m 1,4,-1
 665.454 938 l 1,5,-1
 522.354 938 l 1,6,-1
 619.446 1493 l 1,7,-1
 762.546 1493 l 1,4,-1
EndSplineSet
EndChar
StartChar: numbersign
Encoding: 35 35 6
Width: 1630
Flags: HW
Fore
1052.68 901 m 1,0,-1
 798.882 901 l 1,1,-1
 664.85 567 l 1,2,-1
 921.35 567 l 1,3,-1
 1052.68 901 l 1,0,-1
1025.32 1470 m 1,4,-1
 860.922 1055 l 1,5,-1
 1114.72 1055 l 1,6,-1
 1280.02 1470 l 1,7,-1
 1434.82 1470 l 1,8,-1
 1267.72 1055 l 1,9,-1
 1544.92 1055 l 1,10,-1
 1517.98 901 l 1,11,-1
 1205.68 901 l 1,12,-1
 1073.45 567 l 1,13,-1
 1356.05 567 l 1,14,-1
 1329.28 414 l 1,15,-1
 1012.48 414 l 1,16,-1
 847.358 0 l 1,17,-1
 692.558 0 l 1,18,-1
 859.483 414 l 1,19,-1
 604.784 414 l 1,20,-1
 438.758 0 l 1,21,-1
 285.758 0 l 1,22,-1
 449.983 414 l 1,23,-1
 171.884 414 l 1,24,-1
 198.649 567 l 1,25,-1
 511.85 567 l 1,26,-1
 644.081 901 l 1,27,-1
 359.682 901 l 1,28,-1
 386.622 1055 l 1,29,-1
 706.122 1055 l 1,30,-1
 872.322 1470 l 1,31,-1
 1025.32 1470 l 1,4,-1
EndSplineSet
EndChar
StartChar: dollar
Encoding: 36 36 7
Width: 1234
Flags: HW
Fore
585.338 68 m 1,0,1
 688.787 78 688.787 78 751.959 133 c 128,-1,2
 815.131 188 815.131 188 831.75 283 c 0,3,4
 846.796 369 846.796 369 804.191 429 c 128,-1,5
 761.588 489 761.588 489 664.412 520 c 1,6,-1
 585.338 68 l 1,0,1
691.099 1187 m 1,7,8
 597.175 1180 597.175 1180 536.689 1127.5 c 128,-1,9
 476.204 1075 476.204 1075 460.811 987 c 0,10,11
 446.814 907 446.814 907 484.792 854 c 128,-1,12
 522.771 801 522.771 801 617.798 768 c 1,13,-1
 691.099 1187 l 1,7,8
123.438 72 m 1,14,-1
 171.722 348 l 1,15,-1
 268.922 348 l 1,16,17
 248.555 211 248.555 211 304.709 141 c 128,-1,18
 360.862 71 360.862 71 495.338 68 c 1,19,-1
 580.186 553 l 1,20,21
 384.381 617 384.381 617 315.288 700.5 c 128,-1,22
 246.197 784 246.197 784 270.339 922 c 0,23,24
 298.329 1082 298.329 1082 414.299 1179 c 128,-1,25
 530.269 1276 530.269 1276 708.769 1288 c 1,26,-1
 755.652 1556 l 1,27,-1
 845.652 1556 l 1,28,-1
 798.769 1288 l 1,29,30
 888.268 1280 888.268 1280 968.131 1255.5 c 128,-1,31
 1048 1231 1048 1231 1120.92 1190 c 1,32,-1
 1075.09 928 l 1,33,-1
 976.987 928 l 1,34,35
 986.482 1044 986.482 1044 936.102 1111 c 128,-1,36
 885.724 1178 885.724 1178 781.099 1187 c 1,37,-1
 702.024 735 l 1,38,39
 911.703 668 911.703 668 985.222 581.5 c 128,-1,40
 1058.73 495 1058.73 495 1033.37 350 c 0,41,42
 1004.33 184 1004.33 184 882.437 84 c 128,-1,43
 760.543 -16 760.543 -16 568.019 -31 c 1,44,-1
 520.784 -301 l 1,45,-1
 430.784 -301 l 1,46,-1
 478.019 -31 l 1,47,48
 391.969 -29 391.969 -29 303.729 -3.5 c 128,-1,49
 215.491 22 215.491 22 123.438 72 c 1,14,-1
EndSplineSet
EndChar
StartChar: percent
Encoding: 37 37 8
Width: 1848
Flags: HW
Fore
629.615 1427 m 0,0,1
 550.415 1427 550.415 1427 491.346 1344 c 128,-1,2
 432.275 1261 432.275 1261 406.208 1112 c 0,3,4
 380.491 965 380.491 965 411.247 881 c 128,-1,5
 442.002 797 442.002 797 519.402 797 c 0,6,7
 595.902 797 595.902 797 655.06 880.5 c 128,-1,8
 714.217 964 714.217 964 740.108 1112 c 0,9,10
 766 1260 766 1260 736.058 1343.5 c 128,-1,11
 706.115 1427 706.115 1427 629.615 1427 c 0,0,1
1428.38 694 m 0,12,13
 1350.08 694 1350.08 694 1290.84 610 c 128,-1,14
 1231.59 526 1231.59 526 1205.53 377 c 0,15,16
 1179.81 230 1179.81 230 1210.21 146.5 c 128,-1,17
 1240.6 63 1240.6 63 1317.99 63 c 0,18,19
 1395.4 63 1395.4 63 1454.11 146.5 c 128,-1,20
 1512.81 230 1512.81 230 1538.53 377 c 0,21,22
 1564.42 525 1564.42 525 1534.65 609.5 c 128,-1,23
 1504.88 694 1504.88 694 1428.38 694 c 0,12,13
1444.12 784 m 0,24,25
 1586.32 784 1586.32 784 1650.78 674 c 128,-1,26
 1715.24 564 1715.24 564 1682.53 377 c 0,27,28
 1649.81 190 1649.81 190 1546.51 80.5 c 128,-1,29
 1443.2 -29 1443.2 -29 1301.9 -29 c 0,30,31
 1157.9 -29 1157.9 -29 1093.36 80.5 c 128,-1,32
 1028.81 190 1028.81 190 1061.53 377 c 0,33,34
 1094.41 565 1094.41 565 1197.72 674.5 c 128,-1,35
 1301.02 784 1301.02 784 1444.12 784 c 0,24,25
1460.39 1520 m 1,36,-1
 1597.19 1520 l 1,37,-1
 485.599 -29 l 1,38,-1
 348.799 -29 l 1,39,-1
 1460.39 1520 l 1,36,-1
644.085 1520 m 0,40,41
 786.285 1520 786.285 1520 851.729 1410.5 c 128,-1,42
 917.173 1301 917.173 1301 884.458 1114 c 0,43,44
 851.395 925 851.395 925 748.176 816 c 128,-1,45
 644.958 707 644.958 707 501.857 707 c 0,46,47
 358.758 707 358.758 707 294.663 816.5 c 128,-1,48
 230.569 926 230.569 926 263.458 1114 c 0,49,50
 295.998 1300 295.998 1300 398.941 1410 c 128,-1,51
 501.886 1520 501.886 1520 644.085 1520 c 0,40,41
EndSplineSet
EndChar
StartChar: ampersand
Encoding: 38 38 9
Width: 1730
Flags: HW
Fore
994.902 231 m 1,0,-1
 578.343 844 l 1,1,2
 486.396 766 486.396 766 431.416 675.5 c 128,-1,3
 376.433 585 376.433 585 358.589 483 c 0,4,5
 329.548 317 329.548 317 413.367 204.5 c 128,-1,6
 497.187 92 497.187 92 651.986 92 c 0,7,8
 743.787 92 743.787 92 831.446 127.5 c 128,-1,9
 919.106 163 919.106 163 994.902 231 c 1,0,-1
1512.49 0 m 1,10,-1
 1151.59 0 l 1,11,-1
 1053.65 145 l 1,12,13
 943.763 57 943.763 57 829.141 14 c 128,-1,14
 714.518 -29 714.518 -29 590.317 -29 c 0,15,16
 358.118 -29 358.118 -29 245.31 103 c 128,-1,17
 132.503 235 132.503 235 172.04 461 c 0,18,19
 195.308 594 195.308 594 284.362 709.5 c 128,-1,20
 373.419 825 373.419 825 530.588 926 c 1,21,22
 495.358 987 495.358 987 484.344 1047.5 c 128,-1,23
 473.328 1108 473.328 1108 484.874 1174 c 0,24,25
 512.689 1333 512.689 1333 632.097 1426.5 c 128,-1,26
 751.504 1520 751.504 1520 928.804 1520 c 0,27,28
 989.104 1520 989.104 1520 1066.68 1503 c 128,-1,29
 1144.26 1486 1144.26 1486 1241.81 1452 c 1,30,-1
 1196.67 1194 l 1,31,-1
 1094.97 1194 l 1,32,33
 1101.09 1301 1101.09 1301 1053.29 1357 c 128,-1,34
 1005.49 1413 1005.49 1413 906.485 1413 c 0,35,36
 813.785 1413 813.785 1413 746.301 1356.5 c 128,-1,37
 678.816 1300 678.816 1300 663.072 1210 c 0,38,39
 652.4 1149 652.4 1149 672.417 1088.5 c 128,-1,40
 692.432 1028 692.432 1028 769.863 915 c 2,41,-1
 1139.09 371 l 1,42,43
 1215.19 451 1215.19 451 1266.93 543.5 c 128,-1,44
 1318.66 636 1318.66 636 1346.02 741 c 1,45,-1
 1184.02 741 l 1,46,-1
 1202.74 848 l 1,47,-1
 1628.44 848 l 1,48,-1
 1609.72 741 l 1,49,-1
 1454.92 741 l 1,50,51
 1416.88 611 1416.88 611 1352.56 498 c 128,-1,52
 1288.25 385 1288.25 385 1196.75 289 c 1,53,-1
 1319.53 106 l 1,54,-1
 1531.03 106 l 1,55,-1
 1512.49 0 l 1,10,-1
EndSplineSet
EndChar
StartChar: quotesingle
Encoding: 39 39 10
Width: 534
Flags: HW
Fore
400.596 1493 m 1,0,-1
 303.504 938 l 1,1,-1
 160.404 938 l 1,2,-1
 257.496 1493 l 1,3,-1
 400.596 1493 l 1,0,-1
EndSplineSet
EndChar
StartChar: parenleft
Encoding: 40 40 11
Width: 767
Flags: HW
Fore
471.93 -319 m 1,0,1
 272.298 -210 272.298 -210 202.071 26.5 c 128,-1,2
 131.845 263 131.845 263 193.949 618 c 0,3,4
 256.23 974 256.23 974 409.203 1210.5 c 128,-1,5
 562.177 1447 562.177 1447 799.945 1556 c 1,6,-1
 782.802 1458 l 1,7,8
 625.657 1352 625.657 1352 531.682 1159.5 c 128,-1,9
 437.704 967 437.704 967 376.649 618 c 0,10,11
 315.771 270 315.771 270 342.394 77.5 c 128,-1,12
 369.018 -115 369.018 -115 489.072 -221 c 1,13,-1
 471.93 -319 l 1,0,1
EndSplineSet
EndChar
StartChar: parenright
Encoding: 41 41 12
Width: 750
Flags: HW
Fore
-1.89844 -319 m 1,0,-1
 15.2451 -221 l 1,1,2
 172.39 -115 172.39 -115 266.815 77.5 c 128,-1,3
 361.243 270 361.243 270 422.122 618 c 0,4,5
 483.177 967 483.177 967 456.104 1159.5 c 128,-1,6
 429.03 1352 429.03 1352 308.975 1458 c 1,7,-1
 326.118 1556 l 1,8,9
 526.649 1447 526.649 1447 596.876 1210.5 c 128,-1,10
 667.103 974 667.103 974 604.821 618 c 0,11,12
 542.717 263 542.717 263 389.744 26.5 c 128,-1,13
 236.771 -210 236.771 -210 -1.89844 -319 c 1,0,-1
EndSplineSet
EndChar
StartChar: asterisk
Encoding: 42 42 13
Width: 972
Flags: HW
Fore
975.104 1237 m 1,0,-1
 591.365 1055 l 1,1,-1
 910.9 870 l 1,2,-1
 821.857 752 l 1,3,-1
 546.62 969 l 1,4,-1
 491.667 588 l 1,5,-1
 369.268 588 l 1,6,-1
 447.62 969 l 1,7,-1
 96.457 752 l 1,8,-1
 48.7012 870 l 1,9,-1
 432.615 1053 l 1,10,-1
 112.904 1237 l 1,11,-1
 202.123 1356 l 1,12,-1
 477.36 1139 l 1,13,-1
 532.313 1520 l 1,14,-1
 654.713 1520 l 1,15,-1
 576.36 1139 l 1,16,-1
 927.522 1356 l 1,17,-1
 975.104 1237 l 1,0,-1
EndSplineSet
EndChar
StartChar: plus
Encoding: 43 43 14
Width: 1630
Flags: HW
Fore
1042.31 1284 m 1,0,-1
 944.171 723 l 1,1,-1
 1449.08 723 l 1,2,-1
 1420.73 561 l 1,3,-1
 915.83 561 l 1,4,-1
 817.688 0 l 1,5,-1
 673.688 0 l 1,6,-1
 771.83 561 l 1,7,-1
 266.93 561 l 1,8,-1
 295.271 723 l 1,9,-1
 800.171 723 l 1,10,-1
 898.313 1284 l 1,11,-1
 1042.31 1284 l 1,0,-1
EndSplineSet
EndChar
StartChar: comma
Encoding: 44 44 15
Width: 613
Flags: HW
Fore
63.4619 -199 m 1,0,1
 160.133 -130 160.133 -130 216.091 -36.5 c 128,-1,2
 272.048 57 272.048 57 295.314 190 c 2,3,-1
 301.788 227 l 1,4,-1
 479.088 227 l 1,5,6
 441.973 56 441.973 56 355.293 -66.5 c 128,-1,7
 268.612 -189 268.612 -189 121.468 -279 c 1,8,-1
 63.4619 -199 l 1,0,1
EndSplineSet
EndChar
StartChar: hyphen
Encoding: 45 45 16
Width: 657
Flags: HW
Fore
129.246 627 m 1,0,-1
 590.046 627 l 1,1,-1
 562.754 471 l 1,2,-1
 101.954 471 l 1,3,-1
 129.246 627 l 1,0,-1
EndSplineSet
KernsSLIF: 356 -73 0 0 221 -225 0 0 376 -225 0 0 89 -225 0 0 88 -73 0 0 87 -112 0 0 86 -149 0 0 84 -73 0 0
EndChar
StartChar: period
Encoding: 46 46 17
Width: 618
Flags: HW
Fore
206.199 104 m 0,0,1
 215.996 160 215.996 160 257.02 199 c 128,-1,2
 298.042 238 298.042 238 349.342 238 c 0,3,4
 398.842 238 398.842 238 427.119 199 c 128,-1,5
 455.396 160 455.396 160 445.599 104 c 0,6,7
 435.978 49 435.978 49 394.055 10 c 128,-1,8
 352.132 -29 352.132 -29 302.632 -29 c 0,9,10
 251.332 -29 251.332 -29 223.868 9.5 c 128,-1,11
 196.403 48 196.403 48 206.199 104 c 0,0,1
EndSplineSet
EndChar
StartChar: slash
Encoding: 47 47 18
Width: 655
Flags: HW
Fore
658.714 1493 m 1,0,-1
 802.714 1493 l 1,1,-1
 31.2861 -190 l 1,2,-1
 -112.714 -190 l 1,3,-1
 658.714 1493 l 1,0,-1
EndSplineSet
EndChar
StartChar: zero
Encoding: 48 48 19
Width: 1237
Flags: HW
Fore
532.827 70 m 0,0,1
 670.527 70 670.527 70 768.318 238 c 128,-1,2
 866.108 406 866.108 406 925.413 745 c 0,3,4
 984.893 1085 984.893 1085 945.885 1253 c 128,-1,5
 906.875 1421 906.875 1421 769.175 1421 c 0,6,7
 631.475 1421 631.475 1421 533.685 1253 c 128,-1,8
 435.894 1085 435.894 1085 376.413 745 c 0,9,10
 317.108 406 317.108 406 356.118 238 c 128,-1,11
 395.128 70 395.128 70 532.827 70 c 0,0,1
515.508 -29 m 0,12,13
 296.808 -29 296.808 -29 209.646 175 c 128,-1,14
 122.485 379 122.485 379 186.513 745 c 0,15,16
 250.717 1112 250.717 1112 409.256 1316 c 128,-1,17
 567.794 1520 567.794 1520 786.494 1520 c 0,18,19
 1006.1 1520 1006.1 1520 1092.8 1316 c 128,-1,20
 1179.52 1112 1179.52 1112 1115.31 745 c 0,21,22
 1051.29 379 1051.29 379 893.196 175 c 128,-1,23
 735.108 -29 735.108 -29 515.508 -29 c 0,12,13
EndSplineSet
EndChar
StartChar: one
Encoding: 49 49 20
Width: 1224
Flags: HW
Fore
181.094 0 m 1,0,-1
 199.638 106 l 1,1,-1
 433.638 106 l 1,2,-1
 650.916 1348 l 1,3,-1
 345.902 1153 l 1,4,-1
 368.819 1284 l 1,5,-1
 737.706 1520 l 1,6,-1
 861.906 1520 l 1,7,-1
 614.537 106 l 1,8,-1
 848.537 106 l 1,9,-1
 829.994 0 l 1,10,-1
 181.094 0 l 1,0,-1
EndSplineSet
EndChar
StartChar: two
Encoding: 50 50 21
Width: 1230
Flags: HW
Fore
359.143 1137 m 1,0,-1
 258.343 1137 l 1,1,-1
 304.877 1403 l 1,2,3
 411.149 1460 411.149 1460 514.047 1490 c 128,-1,4
 616.945 1520 616.945 1520 710.546 1520 c 0,5,6
 920.246 1520 920.246 1520 1021.97 1407 c 128,-1,7
 1123.71 1294 1123.71 1294 1089.77 1100 c 0,8,9
 1051.46 881 1051.46 881 722.7 576 c 0,10,11
 697.077 553 697.077 553 684.178 541 c 2,12,-1
 278.924 164 l 1,13,-1
 839.624 164 l 1,14,-1
 871.813 348 l 1,15,-1
 977.117 348 l 1,16,-1
 916.233 0 l 1,17,-1
 49.5332 0 l 1,18,-1
 68.6016 109 l 1,19,-1
 555.376 561 l 2,20,21
 716.618 711 716.618 711 796.173 836.5 c 128,-1,22
 875.729 962 875.729 962 899.87 1100 c 0,23,24
 926.286 1251 926.286 1251 870.507 1336 c 128,-1,25
 814.727 1421 814.727 1421 690.526 1421 c 0,26,27
 561.826 1421 561.826 1421 479.206 1350 c 128,-1,28
 396.585 1279 396.585 1279 359.143 1137 c 1,0,-1
EndSplineSet
EndChar
StartChar: three
Encoding: 51 51 22
Width: 1232
Flags: HW
Fore
359.049 1430 m 1,0,1
 472.046 1474 472.046 1474 572.819 1497 c 128,-1,2
 673.594 1520 673.594 1520 758.193 1520 c 0,3,4
 955.293 1520 955.293 1520 1049.46 1425.5 c 128,-1,5
 1143.63 1331 1143.63 1331 1114.24 1163 c 0,6,7
 1090.62 1028 1090.62 1028 998.288 937.5 c 128,-1,8
 905.956 847 905.956 847 759.959 815 c 1,9,10
 921.01 789 921.01 789 993.555 681.5 c 128,-1,11
 1066.09 574 1066.09 574 1036.18 403 c 0,12,13
 999.62 194 999.62 194 853.664 82.5 c 128,-1,14
 707.707 -29 707.707 -29 470.107 -29 c 0,15,16
 364.807 -29 364.807 -29 268.831 -4 c 128,-1,17
 172.855 21 172.855 21 82.7764 72 c 1,18,-1
 133.51 362 l 1,19,-1
 234.31 362 l 1,20,21
 218.119 218 218.119 218 283.473 144 c 128,-1,22
 348.826 70 348.826 70 491.026 70 c 0,23,24
 628.727 70 628.727 70 723.858 158.5 c 128,-1,25
 818.992 247 818.992 247 845.933 401 c 0,26,27
 876.723 577 876.723 577 810.654 667.5 c 128,-1,28
 744.587 758 744.587 758 586.188 758 c 2,29,-1
 500.688 758 l 1,30,-1
 518.531 860 l 1,31,-1
 563.531 860 l 2,32,33
 721.031 860 721.031 860 812.464 932.5 c 128,-1,34
 903.897 1005 903.897 1005 929.439 1151 c 0,35,36
 952.356 1282 952.356 1282 899.716 1351.5 c 128,-1,37
 847.074 1421 847.074 1421 725.574 1421 c 0,38,39
 604.074 1421 604.074 1421 525.827 1357 c 128,-1,40
 447.581 1293 447.581 1293 413.839 1167 c 1,41,-1
 313.039 1167 l 1,42,-1
 359.049 1430 l 1,0,1
EndSplineSet
EndChar
StartChar: four
Encoding: 52 52 23
Width: 1229
Flags: HW
Fore
656.237 506 m 1,0,-1
 795.143 1300 l 1,1,-1
 197.237 506 l 1,2,-1
 656.237 506 l 1,0,-1
963.716 0 m 1,3,-1
 351.717 0 l 1,4,-1
 370.261 106 l 1,5,-1
 586.261 106 l 1,6,-1
 637.519 399 l 1,7,-1
 50.7188 399 l 1,8,-1
 69.7881 508 l 1,9,-1
 835.429 1520 l 1,10,-1
 1013.63 1520 l 1,11,-1
 836.237 506 l 1,12,-1
 1092.74 506 l 1,13,-1
 1074.02 399 l 1,14,-1
 817.519 399 l 1,15,-1
 766.261 106 l 1,16,-1
 982.265 106 l 1,17,-1
 963.716 0 l 1,3,-1
EndSplineSet
EndChar
StartChar: five
Encoding: 53 53 24
Width: 1233
Flags: HW
Fore
1121.31 1493 m 1,0,-1
 1092.62 1329 l 1,1,-1
 477.021 1329 l 1,2,-1
 402.147 901 l 1,3,4
 455.245 937 455.245 937 520.943 955 c 128,-1,5
 586.643 973 586.643 973 664.043 973 c 0,6,7
 881.843 973 881.843 973 984.401 839 c 128,-1,8
 1086.96 705 1086.96 705 1046.38 473 c 0,9,10
 1004.91 236 1004.91 236 854.38 103.5 c 128,-1,11
 703.85 -29 703.85 -29 473.45 -29 c 0,12,13
 380.75 -29 380.75 -29 287.925 -4 c 128,-1,14
 195.098 21 195.098 21 102.319 72 c 1,15,-1
 153.053 362 l 1,16,-1
 254.753 362 l 1,17,18
 238.012 220 238.012 220 298.239 145 c 128,-1,19
 358.47 70 358.47 70 490.77 70 c 0,20,21
 632.97 70 632.97 70 727.664 174 c 128,-1,22
 822.357 278 822.357 278 856.471 473 c 0,23,24
 890.41 667 890.41 667 832.466 770.5 c 128,-1,25
 774.523 874 774.523 874 631.423 874 c 0,26,27
 550.423 874 550.423 874 483.175 842 c 128,-1,28
 415.927 810 415.927 810 356.506 743 c 1,29,-1
 279.105 743 l 1,30,-1
 410.313 1493 l 1,31,-1
 1121.31 1493 l 1,0,-1
EndSplineSet
EndChar
StartChar: six
Encoding: 54 54 25
Width: 1239
Flags: HW
Fore
551.576 70 m 0,0,1
 678.477 70 678.477 70 764.982 173.5 c 128,-1,2
 851.489 277 851.489 277 885.429 471 c 0,3,4
 919.367 665 919.367 665 869.073 768.5 c 128,-1,5
 818.78 872 818.78 872 691.88 872 c 0,6,7
 563.18 872 563.18 872 478.186 772 c 128,-1,8
 393.191 672 393.191 672 360.128 483 c 0,9,10
 325.314 284 325.314 284 374.995 177 c 128,-1,11
 424.676 70 424.676 70 551.576 70 c 0,0,1
389.732 822 m 1,12,13
 464.053 897 464.053 897 547.927 934 c 128,-1,14
 631.8 971 631.8 971 728.999 971 c 0,15,16
 929.699 971 929.699 971 1022.81 837 c 128,-1,17
 1115.92 703 1115.92 703 1075.33 471 c 0,18,19
 1035.62 244 1035.62 244 886.187 107.5 c 128,-1,20
 736.757 -29 736.757 -29 527.057 -29 c 0,21,22
 299.356 -29 299.356 -29 209.934 159.5 c 128,-1,23
 120.51 348 120.51 348 181.74 698 c 0,24,25
 250.317 1090 250.317 1090 432.83 1305 c 128,-1,26
 615.343 1520 615.343 1520 879.043 1520 c 0,27,28
 950.143 1520 950.143 1520 1025.82 1505 c 128,-1,29
 1101.5 1490 1101.5 1490 1178.14 1460 c 1,30,-1
 1135.11 1214 l 1,31,-1
 1033.41 1214 l 1,32,33
 1040.28 1315 1040.28 1315 991.05 1368 c 128,-1,34
 941.823 1421 941.823 1421 842.823 1421 c 0,35,36
 668.224 1421 668.224 1421 557.007 1274 c 128,-1,37
 445.79 1127 445.79 1127 389.732 822 c 1,12,13
EndSplineSet
EndChar
StartChar: seven
Encoding: 55 55 26
Width: 1250
Flags: HW
Fore
1229.73 1391 m 1,0,-1
 460.784 0 l 1,1,-1
 326.685 0 l 1,2,-1
 1060.49 1329 l 1,3,-1
 439.482 1329 l 1,4,-1
 407.293 1145 l 1,5,-1
 301.993 1145 l 1,6,-1
 362.872 1493 l 1,7,-1
 1247.57 1493 l 1,8,-1
 1229.73 1391 l 1,0,-1
EndSplineSet
EndChar
StartChar: eight
Encoding: 56 56 27
Width: 1235
Flags: HW
Fore
862.586 408 m 0,0,1
 890.577 568 890.577 568 834.51 656.5 c 128,-1,2
 778.441 745 778.441 745 648.841 745 c 0,3,4
 519.241 745 519.241 745 432.21 656.5 c 128,-1,5
 345.177 568 345.177 568 317.186 408 c 0,6,7
 289.021 247 289.021 247 345.088 158.5 c 128,-1,8
 401.156 70 401.156 70 530.756 70 c 0,9,10
 660.355 70 660.355 70 747.388 158.5 c 128,-1,11
 834.421 247 834.421 247 862.586 408 c 0,0,1
952.52 1133 m 0,12,13
 976.313 1269 976.313 1269 927.508 1345 c 128,-1,14
 878.703 1421 878.703 1421 767.104 1421 c 0,15,16
 656.403 1421 656.403 1421 580.558 1345 c 128,-1,17
 504.712 1269 504.712 1269 480.919 1133 c 0,18,19
 456.952 996 456.952 996 506.207 920 c 128,-1,20
 555.461 844 555.461 844 666.161 844 c 0,21,22
 777.761 844 777.761 844 853.156 920 c 128,-1,23
 928.553 996 928.553 996 952.52 1133 c 0,12,13
796.189 795 m 1,24,25
 945.165 772 945.165 772 1012.74 669.5 c 128,-1,26
 1080.3 567 1080.3 567 1052.49 408 c 0,27,28
 1015.75 198 1015.75 198 876.193 84.5 c 128,-1,29
 736.637 -29 736.637 -29 513.437 -29 c 0,30,31
 291.137 -29 291.137 -29 190.843 84.5 c 128,-1,32
 90.5488 198 90.5488 198 127.286 408 c 0,33,34
 155.103 567 155.103 567 258.534 669.5 c 128,-1,35
 361.966 772 361.966 772 519.89 795 c 1,36,37
 388.713 822 388.713 822 331.569 909.5 c 128,-1,38
 274.428 997 274.428 997 298.22 1133 c 0,39,40
 329.709 1313 329.709 1313 459.416 1416.5 c 128,-1,41
 589.123 1520 589.123 1520 784.423 1520 c 0,42,43
 979.725 1520 979.725 1520 1073.22 1416.5 c 128,-1,44
 1166.71 1313 1166.71 1313 1135.22 1133 c 0,45,46
 1111.43 997 1111.43 997 1023.67 909.5 c 128,-1,47
 935.912 822 935.912 822 796.189 795 c 1,24,25
EndSplineSet
EndChar
StartChar: nine
Encoding: 57 57 28
Width: 1236
Flags: HW
Fore
912.321 669 m 1,0,1
 838.901 594 838.901 594 754.127 557 c 128,-1,2
 669.354 520 669.354 520 571.255 520 c 0,3,4
 371.454 520 371.454 520 279.247 654 c 128,-1,5
 187.039 788 187.039 788 227.625 1020 c 0,6,7
 267.337 1247 267.337 1247 416.768 1383.5 c 128,-1,8
 566.197 1520 566.197 1520 775.897 1520 c 0,9,10
 1003.6 1520 1003.6 1520 1092.57 1331.5 c 128,-1,11
 1181.55 1143 1181.55 1143 1120.31 793 c 0,12,13
 1051.74 401 1051.74 401 869.224 186 c 128,-1,14
 686.711 -29 686.711 -29 423.911 -29 c 0,15,16
 352.811 -29 352.811 -29 277.136 -14 c 128,-1,17
 201.46 1 201.46 1 124.808 31 c 1,18,-1
 168.193 279 l 1,19,-1
 268.993 279 l 1,20,21
 263.024 178 263.024 178 312.077 124 c 128,-1,22
 361.131 70 361.131 70 459.23 70 c 0,23,24
 633.83 70 633.83 70 744.96 216.5 c 128,-1,25
 856.088 363 856.088 363 912.321 669 c 1,0,1
751.378 1421 m 0,26,27
 623.578 1421 623.578 1421 537.521 1317.5 c 128,-1,28
 451.465 1214 451.465 1214 417.525 1020 c 0,29,30
 383.587 826 383.587 826 433.343 722 c 128,-1,31
 483.1 618 483.1 618 610.899 618 c 0,32,33
 738.699 618 738.699 618 824.231 718.5 c 128,-1,34
 909.763 819 909.763 819 942.826 1008 c 0,35,36
 977.644 1207 977.644 1207 927.959 1314 c 128,-1,37
 878.277 1421 878.277 1421 751.378 1421 c 0,26,27
EndSplineSet
EndChar
StartChar: colon
Encoding: 58 58 29
Width: 655
Flags: HW
Fore
169.272 104 m 0,0,1
 179.07 160 179.07 160 220.543 199 c 128,-1,2
 262.016 238 262.016 238 312.415 238 c 0,3,4
 362.815 238 362.815 238 390.644 199 c 128,-1,5
 418.471 160 418.471 160 408.673 104 c 0,6,7
 398.876 48 398.876 48 357.94 9.5 c 128,-1,8
 317.005 -29 317.005 -29 265.705 -29 c 0,9,10
 214.405 -29 214.405 -29 186.94 9.5 c 128,-1,11
 159.477 48 159.477 48 169.272 104 c 0,0,1
283.335 756 m 0,12,13
 293.132 812 293.132 812 334.518 850.5 c 128,-1,14
 375.903 889 375.903 889 426.303 889 c 0,15,16
 477.603 889 477.603 889 505.154 851 c 128,-1,17
 532.706 813 532.706 813 522.735 756 c 0,18,19
 512.764 699 512.764 699 471.915 661 c 128,-1,20
 431.068 623 431.068 623 379.769 623 c 0,21,22
 329.368 623 329.368 623 301.453 661.5 c 128,-1,23
 273.538 700 273.538 700 283.335 756 c 0,12,13
EndSplineSet
EndChar
StartChar: semicolon
Encoding: 59 59 30
Width: 648
Flags: HW
Fore
5.90137 -199 m 1,0,1
 102.572 -130 102.572 -130 158.529 -36.5 c 128,-1,2
 214.486 57 214.486 57 237.754 190 c 2,3,-1
 244.227 227 l 1,4,-1
 421.526 227 l 1,5,6
 384.412 56 384.412 56 297.731 -66.5 c 128,-1,7
 211.052 -189 211.052 -189 63.9053 -279 c 1,8,-1
 5.90137 -199 l 1,0,1
301.671 756 m 0,9,10
 311.468 812 311.468 812 352.853 850.5 c 128,-1,11
 394.239 889 394.239 889 444.64 889 c 0,12,13
 495.039 889 495.039 889 522.866 850 c 128,-1,14
 550.692 811 550.692 811 541.07 756 c 0,15,16
 531.274 700 531.274 700 489.89 661.5 c 128,-1,17
 448.503 623 448.503 623 398.103 623 c 0,18,19
 347.703 623 347.703 623 319.789 661.5 c 128,-1,20
 291.874 700 291.874 700 301.671 756 c 0,9,10
EndSplineSet
EndChar
StartChar: less
Encoding: 60 60 31
Width: 1634
Flags: HW
Fore
1505.55 1020 m 1,0,-1
 505.045 641 l 1,1,-1
 1373.29 264 l 1,2,-1
 1343.55 94 l 1,3,-1
 271.099 559 l 1,4,-1
 300.14 725 l 1,5,-1
 1535.29 1190 l 1,6,-1
 1505.55 1020 l 1,0,-1
EndSplineSet
EndChar
StartChar: equal
Encoding: 61 61 32
Width: 1630
Flags: HW
Fore
330.783 926 m 1,0,-1
 1484.58 926 l 1,1,-1
 1456.59 766 l 1,2,-1
 302.793 766 l 1,3,-1
 330.783 926 l 1,0,-1
259.406 518 m 1,4,-1
 1413.21 518 l 1,5,-1
 1385.22 358 l 1,6,-1
 231.416 358 l 1,7,-1
 259.406 518 l 1,4,-1
EndSplineSet
EndChar
StartChar: greater
Encoding: 62 62 33
Width: 1625
Flags: HW
Fore
342.709 1020 m 1,0,-1
 372.449 1190 l 1,1,-1
 1444.9 725 l 1,2,-1
 1415.86 559 l 1,3,-1
 180.712 94 l 1,4,-1
 210.452 264 l 1,5,-1
 1210.61 641 l 1,6,-1
 342.709 1020 l 1,0,-1
EndSplineSet
EndChar
StartChar: question
Encoding: 63 63 34
Width: 1053
Flags: HW
Fore
276.887 104 m 0,0,1
 286.684 160 286.684 160 328.156 199 c 128,-1,2
 369.629 238 369.629 238 420.93 238 c 0,3,4
 470.43 238 470.43 238 498.706 199 c 128,-1,5
 526.983 160 526.983 160 517.188 104 c 0,6,7
 507.565 49 507.565 49 465.643 10 c 128,-1,8
 423.72 -29 423.72 -29 374.22 -29 c 0,9,10
 322.919 -29 322.919 -29 295.006 9.5 c 128,-1,11
 267.091 48 267.091 48 276.887 104 c 0,0,1
309.436 1427 m 1,12,13
 413.058 1474 413.058 1474 503.032 1497 c 128,-1,14
 593.006 1520 593.006 1520 668.605 1520 c 0,15,16
 868.405 1520 868.405 1520 965.338 1413 c 128,-1,17
 1062.27 1306 1062.27 1306 1030.43 1124 c 0,18,19
 997.891 938 997.891 938 877.796 820 c 128,-1,20
 757.703 702 757.703 702 548.08 651 c 1,21,-1
 503.646 397 l 1,22,-1
 392.945 397 l 1,23,-1
 450.327 725 l 1,24,25
 617.149 768 617.149 768 715.368 869 c 128,-1,26
 813.588 970 813.588 970 840.878 1126 c 0,27,28
 864.846 1263 864.846 1263 812.966 1342 c 128,-1,29
 761.086 1421 761.086 1421 647.687 1421 c 0,30,31
 545.086 1421 545.086 1421 468.377 1355.5 c 128,-1,32
 391.669 1290 391.669 1290 351.251 1167 c 1,33,-1
 263.951 1167 l 1,34,-1
 309.436 1427 l 1,12,13
EndSplineSet
EndChar
StartChar: at
Encoding: 64 64 35
Width: 1946
Flags: HW
Fore
1215.88 248 m 1,0,1
 1148.43 166 1148.43 166 1075.28 126 c 128,-1,2
 1002.13 86 1002.13 86 918.435 86 c 0,3,4
 760.935 86 760.935 86 684.703 211 c 128,-1,5
 608.471 336 608.471 336 643.634 537 c 0,6,7
 678.797 738 678.797 738 798.677 862.5 c 128,-1,8
 918.558 987 918.558 987 1076.05 987 c 0,9,10
 1159.75 987 1159.75 987 1218.91 947 c 128,-1,11
 1278.06 907 1278.06 907 1316.82 825 c 1,12,-1
 1341.66 967 l 1,13,-1
 1482.06 967 l 1,14,-1
 1347.01 195 l 1,15,16
 1506.48 232 1506.48 232 1612.95 357 c 128,-1,17
 1719.41 482 1719.41 482 1752.3 670 c 0,18,19
 1771.72 781 1771.72 781 1758.44 880 c 128,-1,20
 1745.16 979 1745.16 979 1699.55 1063 c 0,21,22
 1627.42 1196 1627.42 1196 1502.5 1266.5 c 128,-1,23
 1377.59 1337 1377.59 1337 1216.49 1337 c 0,24,25
 1135.49 1337 1135.49 1337 1052.96 1318 c 128,-1,26
 970.439 1299 970.439 1299 886.217 1260 c 0,27,28
 688.146 1167 688.146 1167 554.37 978.5 c 128,-1,29
 420.594 790 420.594 790 377.383 543 c 0,30,31
 348.167 376 348.167 376 368.589 235.5 c 128,-1,32
 389.01 95 389.01 95 456.489 -8 c 0,33,34
 533.772 -127 533.772 -127 657.388 -189.5 c 128,-1,35
 781.005 -252 781.005 -252 936.704 -252 c 0,36,37
 1052.81 -252 1052.81 -252 1160.25 -214 c 128,-1,38
 1267.7 -176 1267.7 -176 1367.39 -100 c 1,39,-1
 1402.85 -170 l 1,40,41
 1289.38 -263 1289.38 -263 1157.94 -309.5 c 128,-1,42
 1026.51 -356 1026.51 -356 879.81 -356 c 0,43,44
 715.11 -356 715.11 -356 576.895 -289.5 c 128,-1,45
 438.677 -223 438.677 -223 347.696 -100 c 0,46,47
 253.813 27 253.813 27 222.565 190.5 c 128,-1,48
 191.318 354 191.318 354 224.383 543 c 0,49,50
 256.572 727 256.572 727 345.389 890 c 128,-1,51
 434.204 1053 434.204 1053 571.621 1180 c 0,52,53
 707.964 1306 707.964 1306 875.11 1374 c 128,-1,54
 1042.26 1442 1042.26 1442 1216.86 1442 c 0,55,56
 1409.46 1442 1409.46 1442 1553.78 1359 c 128,-1,57
 1698.12 1276 1698.12 1276 1777.93 1120 c 0,58,59
 1829.18 1022 1829.18 1022 1844.16 907 c 128,-1,60
 1859.14 792 1859.14 792 1837.45 668 c 0,61,62
 1790.56 400 1790.56 400 1616.67 244.5 c 128,-1,63
 1442.76 89 1442.76 89 1188.44 86 c 1,64,-1
 1215.88 248 l 1,0,1
1257.34 485 m 2,65,-1
 1275.71 590 l 2,66,67
 1297.57 715 1297.57 715 1246.78 792.5 c 128,-1,68
 1195.99 870 1195.99 870 1092.49 870 c 0,69,70
 983.589 870 983.589 870 907.532 782.5 c 128,-1,71
 831.475 695 831.475 695 803.834 537 c 0,72,73
 776.019 378 776.019 378 821.91 290.5 c 128,-1,74
 867.803 203 867.803 203 977.604 203 c 0,75,76
 1080.2 203 1080.2 203 1157.84 281.5 c 128,-1,77
 1235.47 360 1235.47 360 1257.34 485 c 2,65,-1
EndSplineSet
EndChar
StartChar: A
Encoding: 65 65 36
Width: 1391
Flags: HW
Fore
393.919 541 m 1,0,-1
 887.119 541 l 1,1,-1
 764.728 1251 l 1,2,-1
 393.919 541 l 1,0,-1
-80.5234 0 m 1,3,-1
 -61.9814 106 l 1,4,-1
 55.9189 106 l 1,5,-1
 777.363 1493 l 1,6,-1
 928.563 1493 l 1,7,-1
 1165.62 106 l 1,8,-1
 1297.92 106 l 1,9,-1
 1279.38 0 l 1,10,-1
 790.676 0 l 1,11,-1
 809.219 106 l 1,12,-1
 958.619 106 l 1,13,-1
 903.5 434 l 1,14,-1
 338.3 434 l 1,15,-1
 168.419 106 l 1,16,-1
 316.019 106 l 1,17,-1
 297.477 0 l 1,18,-1
 -80.5234 0 l 1,3,-1
EndSplineSet
KernsSLIF: 357 -36 0 0 356 -112 0 0 253 -83 0 0 221 -83 0 0 64258 -36 0 0 64257 -36 0 0 376 -83 0 0 255 -83 0 0 8217 -301 0 0 8221 -301 0 0 121 -83 0 0 119 -92 0 0 118 -83 0 0 116 -36 0 0 102 -36 0 0 89 -83 0 0 87 -83 0 0 86 -102 0 0 84 -112 0 0
EndChar
StartChar: B
Encoding: 66 66 37
Width: 1422
Flags: HW
Fore
411.146 106 m 1,0,-1
 680.246 106 l 2,1,2
 842.246 106 842.246 106 930.592 184 c 128,-1,3
 1018.94 262 1018.94 262 1048.68 432 c 0,4,5
 1078.25 601 1078.25 601 1017.55 678.5 c 128,-1,6
 956.859 756 956.859 756 793.959 756 c 2,7,-1
 524.859 756 l 1,8,-1
 411.146 106 l 1,0,-1
543.403 862 m 1,9,-1
 772.003 862 l 2,10,11
 919.603 862 919.603 862 998.577 925 c 128,-1,12
 1077.54 988 1077.54 988 1101.34 1124 c 0,13,14
 1125.31 1261 1125.31 1261 1068.29 1323.5 c 128,-1,15
 1011.28 1386 1011.28 1386 863.674 1386 c 2,16,-1
 635.073 1386 l 1,17,-1
 543.403 862 l 1,9,-1
38.9033 0 m 1,18,-1
 57.4463 106 l 1,19,-1
 228.446 106 l 1,20,-1
 452.373 1386 l 1,21,-1
 281.373 1386 l 1,22,-1
 300.091 1493 l 1,23,-1
 963.391 1493 l 2,24,25
 1166.79 1493 1166.79 1493 1253.66 1400.5 c 128,-1,26
 1340.52 1308 1340.52 1308 1308.34 1124 c 0,27,28
 1285.07 991 1285.07 991 1199.7 912 c 128,-1,29
 1114.33 833 1114.33 833 973.485 815 c 1,30,31
 1140.28 791 1140.28 791 1211.88 693.5 c 128,-1,32
 1283.47 596 1283.47 596 1254.78 432 c 0,33,34
 1215.94 210 1215.94 210 1071.57 105 c 128,-1,35
 927.203 0 927.203 0 659.903 0 c 2,36,-1
 38.9033 0 l 1,18,-1
EndSplineSet
KernsSLIF: 268 38 0 0 262 38 0 0 286 38 0 0 221 -36 0 0 210 38 0 0 212 38 0 0 211 38 0 0 376 -36 0 0 338 38 0 0 213 38 0 0 216 38 0 0 214 38 0 0 199 38 0 0 89 -36 0 0 79 38 0 0 71 38 0 0 67 38 0 0 45 38 0 0
EndChar
StartChar: C
Encoding: 67 67 38
Width: 1491
Flags: HW
Fore
1319.46 395 m 1,0,1
 1223.49 186 1223.49 186 1064.74 78.5 c 128,-1,2
 905.984 -29 905.984 -29 691.785 -29 c 0,3,4
 560.385 -29 560.385 -29 456.633 21 c 128,-1,5
 352.88 71 352.88 71 282.549 168 c 0,6,7
 201.343 280 201.343 280 177.222 422.5 c 128,-1,8
 153.101 565 153.101 565 184.59 745 c 0,9,10
 245.471 1093 245.471 1093 463.721 1306.5 c 128,-1,11
 681.971 1520 681.971 1520 978.071 1520 c 0,12,13
 1087.87 1520 1087.87 1520 1206.47 1488 c 128,-1,14
 1325.08 1456 1325.08 1456 1456.8 1391 c 1,15,-1
 1396.63 1047 l 1,16,-1
 1294.93 1047 l 1,17,18
 1294.51 1235 1294.51 1235 1209.73 1324 c 128,-1,19
 1124.95 1413 1124.95 1413 944.052 1413 c 0,20,21
 728.952 1413 728.952 1413 588.6 1243.5 c 128,-1,22
 448.247 1074 448.247 1074 390.689 745 c 0,23,24
 333.31 417 333.31 417 414.356 247.5 c 128,-1,25
 495.404 78 495.404 78 710.504 78 c 0,26,27
 860.804 78 860.804 78 971.911 157.5 c 128,-1,28
 1083.02 237 1083.02 237 1153.86 395 c 1,29,-1
 1319.46 395 l 1,0,1
EndSplineSet
KernsSLIF: 46 -73 0 0 44 -73 0 0
EndChar
StartChar: D
Encoding: 68 68 39
Width: 1553
Flags: HW
Fore
418.907 106 m 1,0,-1
 586.307 106 l 2,1,2
 848.207 106 848.207 106 1017.2 272 c 128,-1,3
 1186.18 438 1186.18 438 1240.42 748 c 0,4,5
 1294.65 1058 1294.65 1058 1183.84 1222 c 128,-1,6
 1073.04 1386 1073.04 1386 810.234 1386 c 2,7,-1
 642.834 1386 l 1,8,-1
 418.907 106 l 1,0,-1
46.6641 0 m 1,9,-1
 65.207 106 l 1,10,-1
 236.207 106 l 1,11,-1
 460.134 1386 l 1,12,-1
 289.134 1386 l 1,13,-1
 307.852 1493 l 1,14,-1
 842.451 1493 l 2,15,16
 1189.85 1493 1189.85 1493 1349.34 1296 c 128,-1,17
 1508.83 1099 1508.83 1099 1447.42 748 c 0,18,19
 1385.84 396 1385.84 396 1156.8 198 c 128,-1,20
 927.764 0 927.764 0 581.264 0 c 2,21,-1
 46.6641 0 l 1,9,-1
EndSplineSet
KernsSLIF: 86 -36 0 0 46 -73 0 0 45 38 0 0 44 -73 0 0
EndChar
StartChar: E
Encoding: 69 69 40
Width: 1416
Flags: HW
Fore
42.5059 0 m 1,0,-1
 61.0488 106 l 1,1,-1
 232.049 106 l 1,2,-1
 455.977 1386 l 1,3,-1
 284.977 1386 l 1,4,-1
 303.693 1493 l 1,5,-1
 1385.49 1493 l 1,6,-1
 1327.41 1161 l 1,7,-1
 1216.71 1161 l 1,8,-1
 1253.28 1370 l 1,9,-1
 635.876 1370 l 1,10,-1
 548.405 870 l 1,11,-1
 988.509 870 l 1,12,-1
 1021.22 1057 l 1,13,-1
 1131.92 1057 l 1,14,-1
 1045.15 561 l 1,15,-1
 934.447 561 l 1,16,-1
 967.162 748 l 1,17,-1
 527.062 748 l 1,18,-1
 417.724 123 l 1,19,-1
 1049.52 123 l 1,20,-1
 1086.09 332 l 1,21,-1
 1196.79 332 l 1,22,-1
 1138.71 0 l 1,23,-1
 42.5059 0 l 1,0,-1
EndSplineSet
KernsSLIF: 45 38 0 0
EndChar
StartChar: F
Encoding: 70 70 41
Width: 1351
Flags: HW
Fore
43.5059 0 m 1,0,-1
 62.0488 106 l 1,1,-1
 233.049 106 l 1,2,-1
 456.977 1386 l 1,3,-1
 285.977 1386 l 1,4,-1
 304.693 1493 l 1,5,-1
 1404.49 1493 l 1,6,-1
 1346.41 1161 l 1,7,-1
 1235.71 1161 l 1,8,-1
 1272.28 1370 l 1,9,-1
 636.876 1370 l 1,10,-1
 549.405 870 l 1,11,-1
 1008.41 870 l 1,12,-1
 1041.12 1057 l 1,13,-1
 1151.82 1057 l 1,14,-1
 1065.05 561 l 1,15,-1
 954.348 561 l 1,16,-1
 987.061 748 l 1,17,-1
 528.062 748 l 1,18,-1
 415.749 106 l 1,19,-1
 630.849 106 l 1,20,-1
 612.307 0 l 1,21,-1
 43.5059 0 l 1,0,-1
EndSplineSet
KernsSLIF: 283 -112 0 0 193 -178 0 0 194 -178 0 0 339 -112 0 0 195 -178 0 0 192 -178 0 0 248 -112 0 0 230 -139 0 0 245 -112 0 0 246 -112 0 0 244 -112 0 0 242 -112 0 0 243 -112 0 0 235 -112 0 0 234 -112 0 0 232 -112 0 0 233 -112 0 0 229 -139 0 0 227 -139 0 0 228 -139 0 0 226 -139 0 0 224 -139 0 0 225 -139 0 0 196 -178 0 0 111 -112 0 0 101 -112 0 0 97 -139 0 0 65 -178 0 0 59 -73 0 0 58 -73 0 0 46 -319 0 0 45 -92 0 0 44 -319 0 0
EndChar
StartChar: G
Encoding: 71 71 42
Width: 1554
Flags: HW
Fore
1314.91 1047 m 1,0,1
 1316.12 1234 1316.12 1234 1231.87 1323.5 c 128,-1,2
 1147.63 1413 1147.63 1413 969.431 1413 c 0,3,4
 737.231 1413 737.231 1413 593.89 1247 c 128,-1,5
 450.551 1081 450.551 1081 391.769 745 c 0,6,7
 334.214 416 334.214 416 422.549 247 c 128,-1,8
 510.883 78 510.883 78 739.482 78 c 0,9,10
 841.183 78 841.183 78 938.78 106 c 128,-1,11
 1036.38 134 1036.38 134 1129.88 190 c 1,12,-1
 1197.23 575 l 1,13,-1
 944.329 575 l 1,14,-1
 963.048 682 l 1,15,-1
 1398.65 682 l 1,16,-1
 1301.21 125 l 1,17,18
 1168.04 48 1168.04 48 1023.15 9.5 c 128,-1,19
 878.264 -29 878.264 -29 720.764 -29 c 0,20,21
 416.563 -29 416.563 -29 270.414 182.5 c 128,-1,22
 124.265 394 124.265 394 185.669 745 c 0,23,24
 247.6 1099 247.6 1099 468.024 1309.5 c 128,-1,25
 688.45 1520 688.45 1520 998.952 1520 c 0,26,27
 1114.15 1520 1114.15 1520 1231.84 1490.5 c 128,-1,28
 1349.53 1461 1349.53 1461 1477.63 1401 c 1,29,-1
 1415.71 1047 l 1,30,-1
 1314.91 1047 l 1,0,1
EndSplineSet
KernsSLIF: 221 -36 0 0 376 -36 0 0 89 -36 0 0 46 -73 0 0 45 38 0 0 44 -73 0 0
EndChar
StartChar: H
Encoding: 72 72 43
Width: 1696
Flags: HW
Fore
60.4053 0 m 1,0,-1
 78.9492 106 l 1,1,-1
 249.949 106 l 1,2,-1
 473.876 1386 l 1,3,-1
 302.876 1386 l 1,4,-1
 321.594 1493 l 1,5,-1
 846.293 1493 l 1,6,-1
 827.576 1386 l 1,7,-1
 656.576 1386 l 1,8,-1
 566.305 870 l 1,9,-1
 1262.91 870 l 1,10,-1
 1353.18 1386 l 1,11,-1
 1182.18 1386 l 1,12,-1
 1200.89 1493 l 1,13,-1
 1725.59 1493 l 1,14,-1
 1706.88 1386 l 1,15,-1
 1535.88 1386 l 1,16,-1
 1311.95 106 l 1,17,-1
 1482.95 106 l 1,18,-1
 1464.41 0 l 1,19,-1
 939.706 0 l 1,20,-1
 958.249 106 l 1,21,-1
 1129.25 106 l 1,22,-1
 1241.56 748 l 1,23,-1
 544.963 748 l 1,24,-1
 432.648 106 l 1,25,-1
 603.648 106 l 1,26,-1
 585.106 0 l 1,27,-1
 60.4053 0 l 1,0,-1
EndSplineSet
EndChar
StartChar: I
Encoding: 73 73 44
Width: 768
Flags: HW
Fore
383.799 106 m 1,0,-1
 554.799 106 l 1,1,-1
 536.257 0 l 1,2,-1
 11.5557 0 l 1,3,-1
 30.0986 106 l 1,4,-1
 201.099 106 l 1,5,-1
 425.026 1386 l 1,6,-1
 254.026 1386 l 1,7,-1
 272.743 1493 l 1,8,-1
 797.443 1493 l 1,9,-1
 778.727 1386 l 1,10,-1
 607.727 1386 l 1,11,-1
 383.799 106 l 1,0,-1
EndSplineSet
EndChar
StartChar: J
Encoding: 74 74 45
Width: 767
Flags: HW
Fore
-282.35 -358 m 1,0,-1
 -241.238 -123 l 1,1,-1
 -138.638 -123 l 1,2,3
 -153.258 -222 -153.258 -222 -122.143 -270.5 c 128,-1,4
 -91.0273 -319 -91.0273 -319 -11.8271 -319 c 0,5,6
 95.2725 -319 95.2725 -319 150.693 -244 c 128,-1,7
 206.114 -169 206.114 -169 244.251 49 c 2,8,-1
 478.149 1386 l 1,9,-1
 269.349 1386 l 1,10,-1
 288.068 1493 l 1,11,-1
 850.568 1493 l 1,12,-1
 831.849 1386 l 1,13,-1
 660.849 1386 l 1,14,-1
 425.552 41 l 2,15,16
 382.342 -206 382.342 -206 273.997 -316 c 128,-1,17
 165.653 -426 165.653 -426 -32.3457 -426 c 0,18,19
 -96.2461 -426 -96.2461 -426 -159.422 -409 c 128,-1,20
 -222.599 -392 -222.599 -392 -282.35 -358 c 1,0,-1
EndSplineSet
KernsSLIF: 59 -83 0 0 58 -83 0 0 46 -159 0 0 44 -120 0 0
EndChar
StartChar: K
Encoding: 75 75 46
Width: 1456
Flags: HW
Fore
50.9053 0 m 1,0,-1
 69.4492 106 l 1,1,-1
 240.449 106 l 1,2,-1
 464.376 1386 l 1,3,-1
 293.376 1386 l 1,4,-1
 312.094 1493 l 1,5,-1
 836.793 1493 l 1,6,-1
 818.076 1386 l 1,7,-1
 647.076 1386 l 1,8,-1
 548.232 821 l 1,9,-1
 1225.78 1386 l 1,10,-1
 1079.98 1386 l 1,11,-1
 1098.69 1493 l 1,12,-1
 1545.09 1493 l 1,13,-1
 1526.38 1386 l 1,14,-1
 1375.18 1386 l 1,15,-1
 699.783 823 l 1,16,-1
 1219.65 106 l 1,17,-1
 1372.65 106 l 1,18,-1
 1354.11 0 l 1,19,-1
 1041.81 0 l 1,20,-1
 528.64 709 l 1,21,-1
 423.148 106 l 1,22,-1
 594.148 106 l 1,23,-1
 575.606 0 l 1,24,-1
 50.9053 0 l 1,0,-1
EndSplineSet
KernsSLIF: 367 -45 0 0 366 -73 0 0 283 -55 0 0 268 -55 0 0 262 -55 0 0 253 -131 0 0 221 -55 0 0 217 -73 0 0 219 -73 0 0 218 -73 0 0 210 -55 0 0 212 -55 0 0 211 -55 0 0 193 -83 0 0 194 -83 0 0 376 -55 0 0 255 -131 0 0 339 -55 0 0 338 -55 0 0 213 -55 0 0 195 -83 0 0 192 -83 0 0 248 -36 0 0 216 -55 0 0 252 -45 0 0 251 -45 0 0 249 -45 0 0 250 -45 0 0 245 -55 0 0 246 -55 0 0 244 -55 0 0 242 -55 0 0 243 -55 0 0 235 -55 0 0 234 -55 0 0 232 -55 0 0 233 -55 0 0 220 -73 0 0 214 -55 0 0 199 -55 0 0 196 -83 0 0 121 -131 0 0 117 -45 0 0 111 -55 0 0 101 -55 0 0 89 -55 0 0 87 -73 0 0 85 -73 0 0 79 -55 0 0 67 -55 0 0 65 -83 0 0 45 -149 0 0
EndChar
StartChar: L
Encoding: 76 76 47
Width: 1284
Flags: HW
Fore
31.4209 0 m 1,0,-1
 49.9639 106 l 1,1,-1
 220.964 106 l 1,2,-1
 444.891 1386 l 1,3,-1
 273.891 1386 l 1,4,-1
 292.608 1493 l 1,5,-1
 817.309 1493 l 1,6,-1
 798.591 1386 l 1,7,-1
 627.591 1386 l 1,8,-1
 406.639 123 l 1,9,-1
 1020.43 123 l 1,10,-1
 1064.17 373 l 1,11,-1
 1174.88 373 l 1,12,-1
 1109.62 0 l 1,13,-1
 31.4209 0 l 1,0,-1
EndSplineSet
KernsSLIF: 366 -112 0 0 356 -167 0 0 253 -36 0 0 221 -131 0 0 217 -112 0 0 219 -112 0 0 218 -112 0 0 376 -131 0 0 255 -36 0 0 8217 -491 0 0 8221 -491 0 0 220 -112 0 0 121 -36 0 0 89 -131 0 0 87 -178 0 0 86 -243 0 0 85 -112 0 0 84 -167 0 0
EndChar
StartChar: M
Encoding: 77 77 48
Width: 1992
Flags: HW
Fore
76.4053 0 m 1,0,-1
 94.9492 106 l 1,1,-1
 265.949 106 l 1,2,-1
 489.876 1386 l 1,3,-1
 308.977 1386 l 1,4,-1
 327.693 1493 l 1,5,-1
 719.193 1493 l 1,6,-1
 1004.83 430 l 1,7,-1
 1662.39 1493 l 1,8,-1
 2029.59 1493 l 1,9,-1
 2010.88 1386 l 1,10,-1
 1831.78 1386 l 1,11,-1
 1607.85 106 l 1,12,-1
 1779.75 106 l 1,13,-1
 1761.21 0 l 1,14,-1
 1235.61 0 l 1,15,-1
 1254.15 106 l 1,16,-1
 1425.15 106 l 1,17,-1
 1627.03 1260 l 1,18,-1
 984.118 219 l 1,19,-1
 857.219 219 l 1,20,-1
 578.532 1260 l 1,21,-1
 376.648 106 l 1,22,-1
 547.648 106 l 1,23,-1
 529.106 0 l 1,24,-1
 76.4053 0 l 1,0,-1
EndSplineSet
EndChar
StartChar: N
Encoding: 78 78 49
Width: 1703
Flags: HW
Fore
52.3242 0 m 1,0,-1
 70.8682 106 l 1,1,-1
 251.768 106 l 1,2,-1
 475.694 1386 l 1,3,-1
 294.794 1386 l 1,4,-1
 313.514 1493 l 1,5,-1
 658.213 1493 l 1,6,-1
 1257.63 315 l 1,7,-1
 1444.99 1386 l 1,8,-1
 1264.99 1386 l 1,9,-1
 1283.71 1493 l 1,10,-1
 1755.31 1493 l 1,11,-1
 1736.59 1386 l 1,12,-1
 1555.69 1386 l 1,13,-1
 1308.15 -29 l 1,14,-1
 1199.25 -29 l 1,15,-1
 558.928 1229 l 1,16,-1
 362.468 106 l 1,17,-1
 543.368 106 l 1,18,-1
 524.824 0 l 1,19,-1
 52.3242 0 l 1,0,-1
EndSplineSet
KernsSLIF: 59 -73 0 0 58 -73 0 0 46 -131 0 0 44 -131 0 0
EndChar
StartChar: O
Encoding: 79 79 50
Width: 1595
Flags: HW
Fore
723.235 78 m 0,0,1
 943.735 78 943.735 78 1085.71 246.5 c 128,-1,2
 1227.69 415 1227.69 415 1285.42 745 c 0,3,4
 1343.33 1076 1343.33 1076 1260.31 1244.5 c 128,-1,5
 1177.28 1413 1177.28 1413 956.783 1413 c 0,6,7
 735.384 1413 735.384 1413 593.406 1244.5 c 128,-1,8
 451.428 1076 451.428 1076 393.521 745 c 0,9,10
 335.791 415 335.791 415 418.813 246.5 c 128,-1,11
 501.835 78 501.835 78 723.235 78 c 0,0,1
704.517 -29 m 0,12,13
 567.716 -29 567.716 -29 461.714 21 c 128,-1,14
 355.711 71 355.711 71 285.38 168 c 0,15,16
 204.174 280 204.174 280 179.966 422 c 128,-1,17
 155.757 564 155.757 564 187.421 745 c 0,18,19
 219.087 926 219.087 926 293.066 1068.5 c 128,-1,20
 367.045 1211 367.045 1211 487.438 1323 c 0,21,22
 592.783 1421 592.783 1421 714.843 1470.5 c 128,-1,23
 836.902 1520 836.902 1520 975.503 1520 c 0,24,25
 1268 1520 1268 1520 1410.74 1307 c 128,-1,26
 1553.48 1094 1553.48 1094 1492.42 745 c 0,27,28
 1461.11 566 1461.11 566 1386.5 422.5 c 128,-1,29
 1311.9 279 1311.9 279 1191.68 168 c 0,30,31
 1086.34 70 1086.34 70 964.276 20.5 c 128,-1,32
 842.216 -29 842.216 -29 704.517 -29 c 0,12,13
EndSplineSet
KernsSLIF: 88 -36 0 0 86 -36 0 0 46 -120 0 0 45 75 0 0 44 -120 0 0
EndChar
StartChar: P
Encoding: 80 80 51
Width: 1307
Flags: HW
Fore
525.06 760 m 1,0,-1
 762.66 760 l 2,1,2
 896.76 760 896.76 760 981.041 840.5 c 128,-1,3
 1065.33 921 1065.33 921 1091.91 1073 c 0,4,5
 1118.69 1226 1118.69 1226 1062.48 1306 c 128,-1,6
 1006.28 1386 1006.28 1386 872.175 1386 c 2,7,-1
 634.574 1386 l 1,8,-1
 525.06 760 l 1,0,-1
38.4043 0 m 1,9,-1
 56.9473 106 l 1,10,-1
 227.947 106 l 1,11,-1
 451.875 1386 l 1,12,-1
 280.875 1386 l 1,13,-1
 299.592 1493 l 1,14,-1
 934.992 1493 l 2,15,16
 1136.59 1493 1136.59 1493 1234.63 1379.5 c 128,-1,17
 1332.68 1266 1332.68 1266 1298.91 1073 c 0,18,19
 1265.32 881 1265.32 881 1127.48 767 c 128,-1,20
 989.646 653 989.646 653 788.041 653 c 2,21,-1
 506.341 653 l 1,22,-1
 410.647 106 l 1,23,-1
 618.548 106 l 1,24,-1
 600.005 0 l 1,25,-1
 38.4043 0 l 1,9,-1
EndSplineSet
KernsSLIF: 366 -36 0 0 283 -92 0 0 351 -55 0 0 353 -55 0 0 217 -36 0 0 219 -36 0 0 218 -36 0 0 193 -188 0 0 194 -188 0 0 339 -83 0 0 195 -188 0 0 192 -188 0 0 248 -83 0 0 230 -92 0 0 245 -83 0 0 246 -83 0 0 244 -83 0 0 242 -83 0 0 243 -83 0 0 235 -92 0 0 234 -92 0 0 232 -92 0 0 233 -92 0 0 229 -92 0 0 227 -92 0 0 228 -92 0 0 226 -92 0 0 224 -92 0 0 225 -92 0 0 220 -36 0 0 196 -188 0 0 115 -55 0 0 111 -83 0 0 101 -92 0 0 97 -92 0 0 85 -36 0 0 65 -188 0 0 59 -73 0 0 58 -73 0 0 46 -415 0 0 45 -112 0 0 44 -415 0 0
EndChar
StartChar: Q
Encoding: 81 81 52
Width: 1597
Flags: HW
Fore
755.153 -29 m 1,0,1
 446.454 -29 446.454 -29 300.579 181.5 c 128,-1,2
 154.704 392 154.704 392 216.459 745 c 0,3,4
 248.123 926 248.123 926 322.103 1068.5 c 128,-1,5
 396.082 1211 396.082 1211 516.475 1323 c 0,6,7
 621.818 1421 621.818 1421 743.879 1470.5 c 128,-1,8
 865.938 1520 865.938 1520 1004.54 1520 c 0,9,10
 1297.04 1520 1297.04 1520 1439.77 1307 c 128,-1,11
 1582.51 1094 1582.51 1094 1521.46 745 c 0,12,13
 1469.68 449 1469.68 449 1299.43 247.5 c 128,-1,14
 1129.17 46 1129.17 46 881.427 -12 c 1,15,16
 918.306 -79 918.306 -79 982.458 -111 c 128,-1,17
 1046.61 -143 1046.61 -143 1144.71 -143 c 2,18,-1
 1172.61 -143 l 1,19,-1
 1140.24 -328 l 1,20,21
 989.547 -320 989.547 -320 894.128 -245.5 c 128,-1,22
 798.711 -171 798.711 -171 755.153 -29 c 1,0,1
752.271 78 m 0,23,24
 972.771 78 972.771 78 1114.75 246.5 c 128,-1,25
 1256.73 415 1256.73 415 1314.46 745 c 0,26,27
 1372.36 1076 1372.36 1076 1289.35 1244.5 c 128,-1,28
 1206.32 1413 1206.32 1413 985.82 1413 c 0,29,30
 764.42 1413 764.42 1413 622.442 1244.5 c 128,-1,31
 480.465 1076 480.465 1076 422.559 745 c 0,32,33
 364.827 415 364.827 415 447.85 246.5 c 128,-1,34
 530.872 78 530.872 78 752.271 78 c 0,23,24
EndSplineSet
KernsSLIF: 8217 38 0 0 8221 38 0 0 46 -102 0 0 45 75 0 0 44 -102 0 0
EndChar
StartChar: R
Encoding: 82 82 53
Width: 1459
Flags: HW
Fore
953.657 741 m 1,0,1
 1013.34 722 1013.34 722 1050.82 676.5 c 128,-1,2
 1088.31 631 1088.31 631 1109.97 549 c 2,3,-1
 1227.77 106 l 1,4,-1
 1391.57 106 l 1,5,-1
 1373.03 0 l 1,6,-1
 1056.23 0 l 1,7,-1
 929.623 475 l 1,8,9
 893.465 613 893.465 613 850.15 653.5 c 128,-1,10
 806.835 694 806.835 694 718.636 694 c 2,11,-1
 517.936 694 l 1,12,-1
 415.069 106 l 1,13,-1
 604.969 106 l 1,14,-1
 586.426 0 l 1,15,-1
 42.8262 0 l 1,16,-1
 61.3691 106 l 1,17,-1
 232.369 106 l 1,18,-1
 456.296 1386 l 1,19,-1
 285.296 1386 l 1,20,-1
 304.014 1493 l 1,21,-1
 985.31 1493 l 2,22,23
 1181.51 1493 1181.51 1493 1269.97 1389 c 128,-1,24
 1358.42 1285 1358.42 1285 1325.01 1094 c 0,25,26
 1298.07 940 1298.07 940 1204.74 851.5 c 128,-1,27
 1111.41 763 1111.41 763 953.657 741 c 1,0,1
536.654 801 m 1,28,-1
 802.154 801 l 2,29,30
 938.055 801 938.055 801 1015.36 872.5 c 128,-1,31
 1092.67 944 1092.67 944 1118.92 1094 c 0,32,33
 1145.15 1244 1145.15 1244 1092.77 1315 c 128,-1,34
 1040.4 1386 1040.4 1386 904.496 1386 c 2,35,-1
 638.996 1386 l 1,36,-1
 536.654 801 l 1,28,-1
EndSplineSet
KernsSLIF: 356 -36 0 0 253 -36 0 0 221 -63 0 0 376 -63 0 0 255 -36 0 0 8217 -112 0 0 8221 -112 0 0 248 38 0 0 230 47 0 0 229 47 0 0 227 47 0 0 228 47 0 0 226 47 0 0 224 47 0 0 225 47 0 0 121 -36 0 0 97 47 0 0 89 -63 0 0 87 -45 0 0 86 -73 0 0 84 -36 0 0
EndChar
StartChar: S
Encoding: 83 83 54
Width: 1331
Flags: HW
Fore
121.703 72 m 1,0,-1
 181.183 412 l 1,1,-1
 284.508 411 l 1,2,3
 259.269 241 259.269 241 329.16 159.5 c 128,-1,4
 399.052 78 399.052 78 570.952 78 c 0,5,6
 731.152 78 731.152 78 827.636 148.5 c 128,-1,7
 924.119 219 924.119 219 947.736 354 c 0,8,9
 966.631 462 966.631 462 925.927 520 c 128,-1,10
 885.223 578 885.223 578 731.045 633 c 2,11,-1
 564.067 692 l 2,12,13
 382.838 757 382.838 757 321.058 854 c 128,-1,14
 259.276 951 259.276 951 288.843 1120 c 0,15,16
 322.081 1310 322.081 1310 461.95 1415 c 128,-1,17
 601.819 1520 601.819 1520 821.419 1520 c 0,18,19
 915.02 1520 915.02 1520 1022.68 1497.5 c 128,-1,20
 1130.35 1475 1130.35 1475 1248.82 1432 c 1,21,-1
 1193.19 1114 l 1,22,-1
 1091.49 1114 l 1,23,24
 1103.83 1272 1103.83 1272 1036.51 1342.5 c 128,-1,25
 969.201 1413 969.201 1413 806.301 1413 c 0,26,27
 664.101 1413 664.101 1413 578.566 1348.5 c 128,-1,28
 493.033 1284 493.033 1284 471.515 1161 c 0,29,30
 452.797 1054 452.797 1054 497.925 993 c 128,-1,31
 543.053 932 543.053 932 713.456 872 c 2,32,-1
 870.334 817 l 2,33,34
 1042.36 756 1042.36 756 1103.68 661.5 c 128,-1,35
 1165 567 1165 567 1137.19 408 c 0,36,37
 1099.22 191 1099.22 191 954.877 81 c 128,-1,38
 810.533 -29 810.533 -29 563.033 -29 c 0,39,40
 452.333 -29 452.333 -29 341.957 -4 c 128,-1,41
 231.581 21 231.581 21 121.703 72 c 1,0,-1
EndSplineSet
KernsSLIF: 350 -36 0 0 352 -36 0 0 83 -36 0 0 46 -73 0 0 45 75 0 0 44 -73 0 0
EndChar
StartChar: T
Encoding: 84 84 55
Width: 1308
Flags: HW
Fore
300.695 0 m 1,0,-1
 319.238 106 l 1,1,-1
 491.139 106 l 1,2,-1
 712.966 1374 l 1,3,-1
 317.866 1374 l 1,4,-1
 277.104 1141 l 1,5,-1
 166.403 1141 l 1,6,-1
 227.982 1493 l 1,7,-1
 1421.38 1493 l 1,8,-1
 1359.8 1141 l 1,9,-1
 1249.1 1141 l 1,10,-1
 1289.86 1374 l 1,11,-1
 894.766 1374 l 1,12,-1
 672.938 106 l 1,13,-1
 844.838 106 l 1,14,-1
 826.296 0 l 1,15,-1
 300.695 0 l 1,0,-1
EndSplineSet
KernsSLIF: 356 38 0 0 283 -159 0 0 269 -159 0 0 263 -159 0 0 351 -149 0 0 353 -149 0 0 193 -112 0 0 194 -112 0 0 339 -159 0 0 195 -112 0 0 192 -112 0 0 248 -159 0 0 230 -159 0 0 245 -159 0 0 246 -159 0 0 244 -159 0 0 242 -159 0 0 243 -159 0 0 235 -159 0 0 234 -159 0 0 232 -159 0 0 233 -159 0 0 231 -159 0 0 229 -159 0 0 227 -159 0 0 228 -159 0 0 226 -159 0 0 224 -159 0 0 225 -159 0 0 196 -112 0 0 119 -73 0 0 115 -149 0 0 111 -159 0 0 101 -159 0 0 99 -159 0 0 97 -159 0 0 84 38 0 0 65 -112 0 0 59 -73 0 0 58 -73 0 0 46 -301 0 0 45 -264 0 0 44 -301 0 0
EndChar
StartChar: U
Encoding: 85 85 56
Width: 1653
Flags: HW
Fore
472.965 1386 m 1,0,-1
 301.064 1386 l 1,1,-1
 319.784 1493 l 1,2,-1
 845.384 1493 l 1,3,-1
 826.665 1386 l 1,4,-1
 654.765 1386 l 1,5,-1
 519.709 614 l 2,6,7
 469.676 328 469.676 328 534.058 215 c 128,-1,8
 598.438 102 598.438 102 804.538 102 c 0,9,10
 1010.64 102 1010.64 102 1114.56 215 c 128,-1,11
 1218.48 328 1218.48 328 1268.51 614 c 2,12,-1
 1403.56 1386 l 1,13,-1
 1231.66 1386 l 1,14,-1
 1250.38 1493 l 1,15,-1
 1703.98 1493 l 1,16,-1
 1685.26 1386 l 1,17,-1
 1514.26 1386 l 1,18,-1
 1375.71 594 l 2,19,20
 1316.05 253 1316.05 253 1173.48 112 c 128,-1,21
 1030.92 -29 1030.92 -29 748.32 -29 c 0,22,23
 465.721 -29 465.721 -29 370.413 113 c 128,-1,24
 275.104 255 275.104 255 334.411 594 c 2,25,-1
 472.965 1386 l 1,0,-1
EndSplineSet
KernsSLIF: 193 -63 0 0 194 -63 0 0 195 -63 0 0 192 -63 0 0 196 -63 0 0 74 -55 0 0 65 -63 0 0 59 -73 0 0 58 -73 0 0 46 -188 0 0 45 -36 0 0 44 -188 0 0
EndChar
StartChar: V
Encoding: 86 86 57
Width: 1419
Flags: HW
Fore
521.997 1386 m 1,0,-1
 718.412 240 l 1,1,-1
 1314.9 1386 l 1,2,-1
 1163.7 1386 l 1,3,-1
 1182.41 1493 l 1,4,-1
 1576.61 1493 l 1,5,-1
 1557.9 1386 l 1,6,-1
 1427.4 1386 l 1,7,-1
 705.227 0 l 1,8,-1
 550.427 0 l 1,9,-1
 315.896 1386 l 1,10,-1
 181.797 1386 l 1,11,-1
 200.514 1493 l 1,12,-1
 690.114 1493 l 1,13,-1
 671.396 1386 l 1,14,-1
 521.997 1386 l 1,0,-1
EndSplineSet
KernsSLIF: 367 -131 0 0 283 -188 0 0 253 -83 0 0 210 -36 0 0 212 -36 0 0 211 -36 0 0 193 -139 0 0 194 -139 0 0 255 -83 0 0 8217 75 0 0 8221 75 0 0 339 -188 0 0 338 -36 0 0 213 -36 0 0 195 -139 0 0 192 -139 0 0 248 -188 0 0 230 -188 0 0 216 -36 0 0 252 -131 0 0 251 -131 0 0 249 -131 0 0 250 -131 0 0 245 -188 0 0 246 -188 0 0 244 -188 0 0 242 -188 0 0 243 -188 0 0 235 -188 0 0 234 -188 0 0 232 -188 0 0 233 -188 0 0 229 -188 0 0 227 -188 0 0 228 -188 0 0 226 -188 0 0 224 -188 0 0 225 -188 0 0 214 -36 0 0 196 -139 0 0 121 -83 0 0 117 -131 0 0 111 -188 0 0 105 -36 0 0 101 -188 0 0 97 -188 0 0 79 -36 0 0 65 -139 0 0 59 -206 0 0 58 -206 0 0 46 -358 0 0 45 -188 0 0 44 -358 0 0
EndChar
StartChar: W
Encoding: 87 87 58
Width: 2013
Flags: HW
Fore
1393.23 0 m 1,0,-1
 1245.63 0 l 1,1,-1
 1150.2 1214 l 1,2,-1
 630.026 0 l 1,3,-1
 482.427 0 l 1,4,-1
 372.997 1386 l 1,5,-1
 239.797 1386 l 1,6,-1
 258.514 1493 l 1,7,-1
 749.014 1493 l 1,8,-1
 730.297 1386 l 1,9,-1
 562.896 1386 l 1,10,-1
 649.834 283 l 1,11,-1
 1167.51 1493 l 1,12,-1
 1313.31 1493 l 1,13,-1
 1410.76 270 l 1,14,-1
 1887.7 1386 l 1,15,-1
 1732.9 1386 l 1,16,-1
 1751.61 1493 l 1,17,-1
 2138.61 1493 l 1,18,-1
 2119.9 1386 l 1,19,-1
 1987.6 1386 l 1,20,-1
 1393.23 0 l 1,0,-1
EndSplineSet
KernsSLIF: 252 -83 0 0 229 -178 0 0 230 -139 0 0 59 -178 0 0 242 -139 0 0 45 -149 0 0 46 -358 0 0 367 -83 0 0 245 -139 0 0 235 -167 0 0 249 -83 0 0 44 -358 0 0 224 -178 0 0 195 -102 0 0 234 -167 0 0 341 -92 0 0 8221 38 0 0 232 -167 0 0 196 -102 0 0 193 -102 0 0 8217 38 0 0 251 -83 0 0 253 -45 0 0 227 -178 0 0 194 -102 0 0 248 -139 0 0 244 -139 0 0 65 -102 0 0 97 -178 0 0 228 -178 0 0 246 -139 0 0 250 -83 0 0 225 -178 0 0 345 -92 0 0 226 -178 0 0 233 -167 0 0 283 -167 0 0 101 -167 0 0 105 -36 0 0 339 -139 0 0 255 -45 0 0 111 -139 0 0 114 -92 0 0 117 -83 0 0 192 -102 0 0 121 -45 0 0 58 -178 0 0 243 -139 0 0
EndChar
StartChar: X
Encoding: 88 88 59
Width: 1381
Flags: HW
Fore
660.993 639 m 1,0,-1
 239.249 106 l 1,1,-1
 412.949 106 l 1,2,-1
 394.406 0 l 1,3,-1
 -50.1934 0 l 1,4,-1
 -31.6514 106 l 1,5,-1
 123.148 106 l 1,6,-1
 619.838 733 l 1,7,-1
 341.676 1386 l 1,8,-1
 197.676 1386 l 1,9,-1
 216.394 1493 l 1,10,-1
 749.193 1493 l 1,11,-1
 730.477 1386 l 1,12,-1
 572.076 1386 l 1,13,-1
 775.929 905 l 1,14,-1
 1156.18 1386 l 1,15,-1
 983.379 1386 l 1,16,-1
 1002.09 1493 l 1,17,-1
 1442.19 1493 l 1,18,-1
 1423.48 1386 l 1,19,-1
 1272.28 1386 l 1,20,-1
 816.183 811 l 1,21,-1
 1116.75 106 l 1,22,-1
 1260.75 106 l 1,23,-1
 1242.21 0 l 1,24,-1
 709.406 0 l 1,25,-1
 727.949 106 l 1,26,-1
 888.148 106 l 1,27,-1
 660.993 639 l 1,0,-1
EndSplineSet
KernsSLIF: 268 -36 0 0 262 -36 0 0 210 -36 0 0 212 -36 0 0 211 -36 0 0 193 -73 0 0 194 -73 0 0 338 -36 0 0 213 -36 0 0 195 -73 0 0 192 -73 0 0 216 -36 0 0 214 -36 0 0 199 -36 0 0 196 -73 0 0 79 -36 0 0 67 -36 0 0 65 -73 0 0 45 -73 0 0
EndChar
StartChar: Y
Encoding: 89 89 60
Width: 1297
Flags: HW
Fore
298.526 0 m 1,0,-1
 317.069 106 l 1,1,-1
 488.97 106 l 1,2,-1
 582.914 643 l 1,3,-1
 297.997 1386 l 1,4,-1
 171.997 1386 l 1,5,-1
 190.714 1493 l 1,6,-1
 690.214 1493 l 1,7,-1
 671.497 1386 l 1,8,-1
 514.896 1386 l 1,9,-1
 744.931 782 l 1,10,-1
 1186.3 1386 l 1,11,-1
 1035.1 1386 l 1,12,-1
 1053.81 1493 l 1,13,-1
 1444.41 1493 l 1,14,-1
 1425.7 1386 l 1,15,-1
 1298.8 1386 l 1,16,-1
 768.038 662 l 1,17,-1
 670.77 106 l 1,18,-1
 842.67 106 l 1,19,-1
 824.127 0 l 1,20,-1
 298.526 0 l 1,0,-1
EndSplineSet
KernsSLIF: 367 -178 0 0 283 -178 0 0 268 -36 0 0 262 -36 0 0 193 -159 0 0 194 -159 0 0 339 -215 0 0 195 -159 0 0 192 -159 0 0 248 -178 0 0 230 -196 0 0 252 -178 0 0 251 -178 0 0 249 -178 0 0 250 -178 0 0 245 -178 0 0 246 -178 0 0 244 -178 0 0 242 -178 0 0 243 -178 0 0 235 -178 0 0 234 -178 0 0 232 -178 0 0 233 -178 0 0 229 -159 0 0 227 -159 0 0 228 -159 0 0 226 -159 0 0 224 -159 0 0 225 -159 0 0 199 -36 0 0 196 -159 0 0 117 -178 0 0 111 -178 0 0 105 -36 0 0 101 -178 0 0 97 -159 0 0 67 -36 0 0 65 -159 0 0 59 -253 0 0 58 -253 0 0 46 -264 0 0 45 -225 0 0 44 -264 0 0
EndChar
StartChar: Z
Encoding: 90 90 61
Width: 1350
Flags: HW
Fore
22.1553 0 m 1,0,-1
 34.751 72 l 1,1,-1
 1098.83 1370 l 1,2,-1
 404.026 1370 l 1,3,-1
 365.015 1147 l 1,4,-1
 254.314 1147 l 1,5,-1
 314.844 1493 l 1,6,-1
 1376.84 1493 l 1,7,-1
 1364.25 1421 l 1,8,-1
 300.174 123 l 1,9,-1
 1059.77 123 l 1,10,-1
 1096.34 332 l 1,11,-1
 1206.14 332 l 1,12,-1
 1148.06 0 l 1,13,-1
 22.1553 0 l 1,0,-1
EndSplineSet
KernsSLIF: 46 -36 0 0 44 -36 0 0
EndChar
StartChar: bracketleft
Encoding: 91 91 62
Width: 759
Flags: HW
Fore
358.972 1556 m 1,0,-1
 777.472 1556 l 1,1,-1
 758.929 1450 l 1,2,-1
 512.328 1450 l 1,3,-1
 229.972 -164 l 1,4,-1
 476.571 -164 l 1,5,-1
 458.028 -270 l 1,6,-1
 39.5283 -270 l 1,7,-1
 358.972 1556 l 1,0,-1
EndSplineSet
EndChar
StartChar: backslash
Encoding: 92 92 63
Width: 655
Flags: HW
Fore
325.714 1493 m 1,0,-1
 508.286 -190 l 1,1,-1
 364.286 -190 l 1,2,-1
 181.714 1493 l 1,3,-1
 325.714 1493 l 1,0,-1
EndSplineSet
EndChar
StartChar: bracketright
Encoding: 93 93 64
Width: 758
Flags: HW
Fore
759.472 1556 m 1,0,-1
 440.028 -270 l 1,1,-1
 21.5283 -270 l 1,2,-1
 40.0713 -164 l 1,3,-1
 286.672 -164 l 1,4,-1
 569.028 1450 l 1,5,-1
 322.429 1450 l 1,6,-1
 340.972 1556 l 1,7,-1
 759.472 1556 l 1,0,-1
EndSplineSet
EndChar
StartChar: asciicircum
Encoding: 94 94 65
Width: 1624
Flags: HW
Fore
989.504 1493 m 1,0,-1
 1380.77 936 l 1,1,-1
 1243.07 936 l 1,2,-1
 870.519 1317 l 1,3,-1
 365.565 936 l 1,4,-1
 226.965 936 l 1,5,-1
 813.108 1493 l 1,6,-1
 989.504 1493 l 1,0,-1
EndSplineSet
EndChar
StartChar: underscore
Encoding: 95 95 66
Width: 972
Flags: HW
Fore
979.803 -403 m 1,0,-1
 965.798 -483 l 1,1,-1
 44.2021 -483 l 1,2,-1
 58.1982 -403 l 1,3,-1
 979.803 -403 l 1,0,-1
EndSplineSet
EndChar
StartChar: grave
Encoding: 96 96 67
Width: 977
Flags: HW
Fore
563.45 1636 m 1,0,-1
 730.85 1260 l 1,1,-1
 625.55 1260 l 1,2,-1
 386.15 1636 l 1,3,-1
 563.45 1636 l 1,0,-1
EndSplineSet
EndChar
StartChar: a
Encoding: 97 97 68
Width: 1155
Flags: HW
Fore
755.584 334 m 2,0,-1
 794.946 559 l 1,1,-1
 581.646 559 l 2,2,3
 458.347 559 458.347 559 387.725 500 c 128,-1,4
 317.103 441 317.103 441 295.76 319 c 0,5,6
 276.342 208 276.342 208 326.17 143 c 128,-1,7
 375.999 78 375.999 78 480.399 78 c 0,8,9
 583.899 78 583.899 78 659.77 149 c 128,-1,10
 735.641 220 735.641 220 755.584 334 c 2,0,-1
978.919 664 m 2,11,-1
 881.297 106 l 1,12,-1
 1028.9 106 l 1,13,-1
 1010.36 0 l 1,14,-1
 697.153 0 l 1,15,-1
 717.272 115 l 1,16,17
 649.426 41 649.426 41 571.304 6 c 128,-1,18
 493.181 -29 493.181 -29 396.88 -29 c 0,19,20
 237.58 -29 237.58 -29 160.424 65 c 128,-1,21
 83.2695 159 83.2695 159 111.26 319 c 0,22,23
 140.125 484 140.125 484 263.145 575 c 128,-1,24
 386.166 666 386.166 666 581.466 666 c 2,25,-1
 813.666 666 l 1,26,-1
 826.436 739 l 2,27,28
 847.604 860 847.604 860 793.087 926.5 c 128,-1,29
 738.571 993 738.571 993 618.871 993 c 0,30,31
 519.871 993 519.871 993 452.624 943 c 128,-1,32
 385.377 893 385.377 893 353.832 795 c 1,33,-1
 268.332 795 l 1,34,-1
 305.945 1010 l 1,35,36
 399.518 1051 399.518 1051 484.555 1071.5 c 128,-1,37
 569.59 1092 569.59 1092 646.99 1092 c 0,38,39
 845.891 1092 845.891 1092 930.684 982.5 c 128,-1,40
 1015.48 873 1015.48 873 978.919 664 c 2,11,-1
EndSplineSet
EndChar
StartChar: b
Encoding: 98 98 69
Width: 1234
Flags: HW
Fore
151.884 106 m 1,0,-1
 387.006 1450 l 1,1,-1
 227.706 1450 l 1,2,-1
 246.251 1556 l 1,3,-1
 571.15 1556 l 1,4,-1
 455.863 897 l 1,5,6
 521.958 997 521.958 997 605.417 1044.5 c 128,-1,7
 688.877 1092 688.877 1092 799.577 1092 c 0,8,9
 975.974 1092 975.974 1092 1060.46 937 c 128,-1,10
 1144.95 782 1144.95 782 1101.21 532 c 0,11,12
 1057.48 282 1057.48 282 918.67 126.5 c 128,-1,13
 779.866 -29 779.866 -29 603.466 -29 c 0,14,15
 492.766 -29 492.766 -29 425.927 18.5 c 128,-1,16
 359.086 66 359.086 66 327.979 166 c 1,17,-1
 298.94 0 l 1,18,-1
 -25.96 0 l 1,19,-1
 -7.41602 106 l 1,20,-1
 151.884 106 l 1,0,-1
382.737 479 m 2,21,22
 349.148 287 349.148 287 397.717 186.5 c 128,-1,23
 446.285 86 446.285 86 572.285 86 c 0,24,25
 699.186 86 699.186 86 784.203 199 c 128,-1,26
 869.222 312 869.222 312 907.709 532 c 0,27,28
 946.371 753 946.371 753 900.715 865 c 128,-1,29
 855.059 977 855.059 977 728.158 977 c 0,30,31
 602.158 977 602.158 977 518.34 876 c 128,-1,32
 434.52 775 434.52 775 401.105 584 c 2,33,-1
 382.737 479 l 2,21,22
EndSplineSet
EndChar
StartChar: c
Encoding: 99 99 70
Width: 1092
Flags: HW
Fore
970.291 319 m 1,0,1
 905.454 149 905.454 149 789.984 60 c 128,-1,2
 674.515 -29 674.515 -29 516.114 -29 c 0,3,4
 307.314 -29 307.314 -29 207.269 124.5 c 128,-1,5
 107.222 278 107.222 278 151.658 532 c 0,6,7
 196.268 787 196.268 787 349.847 939.5 c 128,-1,8
 503.425 1092 503.425 1092 712.225 1092 c 0,9,10
 803.125 1092 803.125 1092 889.014 1068.5 c 128,-1,11
 974.898 1045 974.898 1045 1057.4 997 c 1,12,-1
 1009.82 725 l 1,13,-1
 913.521 725 l 1,14,15
 919.113 865 919.113 865 866.86 929 c 128,-1,16
 814.605 993 814.605 993 696.705 993 c 0,17,18
 562.605 993 562.605 993 474 877.5 c 128,-1,19
 385.395 762 385.395 762 345.158 532 c 0,20,21
 304.921 302 304.921 302 352.577 186 c 128,-1,22
 400.234 70 400.234 70 535.234 70 c 0,23,24
 642.334 70 642.334 70 717.08 132 c 128,-1,25
 791.826 194 791.826 194 837.094 319 c 1,26,-1
 970.291 319 l 1,0,1
EndSplineSet
EndChar
StartChar: d
Encoding: 100 100 71
Width: 1243
Flags: HW
Fore
915.951 106 m 1,0,-1
 1074.36 106 l 1,1,-1
 1055.81 0 l 1,2,-1
 731.808 0 l 1,3,-1
 760.848 166 l 1,4,5
 694.754 66 694.754 66 611.294 18.5 c 128,-1,6
 527.834 -29 527.834 -29 417.134 -29 c 0,7,8
 240.733 -29 240.733 -29 155.888 126.5 c 128,-1,9
 71.042 282 71.042 282 114.777 532 c 0,10,11
 158.513 782 158.513 782 297.229 937 c 128,-1,12
 435.944 1092 435.944 1092 613.245 1092 c 0,13,14
 723.944 1092 723.944 1092 790.785 1044.5 c 128,-1,15
 857.625 997 857.625 997 888.731 897 c 1,16,-1
 985.472 1450 l 1,17,-1
 828.874 1450 l 1,18,-1
 847.418 1556 l 1,19,-1
 1169.62 1556 l 1,20,-1
 915.951 106 l 1,0,-1
815.605 479 m 2,21,-1
 833.974 584 l 2,22,23
 867.388 775 867.388 775 818.907 876 c 128,-1,24
 770.426 977 770.426 977 644.426 977 c 0,25,26
 516.626 977 516.626 977 431.782 865 c 128,-1,27
 346.939 753 346.939 753 308.277 532 c 0,28,29
 269.789 312 269.789 312 315.271 199 c 128,-1,30
 360.753 86 360.753 86 488.554 86 c 0,31,32
 614.554 86 614.554 86 698.285 186.5 c 128,-1,33
 782.017 287 782.017 287 815.605 479 c 2,21,-1
EndSplineSet
EndChar
StartChar: e
Encoding: 101 101 72
Width: 1151
Flags: HW
Fore
1056.08 512 m 1,0,-1
 342.38 512 l 1,1,-1
 340.979 504 l 2,2,3
 303.367 289 303.367 289 357.111 179.5 c 128,-1,4
 410.855 70 410.855 70 553.056 70 c 0,5,6
 661.956 70 661.956 70 742.814 133.5 c 128,-1,7
 823.673 197 823.673 197 873.44 322 c 1,8,-1
 1006.64 322 l 1,9,10
 936.426 147 936.426 147 814.381 59 c 128,-1,11
 692.336 -29 692.336 -29 518.637 -29 c 0,12,13
 308.937 -29 308.937 -29 208.44 124.5 c 128,-1,14
 107.943 278 107.943 278 152.38 532 c 0,15,16
 196.464 784 196.464 784 348.506 938 c 128,-1,17
 500.546 1092 500.546 1092 703.946 1092 c 0,18,19
 920.847 1092 920.847 1092 1010.96 943.5 c 128,-1,20
 1101.09 795 1101.09 795 1056.08 512 c 1,0,-1
879.323 618 m 1,21,22
 906.464 804 906.464 804 857.745 898.5 c 128,-1,23
 809.027 993 809.027 993 686.627 993 c 0,24,25
 572.328 993 572.328 993 490.008 898 c 128,-1,26
 407.688 803 407.688 803 360.923 618 c 1,27,-1
 879.323 618 l 1,21,22
EndSplineSet
EndChar
StartChar: f
Encoding: 102 102 73
Width: 729
Flags: HW
Fore
932.368 1305 m 1,0,-1
 845.067 1305 l 1,1,2
 857.289 1380 857.289 1380 826.762 1419 c 128,-1,3
 796.234 1458 796.234 1458 725.135 1458 c 0,4,5
 632.435 1458 632.435 1458 584.75 1401.5 c 128,-1,6
 537.066 1345 537.066 1345 511.699 1200 c 2,7,-1
 487.731 1063 l 1,8,-1
 755.032 1063 l 1,9,-1
 736.313 956 l 1,10,-1
 469.014 956 l 1,11,-1
 320.312 106 l 1,12,-1
 532.712 106 l 1,13,-1
 514.168 0 l 1,14,-1
 -22.2314 0 l 1,15,-1
 -3.6875 106 l 1,16,-1
 154.712 106 l 1,17,-1
 303.414 956 l 1,18,-1
 145.014 956 l 1,19,-1
 163.731 1063 l 1,20,-1
 322.132 1063 l 1,21,-1
 345.399 1196 l 2,22,23
 376.539 1374 376.539 1374 475.709 1465 c 128,-1,24
 574.879 1556 574.879 1556 735.979 1556 c 0,25,26
 796.279 1556 796.279 1556 854.48 1544 c 128,-1,27
 912.68 1532 912.68 1532 967.704 1507 c 1,28,-1
 932.368 1305 l 1,0,-1
EndSplineSet
KernsSLIF: 8217 151 0 0 8221 151 0 0 8220 38 0 0 46 -73 0 0 45 -73 0 0 44 -73 0 0
EndChar
StartChar: g
Encoding: 103 103 74
Width: 1253
Flags: HW
Fore
1152.29 956 m 1,0,-1
 989.061 23 l 2,1,2
 949 -206 949 -206 813.82 -330.5 c 128,-1,3
 678.639 -455 678.639 -455 468.938 -455 c 0,4,5
 374.438 -455 374.438 -455 291.363 -436 c 128,-1,6
 208.287 -417 208.287 -417 135.735 -379 c 1,7,-1
 174.747 -156 l 1,8,-1
 261.147 -156 l 1,9,10
 259.153 -260 259.153 -260 311.056 -308 c 128,-1,11
 362.959 -356 362.959 -356 475.459 -356 c 0,12,13
 621.259 -356 621.259 -356 705.216 -264.5 c 128,-1,14
 789.173 -173 789.173 -173 823.462 23 c 2,15,-1
 848.479 166 l 1,16,17
 782.384 66 782.384 66 698.925 18.5 c 128,-1,18
 615.465 -29 615.465 -29 504.765 -29 c 0,19,20
 328.364 -29 328.364 -29 243.519 126.5 c 128,-1,21
 158.672 282 158.672 282 202.407 532 c 0,22,23
 246.144 782 246.144 782 384.859 937 c 128,-1,24
 523.575 1092 523.575 1092 700.876 1092 c 0,25,26
 811.575 1092 811.575 1092 878.415 1044.5 c 128,-1,27
 945.255 997 945.255 997 976.362 897 c 1,28,-1
 1005.41 1063 l 1,29,-1
 1329.41 1063 l 1,30,-1
 1310.68 956 l 1,31,-1
 1152.29 956 l 1,0,-1
921.604 584 m 2,32,33
 955.018 775 955.018 775 906.537 876 c 128,-1,34
 858.056 977 858.056 977 732.056 977 c 0,35,36
 604.256 977 604.256 977 519.413 865 c 128,-1,37
 434.569 753 434.569 753 395.907 532 c 0,38,39
 357.419 312 357.419 312 402.901 199 c 128,-1,40
 448.383 86 448.383 86 576.184 86 c 0,41,42
 702.184 86 702.184 86 785.915 186.5 c 128,-1,43
 869.646 287 869.646 287 903.235 479 c 2,44,-1
 921.604 584 l 2,32,33
EndSplineSet
EndChar
StartChar: h
Encoding: 104 104 75
Width: 1240
Flags: HW
Fore
-7.29688 0 m 1,0,-1
 11.2461 106 l 1,1,-1
 160.646 106 l 1,2,-1
 395.77 1450 l 1,3,-1
 237.369 1450 l 1,4,-1
 255.913 1556 l 1,5,-1
 579.913 1556 l 1,6,-1
 460.602 874 l 1,7,8
 525.396 982 525.396 982 608.368 1037 c 128,-1,9
 691.339 1092 691.339 1092 788.539 1092 c 0,10,11
 946.939 1092 946.939 1092 1003.97 991 c 128,-1,12
 1061 890 1061 890 1023.56 676 c 2,13,-1
 923.846 106 l 1,14,-1
 1071.45 106 l 1,15,-1
 1052.9 0 l 1,16,-1
 595.702 0 l 1,17,-1
 614.246 106 l 1,18,-1
 757.346 106 l 1,19,-1
 846.917 618 l 2,20,21
 881.031 813 881.031 813 850.788 884.5 c 128,-1,22
 820.548 956 820.548 956 710.748 956 c 0,23,24
 595.548 956 595.548 956 518.978 863 c 128,-1,25
 442.408 770 442.408 770 411.269 592 c 2,26,-1
 326.246 106 l 1,27,-1
 470.246 106 l 1,28,-1
 451.702 0 l 1,29,-1
 -7.29688 0 l 1,0,-1
EndSplineSet
EndChar
StartChar: i
Encoding: 105 105 76
Width: 613
Flags: HW
Fore
314.979 1393 m 0,0,1
 323.026 1439 323.026 1439 359.124 1473 c 128,-1,2
 395.223 1507 395.223 1507 437.523 1507 c 0,3,4
 478.923 1507 478.923 1507 503.124 1473 c 128,-1,5
 527.327 1439 527.327 1439 519.28 1393 c 0,6,7
 511.057 1346 511.057 1346 475.584 1313 c 128,-1,8
 440.11 1280 440.11 1280 397.811 1280 c 0,9,10
 355.511 1280 355.511 1280 331.134 1313 c 128,-1,11
 306.757 1346 306.757 1346 314.979 1393 c 0,0,1
301.329 106 m 1,12,-1
 457.929 106 l 1,13,-1
 439.384 0 l 1,14,-1
 -41.2158 0 l 1,15,-1
 -22.6719 106 l 1,16,-1
 135.729 106 l 1,17,-1
 284.43 956 l 1,18,-1
 126.029 956 l 1,19,-1
 144.748 1063 l 1,20,-1
 468.748 1063 l 1,21,-1
 301.329 106 l 1,12,-1
EndSplineSet
EndChar
StartChar: j
Encoding: 106 106 77
Width: 582
Flags: HW
Fore
347.569 1393 m 0,0,1
 355.617 1439 355.617 1439 391.715 1473 c 128,-1,2
 427.814 1507 427.814 1507 470.114 1507 c 0,3,4
 511.515 1507 511.515 1507 535.715 1473 c 128,-1,5
 559.917 1439 559.917 1439 551.869 1393 c 0,6,7
 543.647 1346 543.647 1346 508.625 1313 c 128,-1,8
 473.601 1280 473.601 1280 430.4 1280 c 0,9,10
 388.101 1280 388.101 1280 363.726 1313 c 128,-1,11
 339.348 1346 339.348 1346 347.569 1393 c 0,0,1
311.621 956 m 1,12,-1
 155.021 956 l 1,13,-1
 173.739 1063 l 1,14,-1
 495.938 1063 l 1,15,-1
 291.781 -104 l 2,16,17
 263.091 -268 263.091 -268 158.983 -361.5 c 128,-1,18
 54.876 -455 54.876 -455 -99.0244 -455 c 0,19,20
 -163.824 -455 -163.824 -455 -219.886 -438.5 c 128,-1,21
 -275.95 -422 -275.95 -422 -325.978 -389 c 1,22,-1
 -287.665 -170 l 1,23,-1
 -202.165 -170 l 1,24,25
 -212.659 -266 -212.659 -266 -182.281 -311 c 128,-1,26
 -151.903 -356 -151.903 -356 -78.1045 -356 c 0,27,28
 3.7959 -356 3.7959 -356 53.7051 -294.5 c 128,-1,29
 103.614 -233 103.614 -233 126.181 -104 c 2,30,-1
 311.621 956 l 1,12,-1
EndSplineSet
EndChar
StartChar: k
Encoding: 107 107 78
Width: 1175
Flags: HW
Fore
449.804 0 m 1,0,-1
 -14.5957 0 l 1,1,-1
 3.94727 106 l 1,2,-1
 153.347 106 l 1,3,-1
 388.471 1450 l 1,4,-1
 229.17 1450 l 1,5,-1
 247.714 1556 l 1,6,-1
 572.614 1556 l 1,7,-1
 395.396 543 l 1,8,-1
 870.849 956 l 1,9,-1
 733.148 956 l 1,10,-1
 751.867 1063 l 1,11,-1
 1184.77 1063 l 1,12,-1
 1166.05 956 l 1,13,-1
 1002.25 956 l 1,14,-1
 666.766 664 l 1,15,-1
 932.747 106 l 1,16,-1
 1070.45 106 l 1,17,-1
 1051.9 0 l 1,18,-1
 580.304 0 l 1,19,-1
 598.847 106 l 1,20,-1
 735.647 106 l 1,21,-1
 525.896 543 l 1,22,-1
 371.779 408 l 1,23,-1
 318.947 106 l 1,24,-1
 468.347 106 l 1,25,-1
 449.804 0 l 1,0,-1
EndSplineSet
KernsSLIF: 45 -36 0 0
EndChar
StartChar: l
Encoding: 108 108 79
Width: 613
Flags: HW
Fore
284.389 106 m 1,0,-1
 440.988 106 l 1,1,-1
 422.444 0 l 1,2,-1
 -59.0547 0 l 1,3,-1
 -40.5117 106 l 1,4,-1
 118.788 106 l 1,5,-1
 353.911 1450 l 1,6,-1
 194.611 1450 l 1,7,-1
 213.155 1556 l 1,8,-1
 538.056 1556 l 1,9,-1
 284.389 106 l 1,0,-1
EndSplineSet
EndChar
StartChar: m
Encoding: 109 109 80
Width: 1836
Flags: HW
Fore
1098.05 856 m 1,0,1
 1166.22 973 1166.22 973 1250.88 1032.5 c 128,-1,2
 1335.53 1092 1335.53 1092 1434.53 1092 c 0,3,4
 1584.83 1092 1584.83 1092 1640.53 988.5 c 128,-1,5
 1696.22 885 1696.22 885 1659.66 676 c 2,6,-1
 1559.94 106 l 1,7,-1
 1709.34 106 l 1,8,-1
 1690.8 0 l 1,9,-1
 1231.8 0 l 1,10,-1
 1250.34 106 l 1,11,-1
 1394.34 106 l 1,12,-1
 1490.39 655 l 2,13,14
 1518.9 818 1518.9 818 1487.77 887 c 128,-1,15
 1456.65 956 1456.65 956 1356.75 956 c 0,16,17
 1246.05 956 1246.05 956 1171.72 863 c 128,-1,18
 1097.4 770 1097.4 770 1066.26 592 c 2,19,-1
 981.242 106 l 1,20,-1
 1125.24 106 l 1,21,-1
 1106.7 0 l 1,22,-1
 653.098 0 l 1,23,-1
 671.643 106 l 1,24,-1
 815.643 106 l 1,25,-1
 912.91 662 l 2,26,27
 940.727 821 940.727 821 909.334 888.5 c 128,-1,28
 877.943 956 877.943 956 778.043 956 c 0,29,30
 667.344 956 667.344 956 593.023 863 c 128,-1,31
 518.704 770 518.704 770 487.563 592 c 2,32,-1
 402.543 106 l 1,33,-1
 546.543 106 l 1,34,-1
 527.998 0 l 1,35,-1
 68.998 0 l 1,36,-1
 87.542 106 l 1,37,-1
 236.942 106 l 1,38,-1
 385.993 958 l 1,39,-1
 227.594 958 l 1,40,-1
 245.962 1063 l 1,41,-1
 569.962 1063 l 1,42,-1
 536.898 874 l 1,43,44
 601.342 980 601.342 980 682.238 1036 c 128,-1,45
 763.136 1092 763.136 1092 853.136 1092 c 0,46,47
 964.735 1092 964.735 1092 1028.68 1030.5 c 128,-1,48
 1092.62 969 1092.62 969 1098.05 856 c 1,0,1
EndSplineSet
EndChar
StartChar: n
Encoding: 110 110 81
Width: 1244
Flags: HW
Fore
37.7979 0 m 1,0,-1
 56.3428 106 l 1,1,-1
 205.742 106 l 1,2,-1
 354.443 956 l 1,3,-1
 196.043 956 l 1,4,-1
 214.762 1063 l 1,5,-1
 538.762 1063 l 1,6,-1
 505.698 874 l 1,7,8
 570.492 982 570.492 982 653.463 1037 c 128,-1,9
 736.436 1092 736.436 1092 833.636 1092 c 0,10,11
 992.034 1092 992.034 1092 1049.07 991 c 128,-1,12
 1106.1 890 1106.1 890 1068.66 676 c 2,13,-1
 968.939 106 l 1,14,-1
 1116.54 106 l 1,15,-1
 1098 0 l 1,16,-1
 640.798 0 l 1,17,-1
 659.343 106 l 1,18,-1
 802.442 106 l 1,19,-1
 892.013 618 l 2,20,21
 926.126 813 926.126 813 895.609 885.5 c 128,-1,22
 865.094 958 865.094 958 756.193 958 c 0,23,24
 640.993 958 640.993 958 564.336 864.5 c 128,-1,25
 487.679 771 487.679 771 456.364 592 c 2,26,-1
 371.343 106 l 1,27,-1
 515.343 106 l 1,28,-1
 496.798 0 l 1,29,-1
 37.7979 0 l 1,0,-1
EndSplineSet
EndChar
StartChar: o
Encoding: 111 111 82
Width: 1171
Flags: HW
Fore
535.276 70 m 0,0,1
 668.477 70 668.477 70 756.895 187 c 128,-1,2
 845.312 304 845.312 304 885.2 532 c 0,3,4
 925.086 760 925.086 760 877.518 876.5 c 128,-1,5
 829.948 993 829.948 993 696.747 993 c 0,6,7
 563.548 993 563.548 993 475.218 876.5 c 128,-1,8
 386.886 760 386.886 760 347 532 c 0,9,10
 307.112 304 307.112 304 355.044 187 c 128,-1,11
 402.977 70 402.977 70 535.276 70 c 0,0,1
517.957 -29 m 0,12,13
 309.156 -29 309.156 -29 209.111 124.5 c 128,-1,14
 109.063 278 109.063 278 153.5 532 c 0,15,16
 197.935 786 197.935 786 351.15 939 c 128,-1,17
 504.367 1092 504.367 1092 714.066 1092 c 0,18,19
 923.767 1092 923.767 1092 1023.45 939 c 128,-1,20
 1123.13 786 1123.13 786 1078.7 532 c 0,21,22
 1034.26 278 1034.26 278 880.961 124.5 c 128,-1,23
 727.656 -29 727.656 -29 517.957 -29 c 0,12,13
EndSplineSet
KernsSLIF: 46 -36 0 0
EndChar
StartChar: p
Encoding: 112 112 83
Width: 1238
Flags: HW
Fore
480.646 584 m 2,0,-1
 462.278 479 l 2,1,2
 428.689 287 428.689 287 477.257 186.5 c 128,-1,3
 525.825 86 525.825 86 651.825 86 c 0,4,5
 778.726 86 778.726 86 863.744 199 c 128,-1,6
 948.763 312 948.763 312 987.248 532 c 0,7,8
 1025.91 753 1025.91 753 980.255 865 c 128,-1,9
 934.6 977 934.6 977 807.699 977 c 0,10,11
 681.699 977 681.699 977 597.88 876 c 128,-1,12
 514.061 775 514.061 775 480.646 584 c 2,0,-1
380.125 956 m 1,13,-1
 220.825 956 l 1,14,-1
 239.544 1063 l 1,15,-1
 564.443 1063 l 1,16,-1
 535.404 897 l 1,17,18
 601.497 997 601.497 997 684.958 1044.5 c 128,-1,19
 768.418 1092 768.418 1092 879.117 1092 c 0,20,21
 1055.51 1092 1055.51 1092 1140 937 c 128,-1,22
 1224.49 782 1224.49 782 1180.75 532 c 0,23,24
 1137.02 282 1137.02 282 998.21 126.5 c 128,-1,25
 859.408 -29 859.408 -29 683.008 -29 c 0,26,27
 572.308 -29 572.308 -29 505.467 18.5 c 128,-1,28
 438.627 66 438.627 66 407.521 166 c 1,29,-1
 322.674 -319 l 1,30,-1
 479.273 -319 l 1,31,-1
 460.556 -426 l 1,32,-1
 -20.9443 -426 l 1,33,-1
 -2.22656 -319 l 1,34,-1
 157.074 -319 l 1,35,-1
 380.125 956 l 1,13,-1
EndSplineSet
EndChar
StartChar: q
Encoding: 113 113 84
Width: 1255
Flags: HW
Fore
1152.34 956 m 1,0,-1
 929.29 -319 l 1,1,-1
 1087.69 -319 l 1,2,-1
 1068.98 -426 l 1,3,-1
 588.372 -426 l 1,4,-1
 607.09 -319 l 1,5,-1
 763.69 -319 l 1,6,-1
 848.537 166 l 1,7,8
 782.443 66 782.443 66 698.983 18.5 c 128,-1,9
 615.524 -29 615.524 -29 504.824 -29 c 0,10,11
 328.424 -29 328.424 -29 243.577 126.5 c 128,-1,12
 158.73 282 158.73 282 202.467 532 c 0,13,14
 246.201 782 246.201 782 384.917 937 c 128,-1,15
 523.634 1092 523.634 1092 700.934 1092 c 0,16,17
 811.634 1092 811.634 1092 878.475 1044.5 c 128,-1,18
 945.313 997 945.313 997 976.42 897 c 1,19,-1
 1005.46 1063 l 1,20,-1
 1329.46 1063 l 1,21,-1
 1310.74 956 l 1,22,-1
 1152.34 956 l 1,0,-1
921.663 584 m 2,23,24
 955.077 775 955.077 775 906.597 876 c 128,-1,25
 858.115 977 858.115 977 732.115 977 c 0,26,27
 604.315 977 604.315 977 519.472 865 c 128,-1,28
 434.629 753 434.629 753 395.967 532 c 0,29,30
 357.479 312 357.479 312 402.96 199 c 128,-1,31
 448.441 86 448.441 86 576.242 86 c 0,32,33
 702.242 86 702.242 86 785.974 186.5 c 128,-1,34
 869.706 287 869.706 287 903.295 479 c 2,35,-1
 921.663 584 l 2,23,24
EndSplineSet
EndChar
StartChar: r
Encoding: 114 114 85
Width: 933
Flags: HW
Fore
1024.78 1065 m 1,0,-1
 978.249 799 l 1,1,-1
 882.848 799 l 1,2,3
 892.168 878 892.168 878 863.891 917 c 128,-1,4
 835.614 956 835.614 956 768.114 956 c 0,5,6
 645.714 956 645.714 956 564.019 862 c 128,-1,7
 482.324 768 482.324 768 451.534 592 c 2,8,-1
 366.513 106 l 1,9,-1
 558.213 106 l 1,10,-1
 539.669 0 l 1,11,-1
 32.9688 0 l 1,12,-1
 51.5127 106 l 1,13,-1
 200.913 106 l 1,14,-1
 349.964 958 l 1,15,-1
 191.563 958 l 1,16,-1
 209.932 1063 l 1,17,-1
 533.932 1063 l 1,18,-1
 500.869 874 l 1,19,20
 568.887 985 568.887 985 654.746 1038.5 c 128,-1,21
 740.606 1092 740.606 1092 850.406 1092 c 0,22,23
 890.906 1092 890.906 1092 934.231 1085 c 128,-1,24
 977.557 1078 977.557 1078 1024.78 1065 c 1,0,-1
EndSplineSet
KernsSLIF: 46 -225 0 0 44 -225 0 0
EndChar
StartChar: s
Encoding: 115 115 86
Width: 996
Flags: HW
Fore
71.0596 59 m 1,0,-1
 114.444 307 l 1,1,-1
 209.845 307 l 1,2,3
 192.626 188 192.626 188 245.755 129 c 128,-1,4
 298.884 70 298.884 70 423.084 70 c 0,5,6
 534.684 70 534.684 70 601.318 116.5 c 128,-1,7
 667.953 163 667.953 163 683.523 252 c 0,8,9
 695.769 322 695.769 322 660.542 365 c 128,-1,10
 625.314 408 625.314 408 496.187 457 c 1,11,-1
 384.358 502 l 1,12,13
 268.756 546 268.756 546 224.952 612 c 128,-1,14
 181.148 678 181.148 678 198.993 780 c 0,15,16
 224.534 926 224.534 926 335.354 1009 c 128,-1,17
 446.175 1092 446.175 1092 616.274 1092 c 0,18,19
 691.874 1092 691.874 1092 771.726 1070 c 128,-1,20
 851.577 1048 851.577 1048 933.329 1006 c 1,21,-1
 892.743 774 l 1,22,-1
 797.344 774 l 1,23,24
 811.762 877 811.762 877 760.709 935 c 128,-1,25
 709.655 993 709.655 993 604.354 993 c 0,26,27
 499.955 993 499.955 993 439.232 952 c 128,-1,28
 378.511 911 378.511 911 364.165 829 c 0,29,30
 352.444 762 352.444 762 385.859 721.5 c 128,-1,31
 419.273 681 419.273 681 533.426 639 c 2,32,-1
 656.952 594 l 2,33,34
 784.631 547 784.631 547 832.148 476.5 c 128,-1,35
 879.664 406 879.664 406 860.245 295 c 0,36,37
 833.83 144 833.83 144 714.746 57.5 c 128,-1,38
 595.664 -29 595.664 -29 412.965 -29 c 0,39,40
 320.265 -29 320.265 -29 235.913 -7 c 128,-1,41
 151.562 15 151.562 15 71.0596 59 c 1,0,-1
EndSplineSet
EndChar
StartChar: t
Encoding: 116 116 87
Width: 787
Flags: HW
Fore
293.75 956 m 1,0,-1
 147.95 956 l 1,1,-1
 166.669 1063 l 1,2,-1
 312.469 1063 l 1,3,-1
 370.199 1393 l 1,4,-1
 536.699 1393 l 1,5,-1
 478.969 1063 l 1,6,-1
 790.369 1063 l 1,7,-1
 771.65 956 l 1,8,-1
 460.25 956 l 1,9,-1
 342.164 281 l 2,10,11
 318.547 146 318.547 146 335.3 108 c 128,-1,12
 352.051 70 352.051 70 415.051 70 c 0,13,14
 479.851 70 479.851 70 516.987 112.5 c 128,-1,15
 554.122 155 554.122 155 572.54 250 c 1,16,-1
 697.641 250 l 1,17,18
 665.074 105 665.074 105 589.453 38 c 128,-1,19
 513.832 -29 513.832 -29 383.332 -29 c 0,20,21
 240.232 -29 240.232 -29 193.165 41.5 c 128,-1,22
 146.099 112 146.099 112 175.665 281 c 2,23,-1
 293.75 956 l 1,0,-1
EndSplineSet
EndChar
StartChar: u
Encoding: 117 117 88
Width: 1252
Flags: HW
Fore
813.792 1063 m 1,0,-1
 1123.39 1063 l 1,1,-1
 955.972 106 l 1,2,-1
 1112.57 106 l 1,3,-1
 1094.03 0 l 1,4,-1
 771.828 0 l 1,5,-1
 804.717 188 l 1,6,7
 740.272 82 740.272 82 657.663 26.5 c 128,-1,8
 575.055 -29 575.055 -29 478.754 -29 c 0,9,10
 319.454 -29 319.454 -29 261.886 71.5 c 128,-1,11
 204.317 172 204.317 172 241.93 387 c 2,12,-1
 341.473 956 l 1,13,-1
 192.073 956 l 1,14,-1
 210.792 1063 l 1,15,-1
 526.692 1063 l 1,16,-1
 418.403 444 l 2,17,18
 384.464 250 384.464 250 414.617 178 c 128,-1,19
 444.771 106 444.771 106 554.571 106 c 0,20,21
 669.771 106 669.771 106 746.517 200 c 128,-1,22
 823.261 294 823.261 294 854.575 473 c 2,23,-1
 939.073 956 l 1,24,-1
 795.073 956 l 1,25,-1
 813.792 1063 l 1,0,-1
EndSplineSet
EndChar
StartChar: v
Encoding: 118 118 89
Width: 1107
Flags: HW
Fore
428.96 0 m 1,0,-1
 244.305 956 l 1,1,-1
 135.404 956 l 1,2,-1
 154.123 1063 l 1,3,-1
 594.223 1063 l 1,4,-1
 575.505 956 l 1,5,-1
 422.505 956 l 1,6,-1
 563.722 225 l 1,7,-1
 960.705 956 l 1,8,-1
 817.604 956 l 1,9,-1
 836.323 1063 l 1,10,-1
 1195.42 1063 l 1,11,-1
 1176.7 956 l 1,12,-1
 1069.6 956 l 1,13,-1
 550.46 0 l 1,14,-1
 428.96 0 l 1,0,-1
EndSplineSet
KernsSLIF: 46 -243 0 0 44 -243 0 0
EndChar
StartChar: w
Encoding: 119 119 90
Width: 1674
Flags: HW
Fore
1074.92 1063 m 1,0,-1
 1174.52 233 l 1,1,-1
 1517 956 l 1,2,-1
 1378.4 956 l 1,3,-1
 1397.12 1063 l 1,4,-1
 1743.62 1063 l 1,5,-1
 1724.9 956 l 1,6,-1
 1618.7 956 l 1,7,-1
 1167.06 0 l 1,8,-1
 1029.36 0 l 1,9,-1
 932.639 795 l 1,10,-1
 556.859 0 l 1,11,-1
 424.56 0 l 1,12,-1
 308.305 956 l 1,13,-1
 201.205 956 l 1,14,-1
 219.923 1063 l 1,15,-1
 652.823 1063 l 1,16,-1
 634.104 956 l 1,17,-1
 479.305 956 l 1,18,-1
 567.021 233 l 1,19,-1
 958.823 1063 l 1,20,-1
 1074.92 1063 l 1,0,-1
EndSplineSet
KernsSLIF: 46 -243 0 0 44 -243 0 0
EndChar
StartChar: x
Encoding: 120 120 91
Width: 1095
Flags: HW
Fore
613.456 649 m 1,0,-1
 867.863 956 l 1,1,-1
 739.163 956 l 1,2,-1
 757.882 1063 l 1,3,-1
 1125.98 1063 l 1,4,-1
 1107.26 956 l 1,5,-1
 980.358 956 l 1,6,-1
 655.11 563 l 1,7,-1
 873.962 106 l 1,8,-1
 999.061 106 l 1,9,-1
 980.521 0 l 1,10,-1
 538.618 0 l 1,11,-1
 557.162 106 l 1,12,-1
 678.662 106 l 1,13,-1
 526.394 424 l 1,14,-1
 261.962 106 l 1,15,-1
 386.162 106 l 1,16,-1
 367.618 0 l 1,17,-1
 4.01758 0 l 1,18,-1
 22.5615 106 l 1,19,-1
 149.462 106 l 1,20,-1
 483.839 510 l 1,21,-1
 271.163 956 l 1,22,-1
 153.264 956 l 1,23,-1
 171.981 1063 l 1,24,-1
 599.481 1063 l 1,25,-1
 580.764 956 l 1,26,-1
 466.463 956 l 1,27,-1
 613.456 649 l 1,0,-1
EndSplineSet
KernsSLIF: 45 -36 0 0
EndChar
StartChar: y
Encoding: 121 121 92
Width: 1102
Flags: HW
Fore
371.654 -195 m 1,0,-1
 465.619 -18 l 1,1,-1
 278.714 956 l 1,2,-1
 169.813 956 l 1,3,-1
 188.531 1063 l 1,4,-1
 628.632 1063 l 1,5,-1
 609.913 956 l 1,6,-1
 456.913 956 l 1,7,-1
 598.131 225 l 1,8,-1
 995.117 956 l 1,9,-1
 852.014 956 l 1,10,-1
 870.731 1063 l 1,11,-1
 1229.83 1063 l 1,12,-1
 1211.12 956 l 1,13,-1
 1104.02 956 l 1,14,-1
 456.482 -240 l 1,15,16
 389.79 -364 389.79 -364 326.93 -409.5 c 128,-1,17
 264.07 -455 264.07 -455 164.171 -455 c 0,18,19
 121.87 -455 121.87 -455 78.7197 -447 c 128,-1,20
 35.5684 -439 35.5684 -439 -6.80664 -424 c 1,21,-1
 28.7061 -221 l 1,22,-1
 113.307 -221 l 1,23,24
 106.811 -289 106.811 -289 127.299 -318.5 c 128,-1,25
 147.788 -348 147.788 -348 201.789 -348 c 0,26,27
 251.289 -348 251.289 -348 286.773 -317.5 c 128,-1,28
 322.26 -287 322.26 -287 371.654 -195 c 1,0,-1
EndSplineSet
KernsSLIF: 46 -272 0 0 44 -272 0 0
EndChar
StartChar: z
Encoding: 122 122 93
Width: 1024
Flags: HW
Fore
34.168 0 m 1,0,-1
 49.2129 86 l 1,1,-1
 800.813 956 l 1,2,-1
 326.514 956 l 1,3,-1
 294.323 772 l 1,4,-1
 198.923 772 l 1,5,-1
 249.831 1063 l 1,6,-1
 1032.83 1063 l 1,7,-1
 1017.79 977 l 1,8,-1
 266.012 106 l 1,9,-1
 786.212 106 l 1,10,-1
 819.977 299 l 1,11,-1
 916.276 299 l 1,12,-1
 863.968 0 l 1,13,-1
 34.168 0 l 1,0,-1
EndSplineSet
EndChar
StartChar: braceleft
Encoding: 123 123 94
Width: 1246
Flags: HW
Fore
869.178 -229 m 1,0,-1
 850.809 -334 l 1,1,-1
 795.009 -334 l 2,2,3
 570.909 -334 570.909 -334 507.804 -260 c 128,-1,4
 444.7 -186 444.7 -186 483.362 35 c 2,5,-1
 528.498 293 l 2,6,7
 554.738 443 554.738 443 516.285 501 c 128,-1,8
 477.833 559 477.833 559 350.033 559 c 2,9,-1
 295.133 559 l 1,10,-1
 313.501 664 l 1,11,-1
 368.401 664 l 2,12,13
 496.201 664 496.201 664 554.947 722 c 128,-1,14
 613.695 780 613.695 780 639.936 930 c 2,15,-1
 685.07 1188 l 2,16,17
 723.732 1409 723.732 1409 812.641 1482.5 c 128,-1,18
 901.549 1556 901.549 1556 1125.65 1556 c 2,19,-1
 1181.45 1556 l 1,20,-1
 1163.25 1452 l 1,21,-1
 1102.05 1452 l 2,22,23
 975.152 1452 975.152 1452 928.758 1408 c 128,-1,24
 882.36 1364 882.36 1364 857.694 1223 c 2,25,-1
 807.485 936 l 2,26,27
 779.845 778 779.845 778 722.948 710 c 128,-1,28
 666.052 642 666.052 642 543.804 612 c 1,29,30
 656.655 578 656.655 578 689.035 511 c 128,-1,31
 721.413 444 721.413 444 693.948 287 c 2,32,-1
 643.739 0 l 2,33,34
 619.072 -141 619.072 -141 650.075 -185 c 128,-1,35
 681.078 -229 681.078 -229 807.979 -229 c 2,36,-1
 869.178 -229 l 1,0,-1
EndSplineSet
EndChar
StartChar: bar
Encoding: 124 124 95
Width: 655
Flags: HW
Fore
597.041 1565 m 1,0,-1
 238.759 -483 l 1,1,-1
 92.959 -483 l 1,2,-1
 451.241 1565 l 1,3,-1
 597.041 1565 l 1,0,-1
EndSplineSet
EndChar
StartChar: braceright
Encoding: 125 125 96
Width: 1229
Flags: HW
Fore
139.929 -229 m 1,0,-1
 202.93 -229 l 2,1,2
 328.93 -229 328.93 -229 374.789 -185.5 c 128,-1,3
 420.649 -142 420.649 -142 445.49 0 c 2,4,-1
 495.699 287 l 2,5,6
 523.165 444 523.165 444 578.986 511 c 128,-1,7
 634.807 578 634.807 578 758.655 612 c 1,8,9
 646.903 642 646.903 642 614.249 710 c 128,-1,10
 581.597 778 581.597 778 609.237 936 c 2,11,-1
 659.445 1223 l 2,12,13
 684.286 1365 684.286 1365 653.647 1408.5 c 128,-1,14
 623.007 1452 623.007 1452 497.007 1452 c 2,15,-1
 434.007 1452 l 1,16,-1
 452.2 1556 l 1,17,-1
 508.9 1556 l 2,18,19
 733.001 1556 733.001 1556 795.292 1482.5 c 128,-1,20
 857.584 1409 857.584 1409 818.922 1188 c 2,21,-1
 773.787 930 l 2,22,23
 747.547 780 747.547 780 785.999 722 c 128,-1,24
 824.452 664 824.452 664 952.252 664 c 2,25,-1
 1008.05 664 l 1,26,-1
 989.682 559 l 1,27,-1
 933.884 559 l 2,28,29
 806.084 559 806.084 559 747.337 501 c 128,-1,30
 688.59 443 688.59 443 662.35 293 c 2,31,-1
 617.214 35 l 2,32,33
 578.552 -186 578.552 -186 490.455 -260 c 128,-1,34
 402.36 -334 402.36 -334 178.261 -334 c 2,35,-1
 121.56 -334 l 1,36,-1
 139.929 -229 l 1,0,-1
EndSplineSet
EndChar
StartChar: asciitilde
Encoding: 126 126 97
Width: 1630
Flags: HW
Fore
1463.76 807 m 1,0,-1
 1437.87 659 l 1,1,2
 1332.48 571 1332.48 571 1244.14 529 c 128,-1,3
 1155.78 487 1155.78 487 1072.08 487 c 0,4,5
 985.684 487 985.684 487 840.63 553 c 2,6,-1
 832.33 557 l 2,7,8
 823.129 561 823.129 561 804.904 570 c 0,9,10
 682.575 627 682.575 627 597.075 627 c 0,11,12
 514.275 627 514.275 627 430.04 590.5 c 128,-1,13
 345.806 554 345.806 554 252.235 477 c 1,14,-1
 278.825 629 l 1,15,16
 384.046 716 384.046 716 471.682 756.5 c 128,-1,17
 559.316 797 559.316 797 643.916 797 c 0,18,19
 730.316 797 730.316 797 875.37 731 c 2,20,-1
 883.67 727 l 2,21,22
 892.87 723 892.87 723 909.47 715 c 0,23,24
 1029.83 657 1029.83 657 1117.13 657 c 0,25,26
 1199.93 657 1199.93 657 1285.6 694 c 128,-1,27
 1371.27 731 1371.27 731 1463.76 807 c 1,0,-1
EndSplineSet
EndChar
StartChar: exclamdown
Encoding: 161 161 163
Width: 780
Flags: HW
Fore
401.207 1389 m 0,0,1
 411.004 1445 411.004 1445 451.938 1483.5 c 128,-1,2
 492.875 1522 492.875 1522 544.175 1522 c 0,3,4
 593.675 1522 593.675 1522 621.952 1483 c 128,-1,5
 650.229 1444 650.229 1444 640.607 1389 c 0,6,7
 630.811 1333 630.811 1333 588.887 1294 c 128,-1,8
 546.964 1255 546.964 1255 497.464 1255 c 0,9,10
 446.164 1255 446.164 1255 418.787 1294 c 128,-1,11
 391.41 1333 391.41 1333 401.207 1389 c 0,0,1
161.812 0 m 1,12,-1
 365.74 821 l 1,13,-1
 409.824 1073 l 1,14,-1
 520.524 1073 l 1,15,-1
 476.439 821 l 1,16,-1
 394.012 0 l 1,17,-1
 161.812 0 l 1,12,-1
EndSplineSet
EndChar
StartChar: cent
Encoding: 162 162 132
Width: 1237
Flags: HW
Fore
711.803 991 m 1,0,1
 593.079 976 593.079 976 514.911 861 c 128,-1,2
 436.742 746 436.742 746 399.305 532 c 0,3,4
 361.692 317 361.692 317 399.624 202 c 128,-1,5
 437.555 87 437.555 87 551.031 72 c 1,6,-1
 711.803 991 l 1,0,1
1021.74 319 m 1,7,8
 963.301 165 963.301 165 863.568 78.5 c 128,-1,9
 763.836 -8 763.836 -8 623.712 -27 c 1,10,-1
 576.478 -297 l 1,11,-1
 486.478 -297 l 1,12,-1
 533.712 -27 l 1,13,14
 339.036 -8 339.036 -8 250.527 142 c 128,-1,15
 162.019 292 162.019 292 204.005 532 c 0,16,17
 246.341 774 246.341 774 387.245 923.5 c 128,-1,18
 528.148 1073 528.148 1073 729.122 1090 c 1,19,-1
 775.657 1356 l 1,20,-1
 865.657 1356 l 1,21,-1
 819.122 1090 l 1,22,23
 900.523 1082 900.523 1082 972.096 1059 c 128,-1,24
 1043.67 1036 1043.67 1036 1108.85 997 c 1,25,-1
 1061.27 725 l 1,26,-1
 965.867 725 l 1,27,28
 970.286 848 970.286 848 929.995 913.5 c 128,-1,29
 889.704 979 889.704 979 801.803 991 c 1,30,-1
 641.031 72 l 1,31,32
 724.13 84 724.13 84 787.439 147.5 c 128,-1,33
 850.748 211 850.748 211 888.542 319 c 1,34,-1
 1021.74 319 l 1,7,8
EndSplineSet
EndChar
StartChar: sterling
Encoding: 163 163 133
Width: 1234
Flags: HW
Fore
1134.62 1225 m 1,0,-1
 1040.12 1225 l 1,1,2
 1047.73 1320 1047.73 1320 1005.72 1370.5 c 128,-1,3
 963.705 1421 963.705 1421 877.301 1421 c 0,4,5
 763 1421 763 1421 694.993 1343.5 c 128,-1,6
 626.984 1266 626.984 1266 598.295 1102 c 2,7,-1
 546.687 807 l 1,8,-1
 917.486 807 l 1,9,-1
 898.768 700 l 1,10,-1
 527.968 700 l 1,11,-1
 426.676 121 l 1,12,-1
 856.876 121 l 1,13,-1
 896.588 348 l 1,14,-1
 1000.99 348 l 1,15,-1
 940.108 0 l 1,16,-1
 51.8076 0 l 1,17,-1
 70.3516 106 l 1,18,-1
 244.052 106 l 1,19,-1
 347.968 700 l 1,20,-1
 174.268 700 l 1,21,-1
 192.986 807 l 1,22,-1
 366.687 807 l 1,23,-1
 418.295 1102 l 2,24,25
 454.157 1307 454.157 1307 575.838 1413.5 c 128,-1,26
 697.521 1520 697.521 1520 896.42 1520 c 0,27,28
 972.921 1520 972.921 1520 1043.63 1507.5 c 128,-1,29
 1114.35 1495 1114.35 1495 1177.47 1470 c 1,30,-1
 1134.62 1225 l 1,0,-1
EndSplineSet
EndChar
StartChar: currency
Encoding: 164 164 189
Width: 1238
Flags: HW
Fore
936.306 985 m 1,0,-1
 1160.62 1192 l 1,1,-1
 1228.78 1098 l 1,2,-1
 1004.11 889 l 1,3,4
 1032.32 829 1032.32 829 1040.09 768 c 128,-1,5
 1047.87 707 1047.87 707 1036.33 641 c 0,6,7
 1024.25 572 1024.25 572 995.479 513 c 128,-1,8
 966.714 454 966.714 454 916.239 397 c 1,9,-1
 1066.33 190 l 1,10,-1
 963.481 96 l 1,11,-1
 813.045 301 l 1,12,13
 754.947 257 754.947 257 697.724 236 c 128,-1,14
 640.5 215 640.5 215 578.4 215 c 0,15,16
 520.8 215 520.8 215 468.136 235.5 c 128,-1,17
 415.473 256 415.473 256 367.744 297 c 1,18,-1
 148.282 92 l 1,19,-1
 79.2266 186 l 1,20,-1
 299.94 393 l 1,21,22
 273.886 455 273.886 455 266.107 516 c 128,-1,23
 258.329 577 258.329 577 269.525 641 c 0,24,25
 281.771 711 281.771 711 311.08 770.5 c 128,-1,26
 340.39 830 340.39 830 389.961 887 c 1,27,-1
 239.874 1094 l 1,28,-1
 341.819 1188 l 1,29,-1
 491.905 981 l 1,30,31
 550.002 1025 550.002 1025 607.676 1046 c 128,-1,32
 665.35 1067 665.35 1067 727.45 1067 c 0,33,34
 786.85 1067 786.85 1067 838.252 1047 c 128,-1,35
 889.652 1027 889.652 1027 936.306 985 c 1,0,-1
895.375 643 m 0,36,37
 914.969 755 914.969 755 858.689 832 c 128,-1,38
 802.409 909 802.409 909 699.81 909 c 0,39,40
 599.009 909 599.009 909 515.34 832 c 128,-1,41
 431.669 755 431.669 755 412.075 643 c 0,42,43
 392.132 529 392.132 529 448.235 451 c 128,-1,44
 504.341 373 504.341 373 606.041 373 c 0,45,46
 707.741 373 707.741 373 791.674 451.5 c 128,-1,47
 875.606 530 875.606 530 895.375 643 c 0,36,37
EndSplineSet
EndChar
StartChar: yen
Encoding: 165 165 150
Width: 1250
Flags: HW
Fore
270.804 0 m 1,0,-1
 289.346 106 l 1,1,-1
 461.246 106 l 1,2,-1
 525.45 473 l 1,3,-1
 161.85 473 l 1,4,-1
 180.219 578 l 1,5,-1
 543.819 578 l 1,6,-1
 555.19 643 l 1,7,-1
 506.057 784 l 1,8,-1
 216.257 784 l 1,9,-1
 234.626 889 l 1,10,-1
 471.326 889 l 1,11,-1
 299.974 1386 l 1,12,-1
 174.873 1386 l 1,13,-1
 193.591 1493 l 1,14,-1
 691.29 1493 l 1,15,-1
 672.573 1386 l 1,16,-1
 515.073 1386 l 1,17,-1
 718.106 782 l 1,18,-1
 1128.88 1386 l 1,19,-1
 978.576 1386 l 1,20,-1
 997.287 1493 l 1,21,-1
 1386.09 1493 l 1,22,-1
 1367.38 1386 l 1,23,-1
 1239.58 1386 l 1,24,-1
 897.026 889 l 1,25,-1
 1141.83 889 l 1,26,-1
 1123.46 784 l 1,27,-1
 824.657 784 l 1,28,-1
 739.414 662 l 1,29,-1
 724.719 578 l 1,30,-1
 1087.42 578 l 1,31,-1
 1069.05 473 l 1,32,-1
 706.351 473 l 1,33,-1
 642.146 106 l 1,34,-1
 813.146 106 l 1,35,-1
 794.604 0 l 1,36,-1
 270.804 0 l 1,0,-1
EndSplineSet
EndChar
StartChar: brokenbar
Encoding: 166 166 231
Width: 655
Flags: HW
Fore
394.632 408 m 1,0,-1
 262.027 -350 l 1,1,-1
 116.227 -350 l 1,2,-1
 248.832 408 l 1,3,-1
 394.632 408 l 1,0,-1
573.772 1432 m 1,4,-1
 441.168 674 l 1,5,-1
 295.368 674 l 1,6,-1
 427.973 1432 l 1,7,-1
 573.772 1432 l 1,4,-1
EndSplineSet
EndChar
StartChar: section
Encoding: 167 167 134
Width: 971
Flags: HW
Fore
438.396 936 m 1,0,1
 369.149 890 369.149 890 337.139 848.5 c 128,-1,2
 305.129 807 305.129 807 295.857 754 c 0,3,4
 272.766 622 272.766 622 563.951 419 c 2,5,-1
 589.603 401 l 1,6,7
 648.45 439 648.45 439 683.398 487 c 128,-1,8
 718.346 535 718.346 535 728.316 592 c 0,9,10
 741.438 667 741.438 667 690.608 734 c 128,-1,11
 639.78 801 639.78 801 438.396 936 c 1,0,1
935.767 1464 m 1,12,-1
 900.428 1262 l 1,13,-1
 817.628 1262 l 1,14,15
 828.424 1334 828.424 1334 788.884 1375.5 c 128,-1,16
 749.344 1417 749.344 1417 670.144 1417 c 0,17,18
 580.144 1417 580.144 1417 519.909 1368.5 c 128,-1,19
 459.675 1320 459.675 1320 445.155 1237 c 0,20,21
 428.185 1140 428.185 1140 625.618 1003 c 0,22,23
 646.394 988 646.394 988 655.969 981 c 0,24,25
 812.4 872 812.4 872 855.53 797 c 128,-1,26
 898.658 722 898.658 722 881.34 623 c 0,27,28
 864.72 528 864.72 528 806.449 465 c 128,-1,29
 748.178 402 748.178 402 637.881 358 c 1,30,31
 699.858 311 699.858 311 721.687 248 c 128,-1,32
 743.516 185 743.516 185 727.596 94 c 0,33,34
 704.678 -37 704.678 -37 599.058 -116 c 128,-1,35
 493.438 -195 493.438 -195 337.737 -195 c 0,36,37
 256.737 -195 256.737 -195 187.099 -181.5 c 128,-1,38
 117.461 -168 117.461 -168 53.2334 -139 c 1,39,-1
 89.7969 70 l 1,40,-1
 172.423 69 l 1,41,42
 160.227 -11 160.227 -11 201.742 -51.5 c 128,-1,43
 243.256 -92 243.256 -92 339.556 -92 c 0,44,45
 433.156 -92 433.156 -92 496.178 -43 c 128,-1,46
 559.201 6 559.201 6 573.896 90 c 0,47,48
 593.665 203 593.665 203 410.682 330 c 0,49,50
 393.881 342 393.881 342 385.03 348 c 0,51,52
 211.974 470 211.974 470 168.394 545 c 128,-1,53
 124.815 620 124.815 620 142.134 719 c 0,54,55
 158.578 813 158.578 813 223.312 879.5 c 128,-1,56
 288.045 946 288.045 946 391.569 977 c 1,57,58
 326.342 1026 326.342 1026 301.812 1089 c 128,-1,59
 277.284 1152 277.284 1152 291.104 1231 c 0,60,61
 313.847 1361 313.847 1361 417.755 1440.5 c 128,-1,62
 521.663 1520 521.663 1520 671.062 1520 c 0,63,64
 741.263 1520 741.263 1520 807.214 1506 c 128,-1,65
 873.164 1492 873.164 1492 935.767 1464 c 1,12,-1
EndSplineSet
EndChar
StartChar: dieresis
Encoding: 168 168 142
Width: 992
Flags: HW
Fore
551.178 1569 m 0,0,1
 594.377 1569 594.377 1569 619.577 1534 c 128,-1,2
 643.877 1500 643.877 1500 635.777 1452 c 0,3,4
 626.777 1401 626.777 1401 591.678 1368 c 128,-1,5
 555.678 1335 555.678 1335 509.777 1335 c 0,6,7
 464.777 1335 464.777 1335 441.377 1368 c 128,-1,8
 417.077 1401 417.077 1401 426.077 1452 c 0,9,10
 434.178 1500 434.178 1500 471.978 1534 c 128,-1,11
 508.877 1569 508.877 1569 551.178 1569 c 0,0,1
902.178 1569 m 0,12,13
 944.478 1569 944.478 1569 969.678 1534 c 128,-1,14
 993.978 1500 993.978 1500 985.877 1452 c 0,15,16
 976.877 1401 976.877 1401 941.777 1368 c 128,-1,17
 905.777 1335 905.777 1335 860.777 1335 c 0,18,19
 814.877 1335 814.877 1335 791.478 1368 c 128,-1,20
 767.178 1401 767.178 1401 776.178 1452 c 0,21,22
 784.277 1500 784.277 1500 822.077 1534 c 128,-1,23
 858.978 1569 858.978 1569 902.178 1569 c 0,12,13
EndSplineSet
LCarets: 0 65535 '    ' 1 0 
Ligature: 0 1 'liga' space uni0308
EndChar
StartChar: copyright
Encoding: 169 169 139
Width: 1945
Flags: HW
Fore
1311.13 573 m 1,0,1
 1263.92 442 1263.92 442 1170.13 371.5 c 128,-1,2
 1076.35 301 1076.35 301 948.55 301 c 0,3,4
 780.25 301 780.25 301 700.894 421 c 128,-1,5
 621.536 541 621.536 541 656.524 741 c 0,6,7
 691.688 942 691.688 942 814.106 1063 c 128,-1,8
 936.524 1184 936.524 1184 1103.02 1184 c 0,9,10
 1175.02 1184 1175.02 1184 1241.54 1165.5 c 128,-1,11
 1308.05 1147 1308.05 1147 1379.53 1108 c 1,12,-1
 1342.26 895 l 1,13,-1
 1266.66 895 l 1,14,15
 1270.43 1004 1270.43 1004 1228.05 1055 c 128,-1,16
 1185.68 1106 1185.68 1106 1091.18 1106 c 0,17,18
 984.078 1106 984.078 1106 913.621 1014.5 c 128,-1,19
 843.164 923 843.164 923 811.324 741 c 0,20,21
 779.659 560 779.659 560 817.828 469.5 c 128,-1,22
 855.996 379 855.996 379 962.195 379 c 0,23,24
 1049.49 379 1049.49 379 1108.66 426.5 c 128,-1,25
 1167.82 474 1167.82 474 1204.03 573 c 1,26,-1
 1311.13 573 l 1,0,1
1153.88 1485 m 0,27,28
 1290.68 1485 1290.68 1485 1399.41 1430 c 128,-1,29
 1508.14 1375 1508.14 1375 1587.17 1266 c 0,30,31
 1666.2 1157 1666.2 1157 1691.89 1026 c 128,-1,32
 1717.56 895 1717.56 895 1690.63 741 c 0,33,34
 1664.03 589 1664.03 589 1592.61 458.5 c 128,-1,35
 1521.17 328 1521.17 328 1404 219 c 0,36,37
 1286.83 110 1286.83 110 1158.86 55 c 128,-1,38
 1030.89 0 1030.89 0 894.093 0 c 0,39,40
 757.293 0 757.293 0 648.563 55 c 128,-1,41
 539.836 110 539.836 110 460.805 219 c 0,42,43
 381.773 328 381.773 328 356.003 458.5 c 128,-1,44
 330.233 589 330.233 589 356.824 741 c 0,45,46
 383.766 895 383.766 895 455.282 1026 c 128,-1,47
 526.8 1157 526.8 1157 643.969 1266 c 0,48,49
 761.138 1375 761.138 1375 889.11 1430 c 128,-1,50
 1017.08 1485 1017.08 1485 1153.88 1485 c 0,27,28
1135.87 1382 m 0,51,52
 1017.97 1382 1017.97 1382 908.04 1335 c 128,-1,53
 798.117 1288 798.117 1288 697.073 1194 c 0,54,55
 597.104 1101 597.104 1101 534.323 986.5 c 128,-1,56
 471.542 872 471.542 872 448.624 741 c 0,57,58
 425.882 611 425.882 611 448.863 498 c 128,-1,59
 471.845 385 471.845 385 539.101 291 c 0,60,61
 607.256 197 607.256 197 700.646 149.5 c 128,-1,62
 794.036 102 794.036 102 911.936 102 c 0,63,64
 1030.74 102 1030.74 102 1141.19 149.5 c 128,-1,65
 1251.66 197 1251.66 197 1352.7 291 c 0,66,67
 1452.67 384 1452.67 384 1514.29 497 c 128,-1,68
 1575.9 610 1575.9 610 1598.83 741 c 0,69,70
 1622.09 874 1622.09 874 1599.64 987.5 c 128,-1,71
 1577.21 1101 1577.21 1101 1510.67 1194 c 0,72,73
 1442.51 1288 1442.51 1288 1348.59 1335 c 128,-1,74
 1254.67 1382 1254.67 1382 1135.87 1382 c 0,51,52
EndSplineSet
EndChar
StartChar: ordfeminine
Encoding: 170 170 157
Width: 923
Flags: HW
Fore
835.362 1219 m 2,0,-1
 769.06 840 l 1,1,-1
 841.06 840 l 1,2,-1
 826.364 756 l 1,3,-1
 621.164 756 l 1,4,-1
 635.159 836 l 1,5,6
 583.038 785 583.038 785 522.589 761 c 128,-1,7
 462.14 737 462.14 737 383.84 737 c 0,8,9
 256.94 737 256.94 737 194.512 802 c 128,-1,10
 132.083 867 132.083 867 151.676 979 c 0,11,12
 171.619 1093 171.619 1093 268.316 1157 c 128,-1,13
 365.012 1221 365.012 1221 518.012 1221 c 2,14,-1
 702.512 1221 l 1,15,-1
 710.384 1266 l 2,16,17
 725.08 1350 725.08 1350 681.102 1397 c 128,-1,18
 637.124 1444 637.124 1444 542.624 1444 c 0,19,20
 464.324 1444 464.324 1444 412.302 1409 c 128,-1,21
 360.279 1374 360.279 1374 335.607 1305 c 1,22,-1
 267.207 1305 l 1,23,-1
 294.674 1462 l 1,24,25
 369.048 1491 369.048 1491 436.384 1505.5 c 128,-1,26
 503.72 1520 503.72 1520 563.12 1520 c 0,27,28
 722.42 1520 722.42 1520 791.75 1443 c 128,-1,29
 861.079 1366 861.079 1366 835.362 1219 c 2,0,-1
663.325 997 m 2,30,-1
 689.217 1145 l 1,31,-1
 520.018 1145 l 2,32,33
 425.518 1145 425.518 1145 369.919 1105 c 128,-1,34
 314.321 1065 314.321 1065 300.677 987 c 0,35,36
 286.506 906 286.506 906 324.521 863.5 c 128,-1,37
 362.535 821 362.535 821 449.835 821 c 0,38,39
 532.635 821 532.635 821 591.07 869.5 c 128,-1,40
 649.505 918 649.505 918 663.325 997 c 2,30,-1
129.097 639 m 1,41,-1
 757.296 639 l 1,42,-1
 739.103 535 l 1,43,-1
 110.902 535 l 1,44,-1
 129.097 639 l 1,41,-1
EndSplineSet
EndChar
StartChar: guillemotleft
Encoding: 171 171 169
Width: 1192
Flags: HW
Fore
1100.21 1059 m 1,0,-1
 1080.1 944 l 1,1,-1
 752.612 600 l 1,2,-1
 959.732 256 l 1,3,-1
 939.613 141 l 1,4,-1
 590.64 559 l 1,5,-1
 604.985 641 l 1,6,-1
 1100.21 1059 l 1,0,-1
709.611 1059 m 1,7,-1
 689.493 944 l 1,8,-1
 362.013 600 l 1,9,-1
 569.132 256 l 1,10,-1
 549.014 141 l 1,11,-1
 200.039 559 l 1,12,-1
 214.386 641 l 1,13,-1
 709.611 1059 l 1,7,-1
EndSplineSet
EndChar
StartChar: logicalnot
Encoding: 172 172 164
Width: 1634
Flags: HW
Fore
335.41 862 m 1,0,-1
 1489.21 862 l 1,1,-1
 1388.62 287 l 1,2,-1
 1244.62 287 l 1,3,-1
 1316.87 700 l 1,4,-1
 307.069 700 l 1,5,-1
 335.41 862 l 1,0,-1
EndSplineSet
EndChar
StartChar: sfthyphen
Encoding: 173 173 256
Width: 657
Flags: HW
Fore
129.246 627 m 1,0,-1
 590.046 627 l 1,1,-1
 562.754 471 l 1,2,-1
 101.954 471 l 1,3,-1
 129.246 627 l 1,0,-1
EndSplineSet
EndChar
StartChar: registered
Encoding: 174 174 138
Width: 1945
Flags: HW
Fore
916.372 791 m 1,0,-1
 1028.87 791 l 2,1,2
 1103.57 791 1103.57 791 1147.57 829 c 128,-1,3
 1191.57 867 1191.57 867 1204.69 942 c 0,4,5
 1217.63 1016 1217.63 1016 1186.48 1054 c 128,-1,6
 1155.33 1092 1155.33 1092 1081.53 1092 c 2,7,-1
 969.029 1092 l 1,8,-1
 916.372 791 l 1,0,-1
1131.3 754 m 1,9,10
 1166.65 740 1166.65 740 1188.74 714.5 c 128,-1,11
 1210.83 689 1210.83 689 1221.83 649 c 2,12,-1
 1286.17 420 l 1,13,-1
 1354.57 420 l 1,14,-1
 1342.67 352 l 1,15,-1
 1171.67 352 l 1,16,-1
 1098.21 606 l 1,17,18
 1078.95 676 1078.95 676 1055.16 699.5 c 128,-1,19
 1031.38 723 1031.38 723 987.276 723 c 2,20,-1
 904.476 723 l 1,21,-1
 851.468 420 l 1,22,-1
 927.067 420 l 1,23,-1
 915.172 352 l 1,24,-1
 629.872 352 l 1,25,-1
 641.768 420 l 1,26,-1
 716.468 420 l 1,27,-1
 834.029 1092 l 1,28,-1
 759.329 1092 l 1,29,-1
 771.05 1159 l 1,30,-1
 1144.55 1159 l 2,31,32
 1259.75 1159 1259.75 1159 1308.45 1103 c 128,-1,33
 1357.16 1047 1357.16 1047 1338.09 938 c 0,34,35
 1323.57 855 1323.57 855 1272.41 809.5 c 128,-1,36
 1221.25 764 1221.25 764 1131.3 754 c 1,9,10
1135.87 1382 m 0,37,38
 1017.97 1382 1017.97 1382 908.04 1335 c 128,-1,39
 798.117 1288 798.117 1288 697.073 1194 c 0,40,41
 597.104 1101 597.104 1101 534.323 986.5 c 128,-1,42
 471.542 872 471.542 872 448.624 741 c 0,43,44
 425.882 611 425.882 611 448.863 498 c 128,-1,45
 471.845 385 471.845 385 539.101 291 c 0,46,47
 607.256 197 607.256 197 700.646 149.5 c 128,-1,48
 794.036 102 794.036 102 911.936 102 c 0,49,50
 1030.74 102 1030.74 102 1141.19 149.5 c 128,-1,51
 1251.66 197 1251.66 197 1352.7 291 c 0,52,53
 1452.67 384 1452.67 384 1514.29 497 c 128,-1,54
 1575.9 610 1575.9 610 1598.83 741 c 0,55,56
 1622.09 874 1622.09 874 1599.64 987.5 c 128,-1,57
 1577.21 1101 1577.21 1101 1510.67 1194 c 0,58,59
 1442.51 1288 1442.51 1288 1348.59 1335 c 128,-1,60
 1254.67 1382 1254.67 1382 1135.87 1382 c 0,37,38
1153.88 1485 m 0,61,62
 1290.68 1485 1290.68 1485 1399.41 1430 c 128,-1,63
 1508.14 1375 1508.14 1375 1587.17 1266 c 0,64,65
 1666.2 1157 1666.2 1157 1691.89 1026 c 128,-1,66
 1717.56 895 1717.56 895 1690.63 741 c 0,67,68
 1664.03 589 1664.03 589 1592.61 458.5 c 128,-1,69
 1521.17 328 1521.17 328 1404 219 c 0,70,71
 1286.83 110 1286.83 110 1158.86 55 c 128,-1,72
 1030.89 0 1030.89 0 894.093 0 c 0,73,74
 757.293 0 757.293 0 648.563 55 c 128,-1,75
 539.836 110 539.836 110 460.805 219 c 0,76,77
 381.773 328 381.773 328 356.003 458.5 c 128,-1,78
 330.233 589 330.233 589 356.824 741 c 0,79,80
 383.766 895 383.766 895 455.282 1026 c 128,-1,81
 526.8 1157 526.8 1157 643.969 1266 c 0,82,83
 761.138 1375 761.138 1375 889.11 1430 c 128,-1,84
 1017.08 1485 1017.08 1485 1153.88 1485 c 0,61,62
EndSplineSet
EndChar
StartChar: macron
Encoding: 175 175 217
Width: 989
Flags: HW
Fore
424.5 1526 m 1,0,-1
 962.7 1526 l 1,1,-1
 937.5 1378 l 1,2,-1
 399.3 1378 l 1,3,-1
 424.5 1526 l 1,0,-1
EndSplineSet
LCarets: 0 65535 '    ' 1 0 
Ligature: 0 1 'liga' space uni0304
EndChar
StartChar: degree
Encoding: 176 176 131
Width: 972
Flags: HW
Fore
543.338 1382 m 0,0,1
 474.938 1382 474.938 1382 418.953 1329.5 c 128,-1,2
 362.968 1277 362.968 1277 349.498 1200 c 0,3,4
 336.202 1124 336.202 1124 373.631 1073 c 128,-1,5
 411.058 1022 411.058 1022 480.357 1022 c 0,6,7
 548.758 1022 548.758 1022 604.567 1073.5 c 128,-1,8
 660.378 1125 660.378 1125 673.498 1200 c 0,9,10
 686.619 1275 686.619 1275 648.278 1328.5 c 128,-1,11
 609.938 1382 609.938 1382 543.338 1382 c 0,0,1
567.479 1520 m 0,12,13
 625.08 1520 625.08 1520 673.893 1495.5 c 128,-1,14
 722.707 1471 722.707 1471 753.36 1425 c 1,15,16
 786.888 1380 786.888 1380 797.616 1323 c 128,-1,17
 808.344 1266 808.344 1266 796.798 1200 c 0,18,19
 773.705 1068 773.705 1068 674.448 976.5 c 128,-1,20
 575.19 885 575.19 885 454.591 885 c 0,21,22
 333.091 885 333.091 885 267.835 975 c 128,-1,23
 202.58 1065 202.58 1065 226.198 1200 c 0,24,25
 249.64 1334 249.64 1334 348.71 1427 c 128,-1,26
 447.779 1520 447.779 1520 567.479 1520 c 0,12,13
EndSplineSet
EndChar
StartChar: plusminus
Encoding: 177 177 147
Width: 1626
Flags: HW
Fore
1038.51 1284 m 1,0,-1
 970.11 893 l 1,1,-1
 1475.01 893 l 1,2,-1
 1446.67 731 l 1,3,-1
 941.77 731 l 1,4,-1
 873.367 340 l 1,5,-1
 729.367 340 l 1,6,-1
 797.77 731 l 1,7,-1
 292.87 731 l 1,8,-1
 321.21 893 l 1,9,-1
 826.11 893 l 1,10,-1
 894.513 1284 l 1,11,-1
 1038.51 1284 l 1,0,-1
192.978 160 m 1,12,-1
 1346.78 160 l 1,13,-1
 1318.79 0 l 1,14,-1
 164.987 0 l 1,15,-1
 192.978 160 l 1,12,-1
EndSplineSet
EndChar
StartChar: twosuperior
Encoding: 178 178 241
Width: 775
Flags: HW
Fore
224.965 1296 m 1,0,-1
 161.965 1296 l 1,1,-1
 189.605 1454 l 1,2,3
 254.604 1486 254.604 1486 320.578 1503 c 128,-1,4
 386.552 1520 386.552 1520 448.651 1520 c 0,5,6
 572.852 1520 572.852 1520 638.256 1454 c 128,-1,7
 703.658 1388 703.658 1388 685.466 1284 c 0,8,9
 664.123 1162 664.123 1162 459.083 988 c 2,10,-1
 439.008 971 l 1,11,-1
 187.196 756 l 1,12,-1
 533.696 756 l 1,13,-1
 552.59 864 l 1,14,-1
 619.19 864 l 1,15,-1
 584.901 668 l 1,16,-1
 43.1016 668 l 1,17,-1
 56.2217 743 l 1,18,-1
 357.158 997 l 2,19,20
 448.027 1074 448.027 1074 491.999 1135 c 128,-1,21
 535.971 1196 535.971 1196 547.517 1262 c 0,22,23
 562.387 1347 562.387 1347 527.396 1396.5 c 128,-1,24
 492.406 1446 492.406 1446 416.806 1446 c 0,25,26
 346.606 1446 346.606 1446 297.658 1408 c 128,-1,27
 248.71 1370 248.71 1370 224.965 1296 c 1,0,-1
EndSplineSet
EndChar
StartChar: threesuperior
Encoding: 179 179 242
Width: 776
Flags: HW
Fore
216.896 1468 m 1,0,1
 287.144 1494 287.144 1494 349.718 1507 c 128,-1,2
 412.292 1520 412.292 1520 465.393 1520 c 0,3,4
 589.593 1520 589.593 1520 647.196 1466 c 128,-1,5
 704.799 1412 704.799 1412 687.479 1313 c 0,6,7
 674.884 1241 674.884 1241 618.436 1191 c 128,-1,8
 561.989 1141 561.989 1141 473.515 1124 c 1,9,10
 577.816 1108 577.816 1108 621.856 1048.5 c 128,-1,11
 665.898 989 665.898 989 648.404 889 c 0,12,13
 628.46 775 628.46 775 539.039 714 c 128,-1,14
 449.617 653 449.617 653 302.917 653 c 0,15,16
 238.117 653 238.117 653 178.017 667 c 128,-1,17
 117.916 681 117.916 681 61.6143 709 c 1,18,-1
 91.3545 879 l 1,19,-1
 154.18 878 l 1,20,21
 145.734 804 145.734 804 183.099 765.5 c 128,-1,22
 220.463 727 220.463 727 303.263 727 c 0,23,24
 387.863 727 387.863 727 441.461 771 c 128,-1,25
 495.059 815 495.059 815 509.403 897 c 0,26,27
 525.673 990 525.673 990 488.083 1037.5 c 128,-1,28
 450.492 1085 450.492 1085 359.592 1085 c 2,29,-1
 311.892 1085 l 1,30,-1
 324.839 1159 l 1,31,-1
 349.139 1159 l 2,32,33
 436.438 1159 436.438 1159 487.46 1196 c 128,-1,34
 538.484 1233 538.484 1233 551.43 1307 c 0,35,36
 563.151 1374 563.151 1374 532.999 1410 c 128,-1,37
 502.847 1446 502.847 1446 434.447 1446 c 0,38,39
 360.646 1446 360.646 1446 315.897 1414 c 128,-1,40
 271.15 1382 271.15 1382 253.479 1317 c 1,41,-1
 190.479 1317 l 1,42,-1
 216.896 1468 l 1,0,1
EndSplineSet
EndChar
StartChar: acute
Encoding: 180 180 141
Width: 1000
Flags: HW
Fore
851.35 1638 m 1,0,-1
 1030.45 1638 l 1,1,-1
 657.85 1262 l 1,2,-1
 552.55 1262 l 1,3,-1
 851.35 1638 l 1,0,-1
EndSplineSet
LCarets: 0 65535 '    ' 1 0 
Ligature: 0 1 'liga' space acutecomb
EndChar
StartChar: mu
Encoding: 181 181 151
Width: 1255
Flags: HW
Fore
852.444 1063 m 1,0,-1
 1162.05 1063 l 1,1,-1
 994.279 104 l 1,2,-1
 1150.88 104 l 1,3,-1
 1132.68 0 l 1,4,-1
 810.481 0 l 1,5,-1
 843.371 188 l 1,6,7
 778.026 82 778.026 82 702.167 26.5 c 128,-1,8
 626.308 -29 626.308 -29 545.308 -29 c 0,9,10
 494.008 -29 494.008 -29 454.857 -11 c 128,-1,11
 415.705 7 415.705 7 386.903 43 c 1,12,-1
 323.575 -319 l 1,13,-1
 480.175 -319 l 1,14,-1
 461.456 -426 l 1,15,-1
 -20.0439 -426 l 1,16,-1
 -1.3252 -319 l 1,17,-1
 157.975 -319 l 1,18,-1
 381.025 956 l 1,19,-1
 231.626 956 l 1,20,-1
 250.345 1063 l 1,21,-1
 565.345 1063 l 1,22,-1
 457.056 444 l 2,23,24
 423.117 250 423.117 250 453.721 178 c 128,-1,25
 484.325 106 484.325 106 593.225 106 c 0,26,27
 708.425 106 708.425 106 785.17 200 c 128,-1,28
 861.913 294 861.913 294 893.229 473 c 2,29,-1
 977.729 956 l 1,30,-1
 833.726 956 l 1,31,-1
 852.444 1063 l 1,0,-1
EndSplineSet
EndChar
StartChar: paragraph
Encoding: 182 182 136
Width: 1250
Flags: HW
Fore
795.814 1493 m 2,0,-1
 1280.01 1493 l 1,1,-1
 1261.29 1386 l 1,2,-1
 1155.09 1386 l 1,3,-1
 878.162 -197 l 1,4,-1
 781.862 -197 l 1,5,-1
 1058.79 1386 l 1,6,-1
 850.896 1386 l 1,7,-1
 573.963 -197 l 1,8,-1
 477.662 -197 l 1,9,-1
 625.663 649 l 1,10,11
 435.138 666 435.138 666 348.719 776.5 c 128,-1,12
 262.3 887 262.3 887 294.489 1071 c 0,13,14
 327.728 1261 327.728 1261 465.021 1377 c 128,-1,15
 602.314 1493 602.314 1493 795.814 1493 c 2,0,-1
EndSplineSet
EndChar
StartChar: periodcentered
Encoding: 183 183 195
Width: 618
Flags: HW
Fore
203.34 711 m 0,0,1
 213.138 767 213.138 767 254.522 805.5 c 128,-1,2
 295.908 844 295.908 844 347.208 844 c 0,3,4
 396.708 844 396.708 844 424.984 805 c 128,-1,5
 453.262 766 453.262 766 443.641 711 c 0,6,7
 433.843 655 433.843 655 392.008 616.5 c 128,-1,8
 350.173 578 350.173 578 300.673 578 c 0,9,10
 249.372 578 249.372 578 221.371 616 c 128,-1,11
 193.368 654 193.368 654 203.34 711 c 0,0,1
EndSplineSet
EndChar
StartChar: cedilla
Encoding: 184 184 221
Width: 969
Flags: HW
Fore
602.748 0 m 1,0,1
 649.152 -64 649.152 -64 667.704 -120 c 128,-1,2
 686.258 -176 686.258 -176 677.686 -225 c 0,3,4
 663.516 -306 663.516 -306 599.031 -350.5 c 128,-1,5
 534.546 -395 534.546 -395 433.746 -395 c 0,6,7
 395.946 -395 395.946 -395 357.396 -389 c 128,-1,8
 318.845 -383 318.845 -383 279.545 -371 c 1,9,-1
 302.462 -240 l 1,10,11
 336.389 -257 336.389 -257 370.451 -265.5 c 128,-1,12
 404.514 -274 404.514 -274 436.014 -274 c 0,13,14
 487.314 -274 487.314 -274 521.649 -247.5 c 128,-1,15
 555.985 -221 555.985 -221 563.858 -176 c 0,16,17
 568.757 -148 568.757 -148 556.654 -104 c 128,-1,18
 544.552 -60 544.552 -60 515.448 0 c 1,19,-1
 602.748 0 l 1,0,1
EndSplineSet
Ligature: 0 1 'liga' space uni0327
EndChar
StartChar: onesuperior
Encoding: 185 185 240
Width: 773
Flags: HW
Fore
119.963 668 m 1,0,-1
 134.657 752 l 1,1,-1
 289.458 752 l 1,2,-1
 400.371 1386 l 1,3,-1
 200.928 1280 l 1,4,-1
 217.372 1374 l 1,5,-1
 455.938 1503 l 1,6,-1
 547.738 1503 l 1,7,-1
 416.357 752 l 1,8,-1
 572.058 752 l 1,9,-1
 557.363 668 l 1,10,-1
 119.963 668 l 1,0,-1
EndSplineSet
EndChar
StartChar: ordmasculine
Encoding: 186 186 158
Width: 913
Flags: HW
Fore
442.311 813 m 0,0,1
 537.711 813 537.711 813 599.769 892.5 c 128,-1,2
 661.826 972 661.826 972 689.117 1128 c 0,3,4
 716.407 1284 716.407 1284 681.804 1364 c 128,-1,5
 647.198 1444 647.198 1444 552.698 1444 c 0,6,7
 459.099 1444 459.099 1444 395.879 1363 c 128,-1,8
 332.658 1282 332.658 1282 305.717 1128 c 0,9,10
 278.601 973 278.601 973 313.205 893 c 128,-1,11
 347.811 813 347.811 813 442.311 813 c 0,0,1
429.015 737 m 0,12,13
 271.514 737 271.514 737 194.922 844.5 c 128,-1,14
 118.327 952 118.327 952 149.117 1128 c 0,15,16
 180.081 1305 180.081 1305 294.288 1412.5 c 128,-1,17
 408.494 1520 408.494 1520 565.994 1520 c 0,18,19
 723.494 1520 723.494 1520 800.088 1412.5 c 128,-1,20
 876.682 1305 876.682 1305 845.717 1128 c 0,21,22
 814.752 951 814.752 951 701.083 844 c 128,-1,23
 587.414 737 587.414 737 429.015 737 c 0,12,13
102.271 639 m 1,24,-1
 721.47 639 l 1,25,-1
 703.276 535 l 1,26,-1
 84.0762 535 l 1,27,-1
 102.271 639 l 1,24,-1
EndSplineSet
EndChar
StartChar: guillemotright
Encoding: 187 187 170
Width: 1188
Flags: HW
Fore
704.986 1059 m 1,0,-1
 1053.96 641 l 1,1,-1
 1039.61 559 l 1,2,-1
 544.389 141 l 1,3,-1
 564.507 256 l 1,4,-1
 891.987 600 l 1,5,-1
 684.868 944 l 1,6,-1
 704.986 1059 l 1,0,-1
314.387 1059 m 1,7,-1
 663.36 641 l 1,8,-1
 649.015 559 l 1,9,-1
 153.788 141 l 1,10,-1
 173.907 256 l 1,11,-1
 500.487 600 l 1,12,-1
 294.268 944 l 1,13,-1
 314.387 1059 l 1,7,-1
EndSplineSet
EndChar
StartChar: questiondown
Encoding: 191 191 162
Width: 1036
Flags: HW
Fore
861.114 1389 m 0,0,1
 851.318 1333 851.318 1333 809.845 1294 c 128,-1,2
 768.372 1255 768.372 1255 717.972 1255 c 0,3,4
 668.472 1255 668.472 1255 640.195 1294 c 128,-1,5
 611.918 1333 611.918 1333 621.715 1389 c 0,6,7
 631.336 1444 631.336 1444 673.259 1483 c 128,-1,8
 715.182 1522 715.182 1522 764.682 1522 c 0,9,10
 815.982 1522 815.982 1522 843.445 1483.5 c 128,-1,11
 870.911 1445 870.911 1445 861.114 1389 c 0,0,1
828.566 66 m 1,12,13
 724.943 19 724.943 19 635.42 -4 c 128,-1,14
 545.896 -27 545.896 -27 469.396 -27 c 0,15,16
 270.496 -27 270.496 -27 173.115 80 c 128,-1,17
 75.7334 187 75.7334 187 107.573 369 c 0,18,19
 140.112 555 140.112 555 260.656 673 c 128,-1,20
 381.198 791 381.198 791 590.821 842 c 1,21,-1
 635.256 1096 l 1,22,-1
 745.956 1096 l 1,23,-1
 688.574 768 l 1,24,25
 521.752 725 521.752 725 423.083 624 c 128,-1,26
 324.414 523 324.414 523 297.123 367 c 0,27,28
 273.156 230 273.156 230 325.485 151 c 128,-1,29
 377.815 72 377.815 72 491.215 72 c 0,30,31
 592.915 72 592.915 72 670.074 137.5 c 128,-1,32
 747.232 203 747.232 203 787.65 326 c 1,33,-1
 874.05 326 l 1,34,-1
 828.566 66 l 1,12,13
EndSplineSet
EndChar
StartChar: Aring
Encoding: 197 197 99
Width: 1388
Flags: HW
Fore
973.375 1626 m 0,0,1
 984.399 1689 984.399 1689 952.135 1733.5 c 128,-1,2
 919.869 1778 919.869 1778 863.17 1778 c 0,3,4
 805.569 1778 805.569 1778 758.811 1734.5 c 128,-1,5
 712.049 1691 712.049 1691 700.678 1626 c 0,6,7
 689.656 1563 689.656 1563 721.109 1519 c 128,-1,8
 752.562 1475 752.562 1475 810.161 1475 c 0,9,10
 866.861 1475 866.861 1475 914.609 1519 c 128,-1,11
 962.358 1563 962.358 1563 973.375 1626 c 0,0,1
354.266 541 m 1,12,-1
 845.665 541 l 1,13,-1
 725.074 1251 l 1,14,-1
 354.266 541 l 1,12,-1
-120.179 0 m 1,15,-1
 -101.634 106 l 1,16,-1
 16.2656 106 l 1,17,-1
 679.942 1384 l 1,18,19
 621.615 1421 621.615 1421 598.536 1482 c 128,-1,20
 575.458 1543 575.458 1543 589.979 1626 c 0,21,22
 609.921 1740 609.921 1740 696.005 1820.5 c 128,-1,23
 782.088 1901 782.088 1901 884.688 1901 c 0,24,25
 987.289 1901 987.289 1901 1045.65 1820.5 c 128,-1,26
 1104.02 1740 1104.02 1740 1084.07 1626 c 0,27,28
 1070.08 1546 1070.08 1546 1023.87 1482.5 c 128,-1,29
 977.668 1419 977.668 1419 906.742 1384 c 1,30,-1
 1125.97 106 l 1,31,-1
 1258.27 106 l 1,32,-1
 1239.72 0 l 1,33,-1
 751.021 0 l 1,34,-1
 769.566 106 l 1,35,-1
 918.966 106 l 1,36,-1
 863.848 434 l 1,37,-1
 298.647 434 l 1,38,-1
 128.766 106 l 1,39,-1
 276.366 106 l 1,40,-1
 257.821 0 l 1,41,-1
 -120.179 0 l 1,15,-1
EndSplineSet
LCarets: 0 65535 '    ' 1 0 
Ligature: 0 0 'liga' A uni030A
EndChar
StartChar: AE
Encoding: 198 198 144
Width: 1939
Flags: HW
Fore
442.049 541 m 1,0,-1
 882.149 541 l 1,1,-1
 1029.98 1386 l 1,2,-1
 939.977 1386 l 1,3,-1
 442.049 541 l 1,0,-1
616.506 0 m 1,4,-1
 635.049 106 l 1,5,-1
 806.049 106 l 1,6,-1
 863.431 434 l 1,7,-1
 379.23 434 l 1,8,-1
 185.049 106 l 1,9,-1
 332.648 106 l 1,10,-1
 314.106 0 l 1,11,-1
 -67.4941 0 l 1,12,-1
 -48.9512 106 l 1,13,-1
 68.9492 106 l 1,14,-1
 823.876 1386 l 1,15,-1
 630.376 1386 l 1,16,-1
 649.094 1493 l 1,17,-1
 1959.49 1493 l 1,18,-1
 1901.41 1161 l 1,19,-1
 1790.71 1161 l 1,20,-1
 1827.28 1370 l 1,21,-1
 1208.08 1370 l 1,22,-1
 1120.61 870 l 1,23,-1
 1563.41 870 l 1,24,-1
 1596.12 1057 l 1,25,-1
 1706.82 1057 l 1,26,-1
 1620.05 561 l 1,27,-1
 1509.35 561 l 1,28,-1
 1542.06 748 l 1,29,-1
 1099.26 748 l 1,30,-1
 989.924 123 l 1,31,-1
 1624.42 123 l 1,32,-1
 1660.99 332 l 1,33,-1
 1771.69 332 l 1,34,-1
 1713.61 0 l 1,35,-1
 616.506 0 l 1,4,-1
EndSplineSet
KernsSLIF: 45 38 0 0
EndChar
StartChar: Eth
Encoding: 208 208 232
Width: 1564
Flags: HW
Fore
427.106 106 m 1,0,-1
 596.307 106 l 2,1,2
 858.207 106 858.207 106 1027.65 272 c 128,-1,3
 1197.08 438 1197.08 438 1251.32 748 c 0,4,5
 1305.55 1058 1305.55 1058 1194.29 1222 c 128,-1,6
 1083.04 1386 1083.04 1386 820.234 1386 c 2,7,-1
 651.034 1386 l 1,8,-1
 556.215 844 l 1,9,-1
 858.614 844 l 1,10,-1
 836.746 719 l 1,11,-1
 534.347 719 l 1,12,-1
 427.106 106 l 1,0,-1
56.6641 0 m 1,13,-1
 75.207 106 l 1,14,-1
 246.207 106 l 1,15,-1
 353.446 719 l 1,16,-1
 173.446 719 l 1,17,-1
 195.314 844 l 1,18,-1
 375.314 844 l 1,19,-1
 470.134 1386 l 1,20,-1
 299.134 1386 l 1,21,-1
 317.852 1493 l 1,22,-1
 852.451 1493 l 2,23,24
 1199.85 1493 1199.85 1493 1359.34 1296 c 128,-1,25
 1518.83 1099 1518.83 1099 1457.42 748 c 0,26,27
 1395.84 396 1395.84 396 1166.8 198 c 128,-1,28
 937.764 0 937.764 0 591.264 0 c 2,29,-1
 56.6641 0 l 1,13,-1
EndSplineSet
KernsSLIF: 221 -36 0 0 193 -36 0 0 194 -36 0 0 376 -36 0 0 195 -36 0 0 192 -36 0 0 196 -36 0 0 89 -36 0 0 86 -36 0 0 65 -36 0 0 46 -73 0 0 45 75 0 0 44 -73 0 0
EndChar
StartChar: multiply
Encoding: 215 215 239
Width: 1630
Flags: HW
Fore
1457.18 1104 m 1,0,-1
 959.478 641 l 1,1,-1
 1295.53 180 l 1,2,-1
 1172.44 68 l 1,3,-1
 838.009 528 l 1,4,-1
 342.636 68 l 1,5,-1
 259.63 180 l 1,6,-1
 754.277 641 l 1,7,-1
 421.275 1104 l 1,8,-1
 543.646 1217 l 1,9,-1
 877.896 756 l 1,10,-1
 1373.44 1217 l 1,11,-1
 1457.18 1104 l 1,0,-1
EndSplineSet
EndChar
StartChar: Oslash
Encoding: 216 216 145
Width: 1594
Flags: HW
Fore
1262.49 1239 m 1,0,1
 1219.39 1327 1219.39 1327 1143.66 1370 c 128,-1,2
 1067.93 1413 1067.93 1413 956.33 1413 c 0,3,4
 734.93 1413 734.93 1413 592.952 1244.5 c 128,-1,5
 450.974 1076 450.974 1076 393.067 745 c 0,6,7
 372.25 626 372.25 626 369.768 529.5 c 128,-1,8
 367.286 433 367.286 433 383.716 352 c 1,9,-1
 1262.49 1239 l 1,0,1
414.621 256 m 1,10,11
 456.65 167 456.65 167 533.467 122.5 c 128,-1,12
 610.281 78 610.281 78 722.781 78 c 0,13,14
 943.281 78 943.281 78 1085.26 246.5 c 128,-1,15
 1227.23 415 1227.23 415 1284.97 745 c 0,16,17
 1305.44 862 1305.44 862 1307.82 960.5 c 128,-1,18
 1310.2 1059 1310.2 1059 1293.94 1141 c 1,19,-1
 414.621 256 l 1,10,11
1428.26 1276 m 1,20,21
 1487.67 1168 1487.67 1168 1503.81 1036.5 c 128,-1,22
 1519.96 905 1519.96 905 1491.97 745 c 0,23,24
 1431.62 400 1431.62 400 1213.64 185.5 c 128,-1,25
 995.664 -29 995.664 -29 704.062 -29 c 0,26,27
 577.162 -29 577.162 -29 477.585 14 c 128,-1,28
 378.008 57 378.008 57 302.152 143 c 1,29,-1
 103.364 -57 l 1,30,-1
 45.2354 12 l 1,31,-1
 249.749 219 l 1,32,33
 189.817 324 189.817 324 174.397 454.5 c 128,-1,34
 158.977 585 158.977 585 186.968 745 c 0,35,36
 247.498 1091 247.498 1091 465.923 1305.5 c 128,-1,37
 684.349 1520 684.349 1520 975.049 1520 c 0,38,39
 1101.95 1520 1101.95 1520 1202.51 1477.5 c 128,-1,40
 1303.08 1435 1303.08 1435 1374.96 1352 c 1,41,-1
 1569.79 1550 l 1,42,-1
 1629.37 1479 l 1,43,-1
 1428.26 1276 l 1,20,21
EndSplineSet
KernsSLIF: 88 -36 0 0 86 -36 0 0 46 -120 0 0 45 75 0 0 44 -120 0 0
EndChar
StartChar: Thorn
Encoding: 222 222 236
Width: 1309
Flags: HW
Fore
464.866 434 m 1,0,-1
 702.466 434 l 2,1,2
 836.565 434 836.565 434 920.848 514.5 c 128,-1,3
 1005.13 595 1005.13 595 1031.9 748 c 0,4,5
 1058.49 900 1058.49 900 1002.38 980.5 c 128,-1,6
 946.255 1061 946.255 1061 812.155 1061 c 2,7,-1
 574.555 1061 l 1,8,-1
 464.866 434 l 1,0,-1
35.2412 0 m 1,9,-1
 53.7842 106 l 1,10,-1
 224.784 106 l 1,11,-1
 448.712 1386 l 1,12,-1
 277.712 1386 l 1,13,-1
 296.429 1493 l 1,14,-1
 858.029 1493 l 1,15,-1
 839.312 1386 l 1,16,-1
 631.412 1386 l 1,17,-1
 593.099 1167 l 1,18,-1
 874.799 1167 l 2,19,20
 1076.4 1167 1076.4 1167 1174.44 1053.5 c 128,-1,21
 1272.48 940 1272.48 940 1238.9 748 c 0,22,23
 1204.96 554 1204.96 554 1066.66 440 c 128,-1,24
 928.372 326 928.372 326 727.672 326 c 2,25,-1
 445.972 326 l 1,26,-1
 407.484 106 l 1,27,-1
 615.385 106 l 1,28,-1
 596.842 0 l 1,29,-1
 35.2412 0 l 1,9,-1
EndSplineSet
KernsSLIF: 46 -339 0 0 45 38 0 0 44 -339 0 0
EndChar
StartChar: germandbls
Encoding: 223 223 137
Width: 1286
Flags: HW
Fore
979.721 1210 m 1,0,1
 993.338 1329 993.338 1329 942.073 1393.5 c 128,-1,2
 890.807 1458 890.807 1458 783.707 1458 c 0,3,4
 664.907 1458 664.907 1458 598.724 1393.5 c 128,-1,5
 532.539 1329 532.539 1329 508.223 1190 c 2,6,-1
 300.041 0 l 1,7,-1
 -24.8584 0 l 1,8,-1
 -6.31445 106 l 1,9,-1
 152.985 106 l 1,10,-1
 341.923 1186 l 2,11,12
 372.713 1362 372.713 1362 492.731 1459 c 128,-1,13
 612.752 1556 612.752 1556 800.852 1556 c 0,14,15
 992.555 1556 992.555 1556 1074.71 1452 c 128,-1,16
 1156.87 1348 1156.87 1348 1130.75 1137 c 1,17,-1
 1110.95 1137 l 2,18,19
 980.449 1137 980.449 1137 895.854 1083 c 128,-1,20
 811.257 1029 811.257 1029 794.986 936 c 0,21,22
 785.891 884 785.891 884 803.455 845.5 c 128,-1,23
 821.019 807 821.019 807 878.497 760 c 1,24,-1
 948.976 705 l 1,25,26
 1071.15 606 1071.15 606 1109.83 521 c 128,-1,27
 1148.52 436 1148.52 436 1128.57 322 c 0,28,29
 1101.45 167 1101.45 167 980.359 69 c 128,-1,30
 859.268 -29 859.268 -29 692.768 -29 c 0,31,32
 616.268 -29 616.268 -29 543.904 -10.5 c 128,-1,33
 471.541 8 471.541 8 406.563 43 c 1,34,-1
 447.324 276 l 1,35,-1
 545.425 276 l 1,36,37
 531.355 175 531.355 175 572.121 122.5 c 128,-1,38
 612.887 70 612.887 70 704.687 70 c 0,39,40
 804.587 70 804.587 70 872.32 130.5 c 128,-1,41
 940.055 191 940.055 191 958.246 295 c 0,42,43
 972.943 379 972.943 379 947.179 437.5 c 128,-1,44
 921.412 496 921.412 496 828.883 569 c 2,45,-1
 760.93 623 l 2,46,47
 678.701 688 678.701 688 649.936 752.5 c 128,-1,48
 621.169 817 621.169 817 635.515 899 c 0,49,50
 656.857 1021 656.857 1021 747.252 1103 c 128,-1,51
 837.648 1185 837.648 1185 979.721 1210 c 1,0,1
EndSplineSet
EndChar
StartChar: ae
Encoding: 230 230 160
Width: 1826
Flags: HW
Fore
793.323 334 m 2,0,-1
 832.686 559 l 1,1,-1
 619.386 559 l 2,2,3
 496.086 559 496.086 559 425.464 500 c 128,-1,4
 354.842 441 354.842 441 333.499 319 c 0,5,6
 314.081 208 314.081 208 363.909 143 c 128,-1,7
 413.738 78 413.738 78 518.139 78 c 0,8,9
 621.639 78 621.639 78 697.509 149 c 128,-1,10
 773.38 220 773.38 220 793.323 334 c 2,0,-1
859.234 150 m 1,11,12
 768.614 59 768.614 59 670.018 15 c 128,-1,13
 571.42 -29 571.42 -29 458.92 -29 c 0,14,15
 281.619 -29 281.619 -29 200.789 62 c 128,-1,16
 119.959 153 119.959 153 148.999 319 c 0,17,18
 177.864 484 177.864 484 301.334 575 c 128,-1,19
 424.805 666 424.805 666 619.205 666 c 2,20,-1
 851.405 666 l 1,21,-1
 864.175 739 l 2,22,23
 885.168 859 885.168 859 832.089 926 c 128,-1,24
 779.011 993 779.011 993 663.81 993 c 0,25,26
 559.411 993 559.411 993 491.351 943.5 c 128,-1,27
 423.291 894 423.291 894 391.571 795 c 1,28,-1
 306.071 795 l 1,29,-1
 343.685 1010 l 1,30,31
 437.257 1051 437.257 1051 522.294 1071.5 c 128,-1,32
 607.329 1092 607.329 1092 684.729 1092 c 0,33,34
 811.63 1092 811.63 1092 890.869 1048.5 c 128,-1,35
 970.109 1005 970.109 1005 1003.86 915 c 1,36,37
 1085.86 1003 1085.86 1003 1180.04 1047.5 c 128,-1,38
 1274.23 1092 1274.23 1092 1379.53 1092 c 0,39,40
 1596.43 1092 1596.43 1092 1686.47 943 c 128,-1,41
 1776.49 794 1776.49 794 1730.76 512 c 1,42,-1
 1017.96 512 l 1,43,-1
 1016.56 504 l 2,44,45
 978.951 289 978.951 289 1032.25 179.5 c 128,-1,46
 1085.54 70 1085.54 70 1228.64 70 c 0,47,48
 1337.54 70 1337.54 70 1418.4 133.5 c 128,-1,49
 1499.26 197 1499.26 197 1549.03 322 c 1,50,-1
 1681.33 322 l 1,51,52
 1612.01 147 1612.01 147 1489.52 59 c 128,-1,53
 1367.02 -29 1367.02 -29 1194.22 -29 c 0,54,55
 1084.42 -29 1084.42 -29 999.226 16.5 c 128,-1,56
 914.039 62 914.039 62 859.234 150 c 1,11,12
1554.9 618 m 1,57,58
 1582.05 804 1582.05 804 1533.33 898.5 c 128,-1,59
 1484.61 993 1484.61 993 1362.21 993 c 0,60,61
 1247.91 993 1247.91 993 1165.14 898 c 128,-1,62
 1082.37 803 1082.37 803 1036.5 618 c 1,63,-1
 1554.9 618 l 1,57,58
EndSplineSet
EndChar
StartChar: eth
Encoding: 240 240 233
Width: 1170
Flags: HW
Fore
828.616 928 m 1,0,1
 789.69 937 789.69 937 754.028 941.5 c 128,-1,2
 718.365 946 718.365 946 682.365 946 c 0,3,4
 526.666 946 526.666 946 433.696 839 c 128,-1,5
 340.728 732 340.728 732 301.54 508 c 0,6,7
 264.803 298 264.803 298 315.509 184 c 128,-1,8
 366.216 70 366.216 70 494.016 70 c 0,9,10
 623.615 70 623.615 70 713.396 184.5 c 128,-1,11
 803.177 299 803.177 299 840.439 512 c 0,12,13
 860.033 624 860.033 624 857.34 729.5 c 128,-1,14
 854.646 835 854.646 835 828.616 928 c 1,0,1
840.02 1307 m 1,15,16
 975.5 1140 975.5 1140 1025.45 944.5 c 128,-1,17
 1075.4 749 1075.4 749 1037.44 532 c 0,18,19
 993.005 278 993.005 278 839.7 124.5 c 128,-1,20
 686.396 -29 686.396 -29 476.696 -29 c 0,21,22
 270.596 -29 270.596 -29 168.85 122.5 c 128,-1,23
 67.1035 274 67.1035 274 109.789 518 c 0,24,25
 151.076 754 151.076 754 303.343 899 c 128,-1,26
 455.608 1044 455.608 1044 660.809 1044 c 0,27,28
 692.309 1044 692.309 1044 725.534 1041 c 128,-1,29
 758.76 1038 758.76 1038 804.161 1030 c 1,30,31
 793.632 1083 793.632 1083 770.142 1136.5 c 128,-1,32
 746.65 1190 746.65 1190 711.272 1245 c 1,33,-1
 395.407 1096 l 1,34,-1
 375.752 1174 l 1,35,-1
 663.068 1309 l 1,36,37
 618.316 1367 618.316 1367 554.751 1407.5 c 128,-1,38
 491.187 1448 491.187 1448 409.535 1470 c 1,39,-1
 440.78 1556 l 1,40,41
 543.331 1530 543.331 1530 629.158 1483 c 128,-1,42
 714.987 1436 714.987 1436 785.891 1368 c 1,43,-1
 1101.93 1518 l 1,44,-1
 1121.59 1440 l 1,45,-1
 840.02 1307 l 1,15,16
EndSplineSet
KernsSLIF: 46 -36 0 0
EndChar
StartChar: divide
Encoding: 247 247 184
Width: 1630
Flags: HW
Fore
803.029 1012 m 0,0,1
 812.826 1068 812.826 1068 854.211 1106.5 c 128,-1,2
 895.596 1145 895.596 1145 945.996 1145 c 0,3,4
 995.493 1145 995.493 1145 1023.77 1106 c 128,-1,5
 1052.05 1067 1052.05 1067 1042.43 1012 c 0,6,7
 1032.64 956 1032.64 956 990.795 917.5 c 128,-1,8
 948.961 879 948.961 879 899.462 879 c 0,9,10
 848.161 879 848.161 879 820.608 917 c 128,-1,11
 793.057 955 793.057 955 803.029 1012 c 0,0,1
673.571 272 m 0,12,13
 683.369 328 683.369 328 724.842 367 c 128,-1,14
 766.313 406 766.313 406 816.714 406 c 0,15,16
 866.214 406 866.214 406 894.491 367 c 128,-1,17
 922.769 328 922.769 328 912.972 272 c 0,18,19
 903.351 217 903.351 217 861.428 178 c 128,-1,20
 819.505 139 819.505 139 770.005 139 c 0,21,22
 718.704 139 718.704 139 691.239 177.5 c 128,-1,23
 663.774 216 663.774 216 673.571 272 c 0,12,13
295.271 723 m 1,24,-1
 1449.08 723 l 1,25,-1
 1420.73 561 l 1,26,-1
 266.93 561 l 1,27,-1
 295.271 723 l 1,24,-1
EndSplineSet
EndChar
StartChar: oslash
Encoding: 248 248 161
Width: 1170
Flags: HW
Fore
878.042 879 m 1,0,1
 853.814 936 853.814 936 808.4 964.5 c 128,-1,2
 762.986 993 762.986 993 696.386 993 c 0,3,4
 564.086 993 564.086 993 475.218 876 c 128,-1,5
 386.35 759 386.35 759 346.639 532 c 0,6,7
 334.042 460 334.042 460 330.471 401 c 128,-1,8
 326.898 342 326.898 342 330.927 293 c 1,9,-1
 878.042 879 l 1,0,1
353.407 190 m 1,10,11
 378.736 129 378.736 129 423.524 99.5 c 128,-1,12
 468.314 70 468.314 70 534.915 70 c 0,13,14
 667.215 70 667.215 70 756.17 187.5 c 128,-1,15
 845.126 305 845.126 305 884.838 532 c 0,16,17
 898.133 608 898.133 608 901.967 668.5 c 128,-1,18
 905.801 729 905.801 729 901.224 780 c 1,19,-1
 353.407 190 l 1,10,11
1033.17 922 m 1,20,21
 1076.02 848 1076.02 848 1087.5 749 c 128,-1,22
 1098.98 650 1098.98 650 1078.34 532 c 0,23,24
 1033.9 278 1033.9 278 880.6 124.5 c 128,-1,25
 727.295 -29 727.295 -29 517.595 -29 c 0,26,27
 432.995 -29 432.995 -29 365.631 -2.5 c 128,-1,28
 298.267 24 298.267 24 247.414 78 c 1,29,-1
 88.624 -94 l 1,30,-1
 31.2451 -31 l 1,31,-1
 196.485 147 l 1,32,33
 155.057 224 155.057 224 144.037 320.5 c 128,-1,34
 133.019 417 133.019 417 153.139 532 c 0,35,36
 197.573 786 197.573 786 350.789 939 c 128,-1,37
 504.005 1092 504.005 1092 713.705 1092 c 0,38,39
 798.305 1092 798.305 1092 865.844 1066.5 c 128,-1,40
 933.384 1041 933.384 1041 982.238 991 c 1,41,-1
 1136.37 1157 l 1,42,-1
 1193.76 1094 l 1,43,-1
 1033.17 922 l 1,20,21
EndSplineSet
KernsSLIF: 46 -36 0 0
EndChar
StartChar: thorn
Encoding: 254 254 237
Width: 1234
Flags: HW
Fore
435.551 584 m 2,0,-1
 417.182 479 l 2,1,2
 383.593 287 383.593 287 432.161 186.5 c 128,-1,3
 480.729 86 480.729 86 606.729 86 c 0,4,5
 733.629 86 733.629 86 818.647 199 c 128,-1,6
 903.666 312 903.666 312 942.154 532 c 0,7,8
 980.812 753 980.812 753 935.159 865 c 128,-1,9
 889.503 977 889.503 977 762.604 977 c 0,10,11
 636.604 977 636.604 977 552.783 876 c 128,-1,12
 468.965 775 468.965 775 435.551 584 c 2,0,-1
421.45 1450 m 1,13,-1
 262.15 1450 l 1,14,-1
 280.694 1556 l 1,15,-1
 605.595 1556 l 1,16,-1
 490.308 897 l 1,17,18
 556.402 997 556.402 997 639.861 1044.5 c 128,-1,19
 723.32 1092 723.32 1092 834.021 1092 c 0,20,21
 1010.42 1092 1010.42 1092 1094.91 937 c 128,-1,22
 1179.39 782 1179.39 782 1135.66 532 c 0,23,24
 1091.92 282 1091.92 282 953.115 126.5 c 128,-1,25
 814.311 -29 814.311 -29 637.911 -29 c 0,26,27
 527.211 -29 527.211 -29 460.37 18.5 c 128,-1,28
 393.53 66 393.53 66 362.425 166 c 1,29,-1
 277.578 -319 l 1,30,-1
 434.178 -319 l 1,31,-1
 415.459 -426 l 1,32,-1
 -66.041 -426 l 1,33,-1
 -47.3223 -319 l 1,34,-1
 111.978 -319 l 1,35,-1
 421.45 1450 l 1,13,-1
EndSplineSet
KernsSLIF: 46 -102 0 0 44 -36 0 0
EndChar
StartChar: Dcroat
Encoding: 272 272 257
Width: 1564
Flags: HW
Fore
427.106 106 m 1,0,-1
 596.307 106 l 2,1,2
 858.207 106 858.207 106 1027.65 272 c 128,-1,3
 1197.08 438 1197.08 438 1251.32 748 c 0,4,5
 1305.55 1058 1305.55 1058 1194.29 1222 c 128,-1,6
 1083.04 1386 1083.04 1386 820.234 1386 c 2,7,-1
 651.034 1386 l 1,8,-1
 556.215 844 l 1,9,-1
 858.614 844 l 1,10,-1
 836.746 719 l 1,11,-1
 534.347 719 l 1,12,-1
 427.106 106 l 1,0,-1
56.6641 0 m 1,13,-1
 75.207 106 l 1,14,-1
 246.207 106 l 1,15,-1
 353.446 719 l 1,16,-1
 173.446 719 l 1,17,-1
 195.314 844 l 1,18,-1
 375.314 844 l 1,19,-1
 470.134 1386 l 1,20,-1
 299.134 1386 l 1,21,-1
 317.852 1493 l 1,22,-1
 852.451 1493 l 2,23,24
 1199.85 1493 1199.85 1493 1359.34 1296 c 128,-1,25
 1518.83 1099 1518.83 1099 1457.42 748 c 0,26,27
 1395.84 396 1395.84 396 1166.8 198 c 128,-1,28
 937.764 0 937.764 0 591.264 0 c 2,29,-1
 56.6641 0 l 1,13,-1
EndSplineSet
EndChar
StartChar: dcroat
Encoding: 273 273 255
Width: 1250
Flags: HW
Fore
922.584 106 m 1,0,-1
 1080.99 106 l 1,1,-1
 1062.44 0 l 1,2,-1
 738.44 0 l 1,3,-1
 767.479 166 l 1,4,5
 701.387 66 701.387 66 617.927 18.5 c 128,-1,6
 534.467 -29 534.467 -29 423.767 -29 c 0,7,8
 247.366 -29 247.366 -29 162.521 126.5 c 128,-1,9
 77.6738 282 77.6738 282 121.409 532 c 0,10,11
 165.145 782 165.145 782 303.861 937 c 128,-1,12
 442.577 1092 442.577 1092 619.877 1092 c 0,13,14
 730.577 1092 730.577 1092 797.417 1044.5 c 128,-1,15
 864.258 997 864.258 997 895.363 897 c 1,16,-1
 953.095 1227 l 1,17,-1
 659.695 1227 l 1,18,-1
 678.237 1333 l 1,19,-1
 971.639 1333 l 1,20,-1
 992.104 1450 l 1,21,-1
 835.507 1450 l 1,22,-1
 854.051 1556 l 1,23,-1
 1176.25 1556 l 1,24,-1
 1137.24 1333 l 1,25,-1
 1295.64 1333 l 1,26,-1
 1277.1 1227 l 1,27,-1
 1118.7 1227 l 1,28,-1
 922.584 106 l 1,0,-1
822.237 479 m 2,29,-1
 840.605 584 l 2,30,31
 874.021 775 874.021 775 825.54 876 c 128,-1,32
 777.059 977 777.059 977 651.059 977 c 0,33,34
 523.259 977 523.259 977 438.415 865 c 128,-1,35
 353.571 753 353.571 753 314.909 532 c 0,36,37
 276.422 312 276.422 312 321.903 199 c 128,-1,38
 367.386 86 367.386 86 495.186 86 c 0,39,40
 621.186 86 621.186 86 704.917 186.5 c 128,-1,41
 788.648 287 788.648 287 822.237 479 c 2,29,-1
EndSplineSet
EndChar
StartChar: Hbar
Encoding: 294 294 252
Width: 1696
Flags: HW
Fore
566.3 870 m 1,9,-1
 1262.9 870 l 1,10,-1
 1297.1 1067 l 1,0,0
 600.5 1067 l 1,0,0
 566.3 870 l 1,9,-1
60.5 0 m 1,0,-1
 78.5 106 l 1,1,-1
 249.5 106 l 1,2,-1
 417.8 1067 l 1,0,0
 246.8 1067 l 1,0,0
 268.4 1189 l 1,0,0
 439.4 1189 l 1,0,0
 473.6 1386 l 1,3,-1
 302.6 1386 l 1,4,-1
 321.5 1493 l 1,5,-1
 846.2 1493 l 1,6,-1
 827.3 1386 l 1,7,-1
 656.3 1386 l 1,8,-1
 622.1 1189 l 1,0,0
 1318.7 1189 l 1,0,0
 1352.9 1386 l 1,11,-1
 1181.9 1386 l 1,12,-1
 1200.8 1493 l 1,13,-1
 1725.5 1493 l 1,14,-1
 1706.6 1386 l 1,15,-1
 1535.6 1386 l 1,16,-1
 1501.4 1189 l 1,0,0
 1672.4 1189 l 1,0,0
 1650.8 1067 l 1,0,0
 1479.8 1067 l 1,0,0
 1311.5 106 l 1,17,-1
 1482.5 106 l 1,18,-1
 1464.5 0 l 1,19,-1
 939.8 0 l 1,20,-1
 957.8 106 l 1,21,-1
 1128.8 106 l 1,22,-1
 1241.3 748 l 1,23,-1
 544.7 748 l 1,24,-1
 432.2 106 l 1,25,-1
 603.2 106 l 1,26,-1
 585.2 0 l 1,27,-1
 60.5 0 l 1,0,-1
EndSplineSet
EndChar
StartChar: hbar
Encoding: 295 295 253
Width: 1240
Flags: HW
Fore
-7.09961 0 m 1,0,-1
 10.9004 106 l 1,1,-1
 160.3 106 l 1,2,-1
 353.8 1210 l 1,0,0
 195.4 1210 l 1,0,0
 217 1332 l 1,0,0
 375.4 1332 l 1,0,0
 396.1 1450 l 1,3,-1
 237.7 1450 l 1,4,-1
 255.7 1556 l 1,5,-1
 579.7 1556 l 1,6,-1
 541 1332 l 1,0,0
 825.4 1332 l 1,0,0
 803.8 1210 l 1,0,0
 519.4 1210 l 1,0,0
 460.9 874 l 1,7,8
 525.7 982 525.7 982 608.5 1037 c 128,-1,9
 691.3 1092 691.3 1092 788.5 1092 c 0,10,11
 946.9 1092 946.9 1092 1004.05 991 c 128,-1,12
 1038.25 930 1038.25 930 1038.25 828 c 0,0,0
 1038.25 760.5 1038.25 760.5 1023.4 676 c 2,13,-1
 923.5 106 l 1,14,-1
 1071.1 106 l 1,15,-1
 1053.1 0 l 1,16,-1
 595.9 0 l 1,17,-1
 613.9 106 l 1,18,-1
 757 106 l 1,19,-1
 847 618 l 17,20,21
 865 720 865 720 865 790 c 0,0,0
 865 851 865 851 850.6 884.5 c 128,-1,22
 820.9 956 820.9 956 711.1 956 c 0,23,24
 595.9 956 595.9 956 518.95 863 c 128,-1,25
 442.9 771 442.9 771 411.4 592 c 9,26,-1
 325.9 106 l 1,27,-1
 469.9 106 l 1,28,-1
 451.9 0 l 1,29,-1
 -7.09961 0 l 1,0,-1
EndSplineSet
EndChar
StartChar: dotlessi
Encoding: 305 305 214
Width: 614
Flags: HW
Fore
341.562 106 m 1,0,-1
 498.162 106 l 1,1,-1
 479.618 0 l 1,2,-1
 -0.982422 0 l 1,3,-1
 17.5615 106 l 1,4,-1
 175.962 106 l 1,5,-1
 324.663 956 l 1,6,-1
 166.264 956 l 1,7,-1
 184.981 1063 l 1,8,-1
 508.981 1063 l 1,9,-1
 341.562 106 l 1,0,-1
EndSplineSet
EndChar
StartChar: kgreenlandic
Encoding: 312 312 217
Width: 1180
Flags: HW
Fore
498 0 m 1,0,-1
 33.5996 0 l 1,1,-1
 52.5 106 l 1,2,-1
 201.9 106 l 1,3,-1
 349.5 953 l 1,4,-1
 190.2 953 l 1,5,-1
 209.1 1060 l 1,6,-1
 534 1060 l 1,7,-1
 443.1 541 l 1,8,-1
 918.3 953 l 1,9,-1
 780.6 953 l 1,10,-1
 799.5 1060 l 1,11,-1
 1232.4 1060 l 1,12,-1
 1213.5 953 l 1,13,-1
 1049.7 953 l 1,14,-1
 714.9 662 l 1,15,-1
 981.3 106 l 1,16,-1
 1119 106 l 1,17,-1
 1100.1 0 l 1,18,-1
 628.5 0 l 1,19,-1
 647.4 106 l 1,20,-1
 784.2 106 l 1,21,-1
 573.6 541 l 1,22,-1
 419.7 406 l 1,23,-1
 367.5 106 l 1,24,-1
 516.9 106 l 1,25,-1
 498 0 l 1,0,-1
EndSplineSet
EndChar
StartChar: Lslash
Encoding: 321 321 225
Width: 1294
Flags: HW
Fore
41.4209 0 m 1,0,-1
 59.9639 106 l 1,1,-1
 230.964 106 l 1,2,-1
 314.937 586 l 1,3,-1
 153.868 473 l 1,4,-1
 106.963 565 l 1,5,-1
 339.604 727 l 1,6,-1
 454.891 1386 l 1,7,-1
 283.891 1386 l 1,8,-1
 302.608 1493 l 1,9,-1
 826.408 1493 l 1,10,-1
 807.691 1386 l 1,11,-1
 635.791 1386 l 1,12,-1
 545.521 870 l 1,13,-1
 861.357 1096 l 1,14,-1
 908.263 1004 l 1,15,-1
 520.854 729 l 1,16,-1
 414.838 123 l 1,17,-1
 1030.43 123 l 1,18,-1
 1074.17 373 l 1,19,-1
 1184.88 373 l 1,20,-1
 1119.62 0 l 1,21,-1
 41.4209 0 l 1,0,-1
EndSplineSet
KernsSLIF: 366 -36 0 0 356 -167 0 0 253 -36 0 0 221 -206 0 0 217 -36 0 0 219 -36 0 0 218 -36 0 0 376 -206 0 0 255 -36 0 0 8217 -491 0 0 8221 -491 0 0 220 -36 0 0 121 -36 0 0 89 -206 0 0 87 -178 0 0 86 -243 0 0 85 -36 0 0 84 -167 0 0
EndChar
StartChar: lslash
Encoding: 322 322 226
Width: 626
Flags: HW
Fore
297.019 106 m 1,0,-1
 455.418 106 l 1,1,-1
 436.875 0 l 1,2,-1
 -43.7246 0 l 1,3,-1
 -25.1816 106 l 1,4,-1
 131.418 106 l 1,5,-1
 231.836 680 l 1,6,-1
 90.8408 584 l 1,7,-1
 50.9863 670 l 1,8,-1
 254.752 811 l 1,9,-1
 366.541 1450 l 1,10,-1
 209.941 1450 l 1,11,-1
 228.485 1556 l 1,12,-1
 550.685 1556 l 1,13,-1
 442.92 940 l 1,14,-1
 592.365 1038 l 1,15,-1
 631.319 952 l 1,16,-1
 420.353 811 l 1,17,-1
 297.019 106 l 1,0,-1
EndSplineSet
EndChar
StartChar: Eng
Encoding: 330 330 230
Width: 1703
Flags: HMW
Fore
52.5996 0 m 1,14,-1
 71.5 106 l 1,13,-1
 252.4 106 l 1,12,-1
 476.5 1386 l 1,11,-1
 295.6 1386 l 1,10,-1
 313.6 1493 l 1,9,-1
 658.3 1493 l 1,8,-1
 1257.7 315 l 1,7,-1
 1445.8 1386 l 1,6,-1
 1265.8 1386 l 1,5,-1
 1283.8 1493 l 1,4,-1
 1755.4 1493 l 1,3,-1
 1737.4 1386 l 1,2,-1
 1556.5 1386 l 1,1,-1
 1308.1 -29 l 2,0,-1
 1264.9 -276 1264.9 -276 1193.8 -356 c 0,37,38
 1106.5 -455 1106.5 -455 990.4 -455 c 0,35,36
 886 -455 886 -455 829.3 -438 c 0,33,34
 773.5 -422 773.5 -422 724 -389 c 1,31,32
 761.8 -170 l 1,30,-1
 847.3 -170 l 1,29,-1
 844.6 -194 844.6 -194 844.6 -215 c 0,27,28
 844.6 -277 844.6 -277 868 -311 c 0,25,26
 897.7 -356 897.7 -356 1010.2 -356 c 0,23,24
 1067.8 -355 1067.8 -355 1118.2 -292 c 0,21,22
 1161.4 -235 1161.4 -235 1197.4 -29 c 1,19,20
 559.3 1229 l 1,18,-1
 363.1 106 l 1,17,-1
 544 106 l 1,16,-1
 525.1 0 l 1,15,-1
 52.5996 0 l 1,14,-1
EndSplineSet
EndChar
StartChar: eng
Encoding: 331 331 231
Width: 1247
Flags: HW
Fore
80.0996 0 m 1,0,-1
 99 106 l 1,1,-1
 248.4 106 l 1,2,-1
 396.9 956 l 1,3,-1
 238.5 956 l 1,4,-1
 257.4 1063 l 1,5,-1
 581.4 1063 l 1,6,-1
 548.1 874 l 1,7,8
 612.9 982 612.9 982 695.7 1037 c 128,-1,9
 778.5 1092 778.5 1092 875.7 1092 c 0,10,11
 1032.3 1092 1032.3 1092 1091.7 991 c 128,-1,12
 1125.9 932 1125.9 932 1125.9 829 c 0,0,0
 1125.9 762 1125.9 762 1110.6 676 c 2,13,-1
 974.7 -104 l 2,16,17
 945.9 -268 945.9 -268 841.5 -362 c 128,-1,18
 738 -455 738 -455 584.1 -455 c 0,19,20
 519.3 -455 519.3 -455 462.6 -438 c 128,-1,21
 406.8 -422 406.8 -422 356.4 -389 c 1,22,-1
 395.1 -170 l 1,23,-1
 480.6 -170 l 1,24,25
 477.9 -195 477.9 -195 477.9 -216 c 0,0,0
 477.9 -278 477.9 -278 500.4 -311 c 128,-1,26
 531 -356 531 -356 604.8 -356 c 0,27,28
 686.7 -356 686.7 -356 736.2 -294 c 128,-1,29
 785.7 -234 785.7 -234 808.2 -104 c 2,30,-1
 934.2 618 l 2,20,21
 952.2 721 952.2 721 952.2 790 c 0,0,0
 952.2 851 952.2 851 937.8 886 c 128,-1,22
 907.2 958 907.2 958 798.3 958 c 0,23,24
 683.1 958 683.1 958 606.6 864 c 128,-1,25
 530.1 771 530.1 771 498.6 592 c 2,26,-1
 414 106 l 1,27,-1
 558 106 l 1,28,-1
 539.1 0 l 1,29,-1
 80.0996 0 l 1,0,-1
EndSplineSet
EndChar
StartChar: OE
Encoding: 338 338 176
Width: 2215
Flags: HW
Fore
1030.93 106 m 1,0,-1
 1254.86 1386 l 1,1,-1
 1086.56 1386 l 2,2,3
 823.754 1386 823.754 1386 655.563 1222 c 128,-1,4
 487.373 1058 487.373 1058 433.491 750 c 0,5,6
 379.084 439 379.084 439 489.904 272.5 c 128,-1,7
 600.727 106 600.727 106 862.627 106 c 2,8,-1
 1030.93 106 l 1,0,-1
1937.59 0 m 1,9,-1
 831.484 0 l 2,10,11
 484.984 0 484.984 0 325.223 198 c 128,-1,12
 165.461 396 165.461 396 227.391 750 c 0,13,14
 288.795 1101 288.795 1101 517.034 1297 c 128,-1,15
 745.271 1493 745.271 1493 1092.67 1493 c 2,16,-1
 2183.47 1493 l 1,17,-1
 2125.39 1161 l 1,18,-1
 2014.69 1161 l 1,19,-1
 2051.26 1370 l 1,20,-1
 1433.86 1370 l 1,21,-1
 1346.39 870 l 1,22,-1
 1789.19 870 l 1,23,-1
 1821.9 1057 l 1,24,-1
 1930.8 1057 l 1,25,-1
 1844.02 561 l 1,26,-1
 1735.12 561 l 1,27,-1
 1767.84 748 l 1,28,-1
 1325.04 748 l 1,29,-1
 1215.7 123 l 1,30,-1
 1848.4 123 l 1,31,-1
 1884.96 332 l 1,32,-1
 1995.67 332 l 1,33,-1
 1937.59 0 l 1,9,-1
EndSplineSet
KernsSLIF: 45 38 0 0
EndChar
StartChar: oe
Encoding: 339 339 177
Width: 1923
Flags: HW
Fore
574.807 70 m 0,0,1
 708.007 70 708.007 70 796.424 187 c 128,-1,2
 884.842 304 884.842 304 924.73 532 c 0,3,4
 964.616 760 964.616 760 917.048 876.5 c 128,-1,5
 869.479 993 869.479 993 736.277 993 c 0,6,7
 603.078 993 603.078 993 514.748 876.5 c 128,-1,8
 426.416 760 426.416 760 386.53 532 c 0,9,10
 346.642 304 346.642 304 394.574 187 c 128,-1,11
 442.507 70 442.507 70 574.807 70 c 0,0,1
1828.43 512 m 1,12,-1
 1114.73 512 l 1,13,-1
 1113.33 504 l 2,14,15
 1075.72 289 1075.72 289 1129.46 179.5 c 128,-1,16
 1183.2 70 1183.2 70 1325.4 70 c 0,17,18
 1434.3 70 1434.3 70 1515.17 133.5 c 128,-1,19
 1596.02 197 1596.02 197 1645.79 322 c 1,20,-1
 1778.99 322 l 1,21,22
 1708.78 147 1708.78 147 1586.74 59 c 128,-1,23
 1464.69 -29 1464.69 -29 1291.89 -29 c 0,24,25
 1174.89 -29 1174.89 -29 1090.3 20 c 128,-1,26
 1005.73 69 1005.73 69 957 166 c 1,27,28
 878.106 70 878.106 70 776.297 20.5 c 128,-1,29
 674.486 -29 674.486 -29 557.486 -29 c 0,30,31
 348.687 -29 348.687 -29 248.641 124.5 c 128,-1,32
 148.594 278 148.594 278 193.03 532 c 0,33,34
 237.465 786 237.465 786 390.681 939 c 128,-1,35
 543.896 1092 543.896 1092 753.597 1092 c 0,36,37
 872.396 1092 872.396 1092 956.437 1042.5 c 128,-1,38
 1040.48 993 1040.48 993 1086.69 897 c 1,39,40
 1169.18 993 1169.18 993 1267.84 1042.5 c 128,-1,41
 1366.5 1092 1366.5 1092 1476.3 1092 c 0,42,43
 1694.1 1092 1694.1 1092 1783.76 943.5 c 128,-1,44
 1873.44 795 1873.44 795 1828.43 512 c 1,12,-1
1651.67 618 m 1,45,46
 1678.81 804 1678.81 804 1630.1 898.5 c 128,-1,47
 1581.38 993 1581.38 993 1458.98 993 c 0,48,49
 1344.68 993 1344.68 993 1262.36 898 c 128,-1,50
 1180.04 803 1180.04 803 1133.27 618 c 1,51,-1
 1651.67 618 l 1,45,46
EndSplineSet
EndChar
StartChar: Tbar
Encoding: 358 358 231
Width: 1308
Flags: HW
TeX: 0 0 0 0
Fore
300.8 0 m 1,0,-1
 318.8 106 l 1,1,-1
 490.7 106 l 1,2,-1
 582.5 628 l 1,0,0
 344 628 l 1,0,0
 373.7 798 l 1,0,0
 612.2 798 l 1,0,0
 713 1374 l 1,3,-1
 317.9 1374 l 1,4,-1
 277.4 1141 l 1,5,-1
 166.7 1141 l 1,6,-1
 227.9 1493 l 1,7,-1
 1421.3 1493 l 1,8,-1
 1360.1 1141 l 1,9,-1
 1249.4 1141 l 1,10,-1
 1289.9 1374 l 1,11,-1
 894.8 1374 l 1,12,-1
 794 798 l 1,0,0
 1033.4 798 l 1,0,0
 1003.7 628 l 1,0,0
 764.3 628 l 1,0,0
 672.5 106 l 1,13,-1
 844.4 106 l 1,14,-1
 826.4 0 l 1,15,-1
 300.8 0 l 1,0,-1
EndSplineSet
EndChar
StartChar: tbar
Encoding: 359 359 232
Width: 785
Flags: HW
TeX: 0 0 0 0
Fore
291.2 956 m 1,0,-1
 145.4 956 l 1,1,-1
 164.3 1063 l 1,2,-1
 310.1 1063 l 1,3,-1
 367.7 1393 l 1,4,-1
 534.2 1393 l 1,5,-1
 476.6 1063 l 1,6,-1
 788 1063 l 1,7,-1
 769.1 956 l 1,8,-1
 457.7 956 l 1,9,-1
 417.2 723 l 1,0,0
 588.2 723 l 1,0,0
 563 581 l 1,0,0
 392 581 l 1,0,0
 339.8 281 l 2,10,11
 326.3 202 326.3 202 326.3 156 c 0,0,0
 326.3 124 326.3 124 332.6 108 c 128,-1,12
 349.7 70 349.7 70 412.7 70 c 0,13,14
 477.5 70 477.5 70 514.4 112 c 128,-1,15
 552.2 155 552.2 155 570.2 250 c 1,16,-1
 695.3 250 l 1,17,18
 662.9 105 662.9 105 587.3 38 c 128,-1,19
 511.7 -29 511.7 -29 381.2 -29 c 0,20,21
 238.1 -29 238.1 -29 191.3 42 c 128,-1,22
 161.6 85 161.6 85 161.6 165 c 0,0,0
 161.6 216 161.6 216 173.3 281 c 2,23,-1
 225.5 581 l 1,0,0
 104 581 l 1,0,0
 129.2 723 l 1,0,0
 250.7 723 l 1,0,0
 291.2 956 l 1,0,-1
EndSplineSet
EndChar
StartChar: longs
Encoding: 383 383 231
Width: 729
Flags: HW
TeX: 0 0 0 0
Fore
320.312 106 m 1,12,-1
 532.712 106 l 1,13,-1
 514.168 0 l 1,14,-1
 -22.2314 0 l 1,15,-1
 -3.6875 106 l 1,16,-1
 154.712 106 l 1,17,-1
 303.414 956 l 1,18,-1
 145.014 956 l 1,19,-1
 163.731 1063 l 1,20,-1
 322.132 1063 l 1,21,-1
 345.399 1196 l 2,22,23
 376.539 1374 376.539 1374 475.709 1465 c 128,-1,24
 574.879 1556 574.879 1556 735.979 1556 c 0,25,26
 796.279 1556 796.279 1556 854.48 1544 c 128,-1,27
 912.68 1532 912.68 1532 967.704 1507 c 1,28,-1
 932.368 1305 l 1,0,-1
 845.067 1305 l 1,1,2
 857.289 1380 857.289 1380 826.762 1419 c 128,-1,3
 796.234 1458 796.234 1458 725.135 1458 c 0,4,5
 632.435 1458 632.435 1458 584.75 1401.5 c 128,-1,6
 537.065 1345 537.065 1345 511.699 1200 c 2,7,-1
 320.312 106 l 1,12,-1
EndSplineSet
EndChar
StartChar: florin
Encoding: 402 402 166
Width: 1236
Flags: HW
Fore
721.791 1135 m 1,0,1
 775.03 1321 775.03 1321 882.887 1420.5 c 128,-1,2
 990.739 1520 990.739 1520 1140.14 1520 c 0,3,4
 1186.04 1520 1186.04 1520 1237.13 1508.5 c 128,-1,5
 1288.22 1497 1288.22 1497 1347.37 1475 c 1,6,-1
 1308.54 1253 l 1,7,-1
 1220.34 1253 l 1,8,9
 1229.98 1339 1229.98 1339 1203.4 1380 c 128,-1,10
 1176.82 1421 1176.82 1421 1111.12 1421 c 0,11,12
 1039.12 1421 1039.12 1421 987.814 1351.5 c 128,-1,13
 936.508 1282 936.508 1282 887.867 1112 c 1,14,-1
 805.46 821 l 1,15,-1
 1079.96 821 l 1,16,-1
 1061.42 715 l 1,17,-1
 774.315 715 l 1,18,-1
 558.209 -47 l 1,19,20
 504.971 -233 504.971 -233 396.214 -332.5 c 128,-1,21
 287.457 -432 287.457 -432 138.057 -432 c 0,22,23
 93.0566 -432 93.0566 -432 42.7803 -421 c 128,-1,24
 -7.49414 -410 -7.49414 -410 -67.3711 -387 c 1,25,-1
 -28.709 -166 l 1,26,-1
 59.4912 -166 l 1,27,28
 49.8457 -252 49.8457 -252 75.9736 -293 c 128,-1,29
 102.101 -334 102.101 -334 166.9 -334 c 0,30,31
 238.9 -334 238.9 -334 290.296 -264 c 128,-1,32
 341.692 -194 341.692 -194 390.157 -25 c 2,33,-1
 602.415 715 l 1,34,-1
 375.615 715 l 1,35,-1
 394.16 821 l 1,36,-1
 632.66 821 l 1,37,-1
 721.791 1135 l 1,0,1
EndSplineSet
EndChar
StartChar: dotlessj
Encoding: 567 567 173
Width: 583
Flags: HW
Fore
351.554 956 m 1,0,-1
 194.954 956 l 1,1,-1
 213.672 1063 l 1,2,-1
 535.872 1063 l 1,3,-1
 331.714 -104 l 2,4,5
 303.024 -268 303.024 -268 198.917 -361.5 c 128,-1,6
 94.8105 -455 94.8105 -455 -59.0889 -455 c 0,7,8
 -123.889 -455 -123.889 -455 -179.953 -438.5 c 128,-1,9
 -236.017 -422 -236.017 -422 -286.043 -389 c 1,10,-1
 -247.731 -170 l 1,11,-1
 -162.231 -170 l 1,12,13
 -172.726 -266 -172.726 -266 -142.349 -311 c 128,-1,14
 -111.971 -356 -111.971 -356 -38.1709 -356 c 0,15,16
 43.7295 -356 43.7295 -356 93.6387 -294.5 c 128,-1,17
 143.548 -233 143.548 -233 166.114 -104 c 2,18,-1
 351.554 956 l 1,0,-1
EndSplineSet
EndChar
StartChar: uni02BB
Encoding: 699 699 173
Width: 623
Flags: HW
Fore
561.487 1440 m 1,0,1
 480.991 1376 480.991 1376 435.071 1291 c 128,-1,2
 389.151 1206 389.151 1206 366.583 1077 c 2,3,-1
 355.562 1014 l 1,4,-1
 180.961 1014 l 1,5,6
 212.302 1188 212.302 1188 289.632 1308.5 c 128,-1,7
 366.963 1429 366.963 1429 505.282 1520 c 1,8,-1
 561.487 1440 l 1,0,1
EndSplineSet
KernsSLIF: 193 -264 0 0 194 -264 0 0 195 -264 0 0 192 -264 0 0 198 -225 0 0 196 -264 0 0 74 47 0 0 65 -264 0 0
EndChar
StartChar: afii57929
Encoding: 700 700 174
Width: 624
Flags: HW
TeX: 0 0 0 0
Fore
196.15 1094 m 1,0,1
 277.15 1158 277.15 1158 323.05 1243 c 128,-1,2
 368.95 1328 368.95 1328 391.45 1457 c 2,3,-1
 402.25 1520 l 1,4,-1
 576.85 1520 l 1,5,6
 545.35 1346 545.35 1346 467.95 1226 c 128,-1,7
 391.45 1105 391.45 1105 252.85 1014 c 1,8,-1
 196.15 1094 l 1,0,1
EndSplineSet
EndChar
StartChar: circumflex
Encoding: 710 710 215
Width: 988
Flags: HW
Fore
658 1638 m 1,0,-1
 809.2 1638 l 1,1,-1
 954.1 1262 l 1,2,-1
 849.7 1262 l 1,3,-1
 712.9 1522 l 1,4,-1
 484.3 1262 l 1,5,-1
 379.9 1262 l 1,6,-1
 658 1638 l 1,0,-1
EndSplineSet
EndChar
StartChar: caron
Encoding: 711 711 224
Width: 995
Flags: HW
Fore
596.8 1262 m 1,0,-1
 451.9 1638 l 1,1,-1
 556.3 1638 l 1,2,-1
 693.1 1378 l 1,3,-1
 921.7 1638 l 1,4,-1
 1026.1 1638 l 1,5,-1
 748 1262 l 1,6,-1
 596.8 1262 l 1,0,-1
EndSplineSet
EndChar
StartChar: breve
Encoding: 728 728 218
Width: 993
Flags: HW
Fore
440.104 1608 m 1,0,-1
 526.505 1608 l 1,1,2
 524.705 1529 524.705 1529 565.205 1494 c 128,-1,3
 605.705 1458 605.705 1458 695.705 1458 c 0,4,5
 785.705 1458 785.705 1458 838.805 1494 c 128,-1,6
 891.905 1529 891.905 1529 917.104 1608 c 1,7,-1
 1003.5 1608 l 1,8,9
 969.305 1465 969.305 1465 885.604 1393 c 128,-1,10
 801.905 1321 801.905 1321 671.405 1321 c 0,11,12
 540.905 1321 540.905 1321 482.405 1393 c 128,-1,13
 423.905 1465 423.905 1465 440.104 1608 c 1,0,-1
EndSplineSet
LCarets: 0 65535 '    ' 1 0 
Ligature: 0 1 'liga' space uni0306
EndChar
StartChar: dotaccent
Encoding: 729 729 219
Width: 991
Flags: HW
Fore
722.678 1569 m 0,0,1
 765.877 1569 765.877 1569 791.077 1534 c 128,-1,2
 815.377 1500 815.377 1500 807.277 1452 c 0,3,4
 798.277 1401 798.277 1401 763.178 1368 c 128,-1,5
 727.178 1335 727.178 1335 681.277 1335 c 0,6,7
 635.377 1335 635.377 1335 611.978 1368 c 128,-1,8
 587.678 1401 587.678 1401 596.678 1452 c 0,9,10
 604.777 1500 604.777 1500 642.577 1534 c 128,-1,11
 679.478 1569 679.478 1569 722.678 1569 c 0,0,1
EndSplineSet
LCarets: 0 65535 '    ' 1 0 
Ligature: 0 1 'liga' space uni0307
EndChar
StartChar: ring
Encoding: 730 730 220
Width: 991
Flags: HW
Fore
948.6 1524 m 0,0,1
 928.8 1409 928.8 1409 843.3 1329 c 128,-1,2
 757.8 1249 757.8 1249 654.3 1249 c 0,3,4
 550.8 1249 550.8 1249 493.2 1329 c 128,-1,5
 435.6 1409 435.6 1409 455.4 1524 c 0,6,7
 475.2 1639 475.2 1639 560.7 1718 c 128,-1,8
 646.2 1798 646.2 1798 749.7 1798 c 0,9,10
 853.2 1798 853.2 1798 910.8 1718 c 128,-1,11
 968.4 1639 968.4 1639 948.6 1524 c 0,0,1
838.8 1524 m 0,12,13
 849.6 1587 849.6 1587 818.1 1631 c 128,-1,14
 785.7 1675 785.7 1675 728.1 1675 c 0,15,16
 669.6 1675 669.6 1675 622.8 1632 c 128,-1,17
 576.9 1588 576.9 1588 565.2 1524 c 0,18,19
 553.5 1459 553.5 1459 585.9 1416 c 128,-1,20
 617.4 1372 617.4 1372 675.9 1372 c 0,21,22
 733.5 1372 733.5 1372 780.3 1416 c 128,-1,23
 828 1460 828 1460 838.8 1524 c 0,12,13
EndSplineSet
LCarets: 0 65535 '    ' 1 0 
Ligature: 0 1 'liga' space uni030A
EndChar
StartChar: ogonek
Encoding: 731 731 223
Width: 972
Flags: HW
Fore
500.188 0 m 1,0,-1
 584.788 0 l 1,1,-1
 583.539 -2 l 2,2,3
 483.721 -125 483.721 -125 475.499 -172 c 0,4,5
 467.451 -218 467.451 -218 492.703 -246 c 128,-1,6
 517.955 -274 517.955 -274 568.354 -274 c 0,7,8
 592.655 -274 592.655 -274 619.892 -267.5 c 128,-1,9
 647.129 -261 647.129 -261 676.402 -248 c 1,10,-1
 653.285 -375 l 1,11,12
 619.312 -384 619.312 -384 588.374 -388.5 c 128,-1,13
 557.437 -393 557.437 -393 528.637 -393 c 0,14,15
 426.937 -393 426.937 -393 378.921 -348.5 c 128,-1,16
 330.906 -304 330.906 -304 345.076 -223 c 0,17,18
 353.649 -174 353.649 -174 389.833 -121.5 c 128,-1,19
 426.018 -69 426.018 -69 500.188 0 c 1,0,-1
EndSplineSet
Ligature: 0 1 'liga' space uni0328
EndChar
StartChar: tilde
Encoding: 732 732 216
Width: 993
Flags: HW
Fore
705 1370 m 1,0,-1
 663.6 1425 l 2,1,2
 644.7 1449 644.7 1449 631.2 1456 c 128,-1,3
 617.7 1464 617.7 1464 600.6 1464 c 0,4,5
 562.8 1464 562.8 1464 534 1424 c 128,-1,6
 505.2 1385 505.2 1385 488.1 1309 c 1,7,-1
 401.7 1309 l 1,8,9
 426.9 1444 426.9 1444 485.4 1518 c 128,-1,10
 543.9 1591 543.9 1591 625.8 1591 c 0,11,12
 660 1591 660 1591 687 1577 c 128,-1,13
 713.1 1563 713.1 1563 741 1530 c 1,14,-1
 782.4 1475 l 2,15,16
 798.6 1452 798.6 1452 813 1444 c 128,-1,17
 826.5 1436 826.5 1436 845.4 1436 c 0,18,19
 884.1 1436 884.1 1436 912.9 1476 c 128,-1,20
 941.7 1516 941.7 1516 957.9 1591 c 1,21,-1
 1044.3 1591 l 1,22,23
 1019.1 1456 1019.1 1456 960.6 1382 c 128,-1,24
 902.1 1309 902.1 1309 820.2 1309 c 0,25,26
 786 1309 786 1309 759 1323 c 128,-1,27
 732.9 1337 732.9 1337 705 1370 c 1,0,-1
EndSplineSet
LCarets: 0 65535 '    ' 1 0 
Ligature: 0 1 'liga' space tildecomb
EndChar
StartChar: hungarumlaut
Encoding: 733 733 222
Width: 998
Flags: HW
Fore
661.3 1638 m 1,0,-1
 814.3 1638 l 1,1,-1
 528.1 1262 l 1,2,-1
 425.5 1262 l 1,3,-1
 661.3 1638 l 1,0,-1
958.3 1638 m 1,4,-1
 1118.5 1638 l 1,5,-1
 793.6 1262 l 1,6,-1
 689.2 1262 l 1,7,-1
 958.3 1638 l 1,4,-1
EndSplineSet
LCarets: 0 65535 '    ' 1 0 
Ligature: 0 1 'liga' space uni030B
EndChar
StartChar: uni0312
Encoding: 786 786 223
Width: 621
Flags: HW
TeX: 0 0 0 0
Fore
514.121 1270 m 1,0,1
 438.521 1228 438.521 1228 397.121 1172 c 128,-1,2
 355.721 1116 355.721 1116 342.221 1036 c 2,3,-1
 337.721 1014 l 1,4,-1
 195.521 1014 l 1,5,6
 219.821 1117 219.821 1117 285.521 1190 c 128,-1,7
 350.321 1264 350.321 1264 465.521 1318 c 1,8,-1
 514.121 1270 l 1,0,1
EndSplineSet
EndChar
StartChar: uni0326
Encoding: 806 806 223
Width: 951
Flags: HW
Fore
138.7 -409 m 1,0,1
 214.3 -367 214.3 -367 255.7 -311 c 128,-1,2
 297.1 -255 297.1 -255 310.6 -175 c 2,3,-1
 315.1 -153 l 1,4,-1
 457.3 -153 l 1,5,6
 433 -256 433 -256 367.3 -329 c 128,-1,7
 302.5 -403 302.5 -403 187.3 -457 c 1,8,-1
 138.7 -409 l 1,0,1
EndSplineSet
EndChar
StartChar: Omega
Encoding: 937 937 159
Width: 1607
Flags: HW
Fore
982.692 164 m 1,0,-1
 1285.09 164 l 1,1,-1
 1309.06 301 l 1,2,-1
 1414.36 301 l 1,3,-1
 1361.7 0 l 1,4,-1
 828.901 0 l 1,5,-1
 860.741 182 l 1,6,7
 1034.98 252 1034.98 252 1145.44 407.5 c 128,-1,8
 1255.9 563 1255.9 563 1296.48 795 c 0,9,10
 1345.29 1074 1345.29 1074 1251.64 1243.5 c 128,-1,11
 1158 1413 1158 1413 958.195 1413 c 0,12,13
 758.396 1413 758.396 1413 605.441 1243.5 c 128,-1,14
 452.489 1074 452.489 1074 403.682 795 c 0,15,16
 362.919 562 362.919 562 418.604 407 c 128,-1,17
 474.287 252 474.287 252 623.141 182 c 1,18,-1
 591.302 0 l 1,19,-1
 60.3008 0 l 1,20,-1
 112.959 301 l 1,21,-1
 218.259 301 l 1,22,-1
 194.292 164 l 1,23,-1
 494.892 164 l 1,24,25
 322.013 251 322.013 251 243.002 427 c 128,-1,26
 163.992 603 163.992 603 201.43 817 c 0,27,28
 227.846 968 227.846 968 302.514 1099 c 128,-1,29
 377.18 1230 377.18 1230 494.2 1333 c 0,30,31
 599.219 1424 599.219 1424 722.815 1472 c 128,-1,32
 846.414 1520 846.414 1520 976.914 1520 c 0,33,34
 1107.42 1520 1107.42 1520 1213.41 1472.5 c 128,-1,35
 1319.39 1425 1319.39 1425 1392.4 1333 c 0,36,37
 1474.28 1230 1474.28 1230 1503.48 1098.5 c 128,-1,38
 1532.67 967 1532.67 967 1506.43 817 c 0,39,40
 1469.17 604 1469.17 604 1328.04 427.5 c 128,-1,41
 1186.91 251 1186.91 251 982.692 164 c 1,0,-1
EndSplineSet
EndChar
StartChar: pi
Encoding: 960 960 155
Width: 1279
Flags: HW
Fore
50.418 0 m 1,0,-1
 68.9619 106 l 1,1,-1
 218.361 106 l 1,2,-1
 367.063 956 l 1,3,-1
 208.663 956 l 1,4,-1
 227.382 1063 l 1,5,-1
 1305.58 1063 l 1,6,-1
 1286.86 956 l 1,7,-1
 1130.26 956 l 1,8,-1
 981.561 106 l 1,9,-1
 1129.16 106 l 1,10,-1
 1110.62 0 l 1,11,-1
 653.418 0 l 1,12,-1
 671.962 106 l 1,13,-1
 815.062 106 l 1,14,-1
 963.764 956 l 1,15,-1
 532.663 956 l 1,16,-1
 383.962 106 l 1,17,-1
 527.962 106 l 1,18,-1
 509.418 0 l 1,19,-1
 50.418 0 l 1,0,-1
EndSplineSet
EndChar
StartChar: afii10051
Encoding: 1026 1026 158
Width: 1548
Flags: HW
Fore
1220 463 m 2,0,1
 1251.49 643 1251.49 643 1190.56 696 c 0,2,3
 1096.72 777 1096.72 777 924.227 753 c 0,4,5
 820.979 739 820.979 739 724.059 648 c 0,6,7
 632.514 562 632.514 562 613.096 451 c 2,8,-1
 552.915 107 l 1,9,-1
 722.115 107 l 1,10,-1
 703.396 0 l 1,11,-1
 180.496 0 l 1,12,-1
 199.215 107 l 1,13,-1
 370.215 107 l 1,14,-1
 591.867 1374 l 1,15,-1
 264.267 1374 l 1,16,-1
 223.505 1141 l 1,17,-1
 112.806 1141 l 1,18,-1
 174.385 1493 l 1,19,-1
 1383.08 1493 l 1,20,-1
 1321.51 1141 l 1,21,-1
 1210.81 1141 l 1,22,-1
 1251.57 1374 l 1,23,-1
 774.567 1374 l 1,24,-1
 659.105 714 l 1,25,26
 734.896 854 734.896 854 971.945 892 c 0,27,28
 1240.47 935 1240.47 935 1354.53 769 c 0,29,30
 1433.58 655 1433.58 655 1400 463 c 2,31,-1
 1323.2 24 l 2,32,33
 1279.98 -223 1279.98 -223 1171.64 -333 c 0,34,35
 1063.3 -443 1063.3 -443 867.997 -443 c 0,36,37
 804.097 -443 804.097 -443 740.921 -426 c 128,-1,38
 677.745 -409 677.745 -409 617.993 -375 c 1,39,-1
 659.104 -140 l 1,40,-1
 761.704 -140 l 1,41,42
 747.084 -239 747.084 -239 778.2 -287.5 c 128,-1,43
 809.316 -336 809.316 -336 888.516 -336 c 0,44,45
 995.617 -336 995.617 -336 1051.04 -261 c 0,46,47
 1106.46 -186 1106.46 -186 1144.59 32 c 2,48,-1
 1220 463 l 2,0,1
EndSplineSet
EndChar
StartChar: afii10053
Encoding: 1028 1028 160
Width: 1491
Flags: HW
Fore
382.675 694 m 1,0,1
 340.042 404 340.042 404 414.451 248 c 0,2,3
 495.41 78 495.41 78 710.511 78 c 0,4,5
 860.811 78 860.811 78 971.918 157.5 c 128,-1,6
 1083.03 237 1083.03 237 1153.87 395 c 1,7,-1
 1319.47 395 l 1,8,9
 1223.5 186 1223.5 186 1064.75 78.5 c 128,-1,10
 905.991 -29 905.991 -29 691.791 -29 c 0,11,12
 560.392 -29 560.392 -29 456.64 21 c 128,-1,13
 352.887 71 352.887 71 282.555 168 c 0,14,15
 201.349 280 201.349 280 177.591 422 c 0,16,17
 153.107 565 153.107 565 184.597 745 c 0,18,19
 245.477 1093 245.477 1093 463.727 1306.5 c 128,-1,20
 681.978 1520 681.978 1520 978.077 1520 c 0,21,22
 1087.88 1520 1087.88 1520 1206.48 1488 c 128,-1,23
 1325.08 1456 1325.08 1456 1456.81 1391 c 1,24,-1
 1396.63 1047 l 1,25,-1
 1294.93 1047 l 1,26,27
 1294.52 1235 1294.52 1235 1209.74 1324 c 128,-1,28
 1124.96 1413 1124.96 1413 944.059 1413 c 0,29,30
 728.959 1413 728.959 1413 588.692 1244 c 0,31,32
 464.177 1093 464.177 1093 404.918 816 c 1,33,-1
 941.318 816 l 1,34,-1
 963.011 940 l 1,35,-1
 1073.71 940 l 1,36,-1
 1009.68 574 l 1,37,-1
 898.982 574 l 1,38,-1
 919.975 694 l 1,39,-1
 382.675 694 l 1,0,1
EndSplineSet
EndChar
StartChar: afii10054
Encoding: 1029 1029 161
Width: 1331
Flags: HW
Fore
121.703 72 m 1,0,-1
 181.183 412 l 1,1,-1
 284.508 411 l 1,2,3
 259.269 241 259.269 241 329.697 160 c 0,4,5
 399.052 78 399.052 78 570.952 78 c 0,6,7
 731.152 78 731.152 78 827.636 148.5 c 128,-1,8
 924.119 219 924.119 219 947.736 354 c 0,9,10
 966.631 462 966.631 462 925.927 520 c 128,-1,11
 885.223 578 885.223 578 731.045 633 c 2,12,-1
 564.067 692 l 2,13,14
 382.838 757 382.838 757 321.058 854 c 128,-1,15
 259.276 951 259.276 951 288.843 1120 c 0,16,17
 322.081 1310 322.081 1310 461.95 1415 c 128,-1,18
 601.819 1520 601.819 1520 821.419 1520 c 0,19,20
 915.02 1520 915.02 1520 1022.68 1497.5 c 128,-1,21
 1130.35 1475 1130.35 1475 1248.82 1432 c 1,22,-1
 1193.19 1114 l 1,23,-1
 1091.49 1114 l 1,24,25
 1103.83 1272 1103.83 1272 1036.51 1342.5 c 128,-1,26
 969.201 1413 969.201 1413 806.301 1413 c 0,27,28
 664.101 1413 664.101 1413 578.566 1348.5 c 128,-1,29
 493.033 1284 493.033 1284 471.515 1161 c 0,30,31
 452.797 1054 452.797 1054 497.925 993 c 128,-1,32
 543.053 932 543.053 932 713.456 872 c 2,33,-1
 870.334 817 l 2,34,35
 1042.36 756 1042.36 756 1103.68 661.5 c 128,-1,36
 1165 567 1165 567 1137.19 408 c 0,37,38
 1099.22 191 1099.22 191 954.877 81 c 0,39,40
 810.533 -29 810.533 -29 563.033 -29 c 0,41,42
 452.333 -29 452.333 -29 341.957 -4 c 128,-1,43
 231.581 21 231.581 21 121.703 72 c 1,0,-1
EndSplineSet
EndChar
StartChar: afii10055
Encoding: 1030 1030 162
Width: 768
Flags: HW
Fore
383.799 106 m 1,0,-1
 554.799 106 l 1,1,-1
 536.257 0 l 1,2,-1
 11.5557 0 l 1,3,-1
 30.0986 106 l 1,4,-1
 201.099 106 l 1,5,-1
 425.026 1386 l 1,6,-1
 254.026 1386 l 1,7,-1
 272.743 1493 l 1,8,-1
 797.443 1493 l 1,9,-1
 778.727 1386 l 1,10,-1
 607.727 1386 l 1,11,-1
 383.799 106 l 1,0,-1
EndSplineSet
EndChar
StartChar: afii10057
Encoding: 1032 1032 164
Width: 767
Flags: HW
Fore
-282.35 -358 m 1,0,-1
 -241.238 -123 l 1,1,-1
 -138.638 -123 l 1,2,3
 -153.258 -222 -153.258 -222 -122.143 -270.5 c 128,-1,4
 -91.0273 -319 -91.0273 -319 -11.8271 -319 c 0,5,6
 95.2725 -319 95.2725 -319 150.693 -244 c 128,-1,7
 206.114 -169 206.114 -169 244.251 49 c 2,8,-1
 478.149 1386 l 1,9,-1
 269.349 1386 l 1,10,-1
 288.068 1493 l 1,11,-1
 850.568 1493 l 1,12,-1
 831.849 1386 l 1,13,-1
 660.849 1386 l 1,14,-1
 425.552 41 l 2,15,16
 382.342 -206 382.342 -206 273.997 -316 c 128,-1,17
 165.653 -426 165.653 -426 -32.3457 -426 c 0,18,19
 -96.2461 -426 -96.2461 -426 -159.422 -409 c 128,-1,20
 -222.599 -392 -222.599 -392 -282.35 -358 c 1,0,-1
EndSplineSet
EndChar
StartChar: afii10058
Encoding: 1033 1033 165
Width: 2054
Flags: HW
Fore
848.336 0 m 1,0,-1
 866.88 106 l 1,1,-1
 1037.88 106 l 1,2,-1
 1259.01 1370 l 1,3,-1
 714.507 1370 l 1,4,-1
 552.036 431 l 1,5,6
 509.9 185 509.9 185 400.481 74 c 0,7,8
 292.138 -36 292.138 -36 124.738 -36 c 0,9,10
 89.6387 -36 89.6387 -36 26.4629 -19 c 128,-1,11
 -36.7139 -2 -36.7139 -2 -96.4658 32 c 1,12,-1
 -67.251 199 l 1,13,-1
 35.3496 199 l 1,14,15
 30.4512 171 30.4512 171 63.8291 120 c 0,16,17
 94.8574 71 94.8574 71 145.257 71 c 0,18,19
 221.757 71 221.757 71 277.177 146 c 0,20,21
 332.772 222 332.772 222 370.735 439 c 2,22,-1
 536.406 1386 l 1,23,-1
 365.406 1386 l 1,24,-1
 384.125 1493 l 1,25,-1
 1634.22 1493 l 1,26,-1
 1615.5 1386 l 1,27,-1
 1444.5 1386 l 1,28,-1
 1354.23 870 l 1,29,-1
 1462.23 870 l 1,30,31
 1767.09 848 1767.09 848 1868.04 710 c 0,32,33
 1940 612 1940 612 1908.51 432 c 0,34,35
 1869.67 210 1869.67 210 1725.3 105 c 128,-1,36
 1580.93 0 1580.93 0 1348.73 0 c 2,37,-1
 848.336 0 l 1,0,-1
1266.48 106 m 1,38,-1
 1369.08 106 l 2,39,40
 1495.98 106 1495.98 106 1584.33 184 c 128,-1,41
 1672.67 262 1672.67 262 1702.41 432 c 0,42,43
 1730.58 593 1730.58 593 1669.89 670.5 c 128,-1,44
 1609.19 748 1609.19 748 1481.39 748 c 2,45,-1
 1332.89 748 l 1,46,-1
 1220.58 106 l 1,47,-1
 1266.48 106 l 1,38,-1
EndSplineSet
EndChar
StartChar: afii10059
Encoding: 1034 1034 166
Width: 2166
Flags: HW
Fore
955.482 0 m 1,0,-1
 974.024 106 l 1,1,-1
 1145.03 106 l 1,2,-1
 1257.34 748 l 1,3,-1
 560.738 748 l 1,4,-1
 448.425 106 l 1,5,-1
 619.425 106 l 1,6,-1
 600.882 0 l 1,7,-1
 76.1816 0 l 1,8,-1
 94.7246 106 l 1,9,-1
 265.725 106 l 1,10,-1
 489.652 1386 l 1,11,-1
 318.652 1386 l 1,12,-1
 337.369 1493 l 1,13,-1
 862.069 1493 l 1,14,-1
 843.352 1386 l 1,15,-1
 672.352 1386 l 1,16,-1
 582.081 870 l 1,17,-1
 1278.68 870 l 1,18,-1
 1368.95 1386 l 1,19,-1
 1197.95 1386 l 1,20,-1
 1216.67 1493 l 1,21,-1
 1741.37 1493 l 1,22,-1
 1722.65 1386 l 1,23,-1
 1551.65 1386 l 1,24,-1
 1461.38 870 l 1,25,-1
 1569.38 870 l 1,26,27
 1874.23 848 1874.23 848 1976.09 710 c 0,28,29
 2047.15 612 2047.15 612 2015.66 432 c 0,30,31
 1976.81 210 1976.81 210 1832.45 105 c 128,-1,32
 1688.09 0 1688.09 0 1455.89 0 c 2,33,-1
 1355.09 0 l 1,34,-1
 955.482 0 l 1,0,-1
1373.63 106 m 1,35,-1
 1476.23 106 l 2,36,37
 1603.13 106 1603.13 106 1691.47 184 c 128,-1,38
 1779.81 262 1779.81 262 1809.56 432 c 0,39,40
 1837.72 593 1837.72 593 1777.03 670.5 c 128,-1,41
 1716.34 748 1716.34 748 1588.54 748 c 2,42,-1
 1440.04 748 l 1,43,-1
 1327.73 106 l 1,44,-1
 1373.63 106 l 1,35,-1
EndSplineSet
EndChar
StartChar: afii10060
Encoding: 1035 1035 167
Width: 1684
Flags: HW
Fore
1345.51 1493 m 1,0,-1
 1283.93 1141 l 1,1,-1
 1173.23 1141 l 1,2,-1
 1213.99 1374 l 1,3,-1
 736.995 1374 l 1,4,-1
 621.533 714 l 1,5,6
 697.325 854 697.325 854 934.372 892 c 0,7,8
 1202.89 935 1202.89 935 1316.95 769 c 0,9,10
 1396.01 655 1396.01 655 1362.42 463 c 2,11,-1
 1300.14 107 l 1,12,-1
 1471.14 107 l 1,13,-1
 1452.43 0 l 1,14,-1
 934.925 0 l 1,15,-1
 953.643 107 l 1,16,-1
 1120.14 107 l 1,17,-1
 1182.42 463 l 2,18,19
 1213.91 643 1213.91 643 1152.98 696 c 0,20,21
 1060.6 775 1060.6 775 886.656 753 c 0,22,23
 783.406 739 783.406 739 686.487 648 c 0,24,25
 594.942 562 594.942 562 575.523 451 c 2,26,-1
 515.343 107 l 1,27,-1
 684.542 107 l 1,28,-1
 665.825 0 l 1,29,-1
 142.925 0 l 1,30,-1
 161.643 107 l 1,31,-1
 332.643 107 l 1,32,-1
 554.295 1374 l 1,33,-1
 226.695 1374 l 1,34,-1
 185.934 1141 l 1,35,-1
 75.2334 1141 l 1,36,-1
 136.812 1493 l 1,37,-1
 1345.51 1493 l 1,0,-1
EndSplineSet
EndChar
StartChar: afii10145
Encoding: 1039 1039 171
Width: 1699
Flags: HW
Fore
702.703 0 m 1,0,-1
 91.6035 0 l 1,1,-1
 110.322 107 l 1,2,-1
 281.322 107 l 1,3,-1
 505.248 1387 l 1,4,-1
 334.248 1387 l 1,5,-1
 352.792 1493 l 1,6,-1
 877.492 1493 l 1,7,-1
 858.948 1387 l 1,8,-1
 687.948 1387 l 1,9,-1
 466.821 123 l 1,10,-1
 1163.42 123 l 1,11,-1
 1384.55 1387 l 1,12,-1
 1213.55 1387 l 1,13,-1
 1232.09 1493 l 1,14,-1
 1756.79 1493 l 1,15,-1
 1738.25 1387 l 1,16,-1
 1567.25 1387 l 1,17,-1
 1343.32 107 l 1,18,-1
 1514.32 107 l 1,19,-1
 1495.6 0 l 1,20,-1
 884.503 0 l 1,21,-1
 828.347 -321 l 1,22,-1
 646.547 -321 l 1,23,-1
 702.703 0 l 1,0,-1
EndSplineSet
EndChar
StartChar: afii10017
Encoding: 1040 1040 172
Width: 1391
Flags: HW
Fore
393.919 541 m 1,0,-1
 887.119 541 l 1,1,-1
 764.728 1251 l 1,2,-1
 393.919 541 l 1,0,-1
-80.5234 0 m 1,3,-1
 -61.9814 106 l 1,4,-1
 55.9189 106 l 1,5,-1
 777.363 1493 l 1,6,-1
 928.563 1493 l 1,7,-1
 1165.62 106 l 1,8,-1
 1297.92 106 l 1,9,-1
 1279.38 0 l 1,10,-1
 790.676 0 l 1,11,-1
 809.219 106 l 1,12,-1
 958.619 106 l 1,13,-1
 903.5 434 l 1,14,-1
 338.3 434 l 1,15,-1
 168.419 106 l 1,16,-1
 316.019 106 l 1,17,-1
 297.477 0 l 1,18,-1
 -80.5234 0 l 1,3,-1
EndSplineSet
EndChar
StartChar: afii10018
Encoding: 1041 1041 173
Width: 1425
Flags: HW
Fore
414.699 106 m 1,0,-1
 683.799 106 l 2,1,2
 845.799 106 845.799 106 934.145 184 c 0,3,4
 1022.49 262 1022.49 262 1052.23 432 c 0,5,6
 1081.8 601 1081.8 601 1021.1 678.5 c 0,7,8
 960.412 756 960.412 756 797.512 756 c 2,9,-1
 528.412 756 l 1,10,-1
 414.699 106 l 1,0,-1
303.644 1493 m 1,11,-1
 1384.54 1493 l 1,12,-1
 1326.46 1161 l 1,13,-1
 1215.76 1161 l 1,14,-1
 1252.33 1370 l 1,15,-1
 635.826 1370 l 1,16,-1
 546.956 862 l 1,17,-1
 775.556 862 l 2,18,19
 1117.55 862 1117.55 862 1215.96 694 c 1,20,21
 1283.52 576 1283.52 576 1258.33 432 c 0,22,23
 1219.49 210 1219.49 210 1075.12 105 c 0,24,25
 930.756 0 930.756 0 663.456 0 c 2,26,-1
 42.4561 0 l 1,27,-1
 60.999 106 l 1,28,-1
 231.999 106 l 1,29,-1
 455.926 1386 l 1,30,-1
 284.926 1386 l 1,31,-1
 303.644 1493 l 1,11,-1
EndSplineSet
EndChar
StartChar: afii10019
Encoding: 1042 1042 174
Width: 1422
Flags: HW
Fore
411.146 106 m 1,0,-1
 680.246 106 l 2,1,2
 842.246 106 842.246 106 930.592 184 c 0,3,4
 1018.94 262 1018.94 262 1048.68 432 c 0,5,6
 1078.25 601 1078.25 601 1017.55 678.5 c 0,7,8
 956.859 756 956.859 756 793.959 756 c 2,9,-1
 524.859 756 l 1,10,-1
 411.146 106 l 1,0,-1
543.403 862 m 1,11,-1
 772.003 862 l 2,12,13
 919.603 862 919.603 862 998.577 925 c 0,14,15
 1077.54 988 1077.54 988 1101.34 1124 c 0,16,17
 1125.31 1261 1125.31 1261 1068.29 1323.5 c 128,-1,18
 1011.28 1386 1011.28 1386 863.674 1386 c 2,19,-1
 635.073 1386 l 1,20,-1
 543.403 862 l 1,11,-1
38.9033 0 m 1,21,-1
 57.4463 106 l 1,22,-1
 228.446 106 l 1,23,-1
 452.373 1386 l 1,24,-1
 281.373 1386 l 1,25,-1
 300.091 1493 l 1,26,-1
 963.391 1493 l 2,27,28
 1166.79 1493 1166.79 1493 1253.66 1400.5 c 128,-1,29
 1340.52 1308 1340.52 1308 1308.34 1124 c 0,30,31
 1285.07 991 1285.07 991 1200.15 912 c 0,32,33
 1114.33 833 1114.33 833 973.485 815 c 1,34,35
 1140.28 791 1140.28 791 1211.88 693.5 c 0,36,37
 1283.47 596 1283.47 596 1254.78 432 c 0,38,39
 1215.94 210 1215.94 210 1071.57 105 c 0,40,41
 927.203 0 927.203 0 659.903 0 c 2,42,-1
 38.9033 0 l 1,21,-1
EndSplineSet
EndChar
StartChar: afii10020
Encoding: 1043 1043 175
Width: 1351
Flags: HW
Fore
415.749 106 m 1,0,-1
 630.849 106 l 1,1,-1
 612.307 0 l 1,2,-1
 43.5059 0 l 1,3,-1
 62.0488 106 l 1,4,-1
 233.049 106 l 1,5,-1
 456.977 1386 l 1,6,-1
 285.977 1386 l 1,7,-1
 304.693 1493 l 1,8,-1
 1404.49 1493 l 1,9,-1
 1346.41 1161 l 1,10,-1
 1235.71 1161 l 1,11,-1
 1272.28 1370 l 1,12,-1
 636.876 1370 l 1,13,-1
 415.749 106 l 1,0,-1
EndSplineSet
EndChar
StartChar: afii10021
Encoding: 1044 1044 176
Width: 1689
Flags: HW
Fore
353.043 0 m 2,0,1
 250.623 0 250.623 0 194.205 -198 c 0,2,3
 168.56 -288 168.56 -288 145.468 -420 c 1,4,-1
 -11.1328 -420 l 1,5,-1
 81.0625 107 l 1,6,-1
 180.237 108 l 2,7,8
 359.653 109.81 359.653 109.81 417.243 439 c 2,9,-1
 582.913 1386 l 1,10,-1
 411.913 1386 l 1,11,-1
 430.632 1493 l 1,12,-1
 1659.13 1493 l 1,13,-1
 1640.42 1386 l 1,14,-1
 1469.42 1386 l 1,15,-1
 1278.55 295 l 1,16,17
 1258.01 229 1258.01 229 1294.29 174 c 0,18,19
 1331.39 117 1331.39 117 1458.96 107 c 1,20,-1
 1366.77 -420 l 1,21,-1
 1210.17 -420 l 1,22,23
 1234.31 -282 1234.31 -282 1239.11 -198 c 0,24,25
 1253.18 0.000976562 1253.18 0.000976562 1149.54 0 c 2,26,-1
 353.043 0 l 2,0,1
1095.85 295 m 1,27,-1
 1283.92 1370 l 1,28,-1
 739.414 1370 l 1,29,-1
 576.943 431 l 1,30,31
 549.479 274 549.479 274 490.283 162 c 0,32,33
 471.561 127 471.561 127 477.911 117 c 0,34,35
 484.263 107 484.263 107 514.862 107 c 2,36,-1
 936.237 108 l 2,37,38
 1059.54 108 1059.54 108 1095.85 295 c 1,27,-1
EndSplineSet
EndChar
StartChar: afii10022
Encoding: 1045 1045 177
Width: 1416
Flags: HW
Fore
42.5059 0 m 1,0,-1
 61.0488 106 l 1,1,-1
 232.049 106 l 1,2,-1
 455.977 1386 l 1,3,-1
 284.977 1386 l 1,4,-1
 303.693 1493 l 1,5,-1
 1385.49 1493 l 1,6,-1
 1327.41 1161 l 1,7,-1
 1216.71 1161 l 1,8,-1
 1253.28 1370 l 1,9,-1
 635.876 1370 l 1,10,-1
 548.405 870 l 1,11,-1
 988.509 870 l 1,12,-1
 1021.22 1057 l 1,13,-1
 1131.92 1057 l 1,14,-1
 1045.15 561 l 1,15,-1
 934.447 561 l 1,16,-1
 967.162 748 l 1,17,-1
 527.062 748 l 1,18,-1
 417.724 123 l 1,19,-1
 1049.52 123 l 1,20,-1
 1086.09 332 l 1,21,-1
 1196.79 332 l 1,22,-1
 1138.71 0 l 1,23,-1
 42.5059 0 l 1,0,-1
EndSplineSet
EndChar
StartChar: afii10024
Encoding: 1046 1046 178
Width: 2148
Flags: HW
Fore
1226.39 709 m 1,0,-1
 1120.9 106 l 1,1,-1
 1291.9 106 l 1,2,-1
 1273.36 0 l 1,3,-1
 748.656 0 l 1,4,-1
 767.199 106 l 1,5,-1
 938.199 106 l 1,6,-1
 1043.69 709 l 1,7,-1
 411.156 0 l 1,8,-1
 98.8555 0 l 1,9,-1
 117.398 106 l 1,10,-1
 270.398 106 l 1,11,-1
 912.433 823 l 1,12,-1
 562.727 1386 l 1,13,-1
 411.526 1386 l 1,14,-1
 430.243 1493 l 1,15,-1
 876.644 1493 l 1,16,-1
 857.926 1386 l 1,17,-1
 712.126 1386 l 1,18,-1
 1063.28 821 l 1,19,-1
 1162.13 1386 l 1,20,-1
 991.126 1386 l 1,21,-1
 1009.84 1493 l 1,22,-1
 1534.54 1493 l 1,23,-1
 1515.83 1386 l 1,24,-1
 1344.83 1386 l 1,25,-1
 1245.98 821 l 1,26,-1
 1794.83 1386 l 1,27,-1
 1649.03 1386 l 1,28,-1
 1667.74 1493 l 1,29,-1
 2114.14 1493 l 1,30,-1
 2095.43 1386 l 1,31,-1
 1944.23 1386 l 1,32,-1
 1397.53 823 l 1,33,-1
 1788.7 106 l 1,34,-1
 1941.7 106 l 1,35,-1
 1923.16 0 l 1,36,-1
 1610.86 0 l 1,37,-1
 1226.39 709 l 1,0,-1
EndSplineSet
EndChar
StartChar: afii10025
Encoding: 1047 1047 179
Width: 1232
Flags: HW
Fore
359.049 1430 m 1,0,1
 472.046 1474 472.046 1474 572.819 1497 c 0,2,3
 673.594 1520 673.594 1520 758.193 1520 c 0,4,5
 955.293 1520 955.293 1520 1049.46 1425.5 c 0,6,7
 1143.63 1331 1143.63 1331 1114.24 1163 c 0,8,9
 1090.62 1028 1090.62 1028 998.288 937.5 c 0,10,11
 905.956 847 905.956 847 759.959 815 c 1,12,13
 921.01 789 921.01 789 993.555 681.5 c 0,14,15
 1066.09 574 1066.09 574 1036.18 403 c 0,16,17
 999.62 194 999.62 194 853.125 82 c 0,18,19
 707.707 -29 707.707 -29 470.107 -29 c 0,20,21
 364.807 -29 364.807 -29 268.831 -4 c 128,-1,22
 172.855 21 172.855 21 82.7764 72 c 1,23,-1
 133.51 362 l 1,24,-1
 234.31 362 l 1,25,26
 218.119 218 218.119 218 283.473 144 c 0,27,28
 348.826 70 348.826 70 491.026 70 c 0,29,30
 628.727 70 628.727 70 723.858 158.5 c 0,31,32
 818.992 247 818.992 247 845.933 401 c 0,33,34
 876.723 577 876.723 577 810.654 667.5 c 0,35,36
 744.587 758 744.587 758 586.188 758 c 2,37,-1
 500.688 758 l 1,38,-1
 518.531 860 l 1,39,-1
 563.531 860 l 2,40,41
 721.031 860 721.031 860 812.464 932.5 c 128,-1,42
 903.897 1005 903.897 1005 929.439 1151 c 0,43,44
 952.356 1282 952.356 1282 899.716 1351.5 c 0,45,46
 847.074 1421 847.074 1421 725.574 1421 c 128,-1,47
 604.074 1421 604.074 1421 525.827 1357 c 0,48,49
 447.581 1293 447.581 1293 413.839 1167 c 1,50,-1
 313.039 1167 l 1,51,-1
 359.049 1430 l 1,0,1
EndSplineSet
EndChar
StartChar: afii10026
Encoding: 1048 1048 180
Width: 1696
Flags: HW
Fore
60.4053 0 m 1,0,-1
 78.9492 106 l 1,1,-1
 249.949 106 l 1,2,-1
 473.876 1386 l 1,3,-1
 302.876 1386 l 1,4,-1
 321.594 1493 l 1,5,-1
 846.293 1493 l 1,6,-1
 827.576 1386 l 1,7,-1
 656.576 1386 l 1,8,-1
 495.104 463 l 1,9,-1
 1323.61 1217 l 1,10,-1
 1353.18 1386 l 1,11,-1
 1182.18 1386 l 1,12,-1
 1200.89 1493 l 1,13,-1
 1725.59 1493 l 1,14,-1
 1706.88 1386 l 1,15,-1
 1535.88 1386 l 1,16,-1
 1311.95 106 l 1,17,-1
 1482.95 106 l 1,18,-1
 1464.41 0 l 1,19,-1
 939.706 0 l 1,20,-1
 958.249 106 l 1,21,-1
 1129.25 106 l 1,22,-1
 1290.72 1029 l 1,23,-1
 462.215 275 l 1,24,-1
 432.648 106 l 1,25,-1
 603.648 106 l 1,26,-1
 585.106 0 l 1,27,-1
 60.4053 0 l 1,0,-1
EndSplineSet
EndChar
StartChar: afii10028
Encoding: 1050 1050 182
Width: 1456
Flags: HW
Fore
50.9053 0 m 1,0,-1
 69.4492 106 l 1,1,-1
 240.449 106 l 1,2,-1
 464.376 1386 l 1,3,-1
 293.376 1386 l 1,4,-1
 312.094 1493 l 1,5,-1
 836.793 1493 l 1,6,-1
 818.076 1386 l 1,7,-1
 647.076 1386 l 1,8,-1
 548.232 821 l 1,9,-1
 1225.78 1386 l 1,10,-1
 1079.98 1386 l 1,11,-1
 1098.69 1493 l 1,12,-1
 1545.09 1493 l 1,13,-1
 1526.38 1386 l 1,14,-1
 1375.18 1386 l 1,15,-1
 699.783 823 l 1,16,-1
 1219.65 106 l 1,17,-1
 1372.65 106 l 1,18,-1
 1354.11 0 l 1,19,-1
 1041.81 0 l 1,20,-1
 528.64 709 l 1,21,-1
 423.148 106 l 1,22,-1
 594.148 106 l 1,23,-1
 575.606 0 l 1,24,-1
 50.9053 0 l 1,0,-1
EndSplineSet
EndChar
StartChar: afii10029
Encoding: 1051 1051 183
Width: 1682
Flags: HW
Fore
520.635 1386 m 1,0,-1
 349.635 1386 l 1,1,-1
 368.354 1493 l 1,2,-1
 1618.45 1493 l 1,3,-1
 1599.73 1386 l 1,4,-1
 1428.73 1386 l 1,5,-1
 1204.81 106 l 1,6,-1
 1375.81 106 l 1,7,-1
 1357.26 0 l 1,8,-1
 832.565 0 l 1,9,-1
 851.108 106 l 1,10,-1
 1022.11 106 l 1,11,-1
 1243.24 1370 l 1,12,-1
 698.736 1370 l 1,13,-1
 536.266 431 l 1,14,15
 494.129 185 494.129 185 384.711 74 c 0,16,17
 276.367 -36 276.367 -36 108.968 -36 c 0,18,19
 73.8672 -36 73.8672 -36 10.6914 -19 c 0,20,21
 -52.4844 -2 -52.4844 -2 -112.236 32 c 1,22,-1
 -83.0215 199 l 1,23,-1
 19.5781 199 l 1,24,25
 14.6807 171 14.6807 171 48.0586 120 c 0,26,27
 79.0869 71 79.0869 71 129.486 71 c 0,28,29
 205.986 71 205.986 71 261.406 146 c 0,30,31
 317.002 222 317.002 222 354.965 439 c 2,32,-1
 520.635 1386 l 1,0,-1
EndSplineSet
EndChar
StartChar: afii10030
Encoding: 1052 1052 184
Width: 1992
Flags: HW
Fore
76.4053 0 m 1,0,-1
 94.9492 106 l 1,1,-1
 265.949 106 l 1,2,-1
 489.876 1386 l 1,3,-1
 308.977 1386 l 1,4,-1
 327.693 1493 l 1,5,-1
 719.193 1493 l 1,6,-1
 1004.83 430 l 1,7,-1
 1662.39 1493 l 1,8,-1
 2029.59 1493 l 1,9,-1
 2010.88 1386 l 1,10,-1
 1831.78 1386 l 1,11,-1
 1607.85 106 l 1,12,-1
 1779.75 106 l 1,13,-1
 1761.21 0 l 1,14,-1
 1235.61 0 l 1,15,-1
 1254.15 106 l 1,16,-1
 1425.15 106 l 1,17,-1
 1627.03 1260 l 1,18,-1
 984.118 219 l 1,19,-1
 857.219 219 l 1,20,-1
 578.532 1260 l 1,21,-1
 376.648 106 l 1,22,-1
 547.648 106 l 1,23,-1
 529.106 0 l 1,24,-1
 76.4053 0 l 1,0,-1
EndSplineSet
EndChar
StartChar: afii10031
Encoding: 1053 1053 185
Width: 1696
Flags: HW
Fore
60.4053 0 m 1,0,-1
 78.9492 106 l 1,1,-1
 249.949 106 l 1,2,-1
 473.876 1386 l 1,3,-1
 302.876 1386 l 1,4,-1
 321.594 1493 l 1,5,-1
 846.293 1493 l 1,6,-1
 827.576 1386 l 1,7,-1
 656.576 1386 l 1,8,-1
 566.305 870 l 1,9,-1
 1262.91 870 l 1,10,-1
 1353.18 1386 l 1,11,-1
 1182.18 1386 l 1,12,-1
 1200.89 1493 l 1,13,-1
 1725.59 1493 l 1,14,-1
 1706.88 1386 l 1,15,-1
 1535.88 1386 l 1,16,-1
 1311.95 106 l 1,17,-1
 1482.95 106 l 1,18,-1
 1464.41 0 l 1,19,-1
 939.706 0 l 1,20,-1
 958.249 106 l 1,21,-1
 1129.25 106 l 1,22,-1
 1241.56 748 l 1,23,-1
 544.963 748 l 1,24,-1
 432.648 106 l 1,25,-1
 603.648 106 l 1,26,-1
 585.106 0 l 1,27,-1
 60.4053 0 l 1,0,-1
EndSplineSet
EndChar
StartChar: afii10032
Encoding: 1054 1054 186
Width: 1595
Flags: HW
Fore
723.243 78 m 0,0,1
 943.743 78 943.743 78 1085.72 246.5 c 0,2,3
 1227.7 415 1227.7 415 1285.43 745 c 0,4,5
 1343.33 1076 1343.33 1076 1260.32 1244.5 c 0,6,7
 1177.29 1413 1177.29 1413 956.791 1413 c 0,8,9
 735.392 1413 735.392 1413 593.414 1244.5 c 0,10,11
 451.437 1076 451.437 1076 393.529 745 c 0,12,13
 335.799 415 335.799 415 418.821 246.5 c 128,-1,14
 501.844 78 501.844 78 723.243 78 c 0,0,1
704.524 -29 m 0,15,16
 567.725 -29 567.725 -29 461.723 21 c 0,17,18
 355.72 71 355.72 71 285.388 168 c 0,19,20
 204.182 280 204.182 280 180.424 422 c 0,21,22
 155.765 564 155.765 564 187.429 745 c 0,23,24
 219.095 926 219.095 926 293.074 1068.5 c 128,-1,25
 367.053 1211 367.053 1211 487.447 1323 c 0,26,27
 592.791 1421 592.791 1421 714.851 1470.5 c 0,28,29
 836.91 1520 836.91 1520 975.511 1520 c 0,30,31
 1268.01 1520 1268.01 1520 1410.74 1307 c 0,32,33
 1553.48 1094 1553.48 1094 1492.43 745 c 0,34,35
 1461.12 566 1461.12 566 1386.51 422.5 c 0,36,37
 1311.91 279 1311.91 279 1191.69 168 c 0,38,39
 1086.35 70 1086.35 70 964.284 20.5 c 0,40,41
 842.225 -29 842.225 -29 704.524 -29 c 0,15,16
EndSplineSet
EndChar
StartChar: afii10033
Encoding: 1055 1055 187
Width: 1696
Flags: HW
Fore
1725.59 1493 m 1,0,-1
 1706.88 1386 l 1,1,-1
 1535.88 1386 l 1,2,-1
 1311.95 106 l 1,3,-1
 1482.95 106 l 1,4,-1
 1464.41 0 l 1,5,-1
 939.706 0 l 1,6,-1
 958.249 106 l 1,7,-1
 1129.25 106 l 1,8,-1
 1350.38 1370 l 1,9,-1
 653.776 1370 l 1,10,-1
 432.648 106 l 1,11,-1
 603.648 106 l 1,12,-1
 585.106 0 l 1,13,-1
 60.4053 0 l 1,14,-1
 78.9492 106 l 1,15,-1
 249.949 106 l 1,16,-1
 473.876 1386 l 1,17,-1
 302.876 1386 l 1,18,-1
 321.594 1493 l 1,19,-1
 1725.59 1493 l 1,0,-1
EndSplineSet
EndChar
StartChar: afii10034
Encoding: 1056 1056 188
Width: 1307
Flags: HW
Fore
525.06 760 m 1,0,-1
 762.66 760 l 2,1,2
 896.76 760 896.76 760 981.041 840.5 c 0,3,4
 1065.33 921 1065.33 921 1091.91 1073 c 0,5,6
 1118.69 1226 1118.69 1226 1062.48 1306 c 128,-1,7
 1006.28 1386 1006.28 1386 872.175 1386 c 2,8,-1
 634.574 1386 l 1,9,-1
 525.06 760 l 1,0,-1
38.4043 0 m 1,10,-1
 56.9473 106 l 1,11,-1
 227.947 106 l 1,12,-1
 451.875 1386 l 1,13,-1
 280.875 1386 l 1,14,-1
 299.592 1493 l 1,15,-1
 934.992 1493 l 2,16,17
 1136.59 1493 1136.59 1493 1234.63 1379.5 c 0,18,19
 1332.68 1266 1332.68 1266 1298.91 1073 c 0,20,21
 1265.32 881 1265.32 881 1127.48 767 c 0,22,23
 989.646 653 989.646 653 788.041 653 c 2,24,-1
 506.341 653 l 1,25,-1
 410.647 106 l 1,26,-1
 618.548 106 l 1,27,-1
 600.005 0 l 1,28,-1
 38.4043 0 l 1,10,-1
EndSplineSet
EndChar
StartChar: afii10035
Encoding: 1057 1057 189
Width: 1491
Flags: HW
Fore
1319.47 395 m 1,0,1
 1223.5 186 1223.5 186 1064.75 78.5 c 0,2,3
 905.991 -29 905.991 -29 691.791 -29 c 0,4,5
 560.392 -29 560.392 -29 456.64 21 c 0,6,7
 352.887 71 352.887 71 282.555 168 c 0,8,9
 201.349 280 201.349 280 177.591 422 c 0,10,11
 153.107 565 153.107 565 184.597 745 c 0,12,13
 245.477 1093 245.477 1093 463.727 1306.5 c 0,14,15
 681.978 1520 681.978 1520 978.077 1520 c 0,16,17
 1087.88 1520 1087.88 1520 1206.48 1488 c 0,18,19
 1325.08 1456 1325.08 1456 1456.81 1391 c 1,20,-1
 1396.63 1047 l 1,21,-1
 1294.93 1047 l 1,22,23
 1294.52 1235 1294.52 1235 1209.74 1324 c 0,24,25
 1124.96 1413 1124.96 1413 944.059 1413 c 0,26,27
 728.959 1413 728.959 1413 588.606 1243.5 c 0,28,29
 448.253 1074 448.253 1074 390.696 745 c 0,30,31
 333.315 417 333.315 417 414.451 248 c 0,32,33
 495.41 78 495.41 78 710.511 78 c 0,34,35
 860.811 78 860.811 78 971.918 157.5 c 0,36,37
 1083.03 237 1083.03 237 1153.87 395 c 1,38,-1
 1319.47 395 l 1,0,1
EndSplineSet
EndChar
StartChar: afii10036
Encoding: 1058 1058 190
Width: 1308
Flags: HW
Fore
300.695 0 m 1,0,-1
 319.238 106 l 1,1,-1
 491.139 106 l 1,2,-1
 712.966 1374 l 1,3,-1
 317.866 1374 l 1,4,-1
 277.104 1141 l 1,5,-1
 166.403 1141 l 1,6,-1
 227.982 1493 l 1,7,-1
 1421.38 1493 l 1,8,-1
 1359.8 1141 l 1,9,-1
 1249.1 1141 l 1,10,-1
 1289.86 1374 l 1,11,-1
 894.766 1374 l 1,12,-1
 672.938 106 l 1,13,-1
 844.838 106 l 1,14,-1
 826.296 0 l 1,15,-1
 300.695 0 l 1,0,-1
EndSplineSet
EndChar
StartChar: afii10037
Encoding: 1059 1059 191
Width: 1462
Flags: HW
Fore
454.694 192 m 2,0,-1
 663.021 570 l 1,1,-1
 389.977 1386 l 1,2,-1
 218.977 1386 l 1,3,-1
 237.693 1493 l 1,4,-1
 704.793 1493 l 1,5,-1
 686.076 1386 l 1,6,-1
 540.276 1386 l 1,7,-1
 756.662 740 l 1,8,-1
 1113.58 1386 l 1,9,-1
 967.776 1386 l 1,10,-1
 986.49 1493 l 1,11,-1
 1511.19 1493 l 1,12,-1
 1492.48 1386 l 1,13,-1
 1321.48 1386 l 1,14,-1
 591.352 78 l 2,15,16
 548.006 0 548.006 0 446.307 0 c 2,17,-1
 198.807 0 l 1,18,-1
 219.448 118 l 1,19,-1
 304.948 118 l 2,20,21
 413.849 118 413.849 118 454.694 192 c 2,0,-1
EndSplineSet
EndChar
StartChar: afii10038
Encoding: 1060 1060 192
Width: 1909
Flags: HW
Fore
1244.63 1520 m 1,0,-1
 1313.94 1520 l 2,1,2
 1452.54 1520 1452.54 1520 1557.28 1470.5 c 128,-1,3
 1662.02 1421 1662.02 1421 1733.07 1323 c 0,4,5
 1833.14 1185 1833.14 1185 1838.76 1068 c 0,6,7
 1844.52 926 1844.52 926 1812.86 745 c 0,8,9
 1772.1 512 1772.1 512 1725.75 422 c 0,10,11
 1651.41 280 1651.41 280 1531.02 168 c 0,12,13
 1426.75 71 1426.75 71 1303.25 21 c 128,-1,14
 1179.75 -29 1179.75 -29 1042.95 -29 c 2,15,-1
 973.652 -29 l 1,16,-1
 941.114 -215 l 1,17,-1
 1112.11 -215 l 1,18,-1
 1093.57 -321 l 1,19,-1
 568.869 -321 l 1,20,-1
 587.414 -215 l 1,21,-1
 758.414 -215 l 1,22,-1
 790.952 -29 l 1,23,-1
 721.652 -29 l 2,24,25
 584.853 -29 584.853 -29 478.851 21 c 0,26,27
 372.847 71 372.847 71 302.516 168 c 0,28,29
 221.31 280 221.31 280 197.552 422 c 0,30,31
 172.893 564 172.893 564 204.558 745 c 0,32,33
 236.223 926 236.223 926 310.202 1068.5 c 128,-1,34
 384.182 1211 384.182 1211 504.575 1323 c 0,35,36
 609.918 1421 609.918 1421 731.979 1470.5 c 0,37,38
 854.039 1520 854.039 1520 992.639 1520 c 2,39,-1
 1061.94 1520 l 1,40,-1
 1094.65 1707 l 1,41,-1
 923.652 1707 l 1,42,-1
 942.371 1814 l 1,43,-1
 1467.07 1814 l 1,44,-1
 1448.35 1707 l 1,45,-1
 1277.35 1707 l 1,46,-1
 1244.63 1520 l 1,0,-1
992.371 78 m 1,47,-1
 1061.67 78 l 2,48,49
 1283.07 78 1283.07 78 1425.05 246.5 c 128,-1,50
 1567.02 415 1567.02 415 1624.76 745 c 0,51,52
 1682.67 1076 1682.67 1076 1599.64 1244.5 c 128,-1,53
 1516.62 1413 1516.62 1413 1295.21 1413 c 2,54,-1
 1225.92 1413 l 1,55,-1
 992.371 78 l 1,47,-1
809.672 78 m 1,56,-1
 1043.21 1413 l 1,57,-1
 973.92 1413 l 2,58,59
 752.52 1413 752.52 1413 610.542 1244.5 c 0,60,61
 468.563 1076 468.563 1076 410.657 745 c 0,62,63
 352.926 415 352.926 415 435.949 246.5 c 0,64,65
 518.972 78 518.972 78 740.371 78 c 2,66,-1
 809.672 78 l 1,56,-1
EndSplineSet
EndChar
StartChar: afii10039
Encoding: 1061 1061 193
Width: 1381
Flags: HW
Fore
660.993 639 m 1,0,-1
 239.249 106 l 1,1,-1
 412.949 106 l 1,2,-1
 394.406 0 l 1,3,-1
 -50.1934 0 l 1,4,-1
 -31.6514 106 l 1,5,-1
 123.148 106 l 1,6,-1
 619.838 733 l 1,7,-1
 341.676 1386 l 1,8,-1
 197.676 1386 l 1,9,-1
 216.394 1493 l 1,10,-1
 749.193 1493 l 1,11,-1
 730.477 1386 l 1,12,-1
 572.076 1386 l 1,13,-1
 775.929 905 l 1,14,-1
 1156.18 1386 l 1,15,-1
 983.379 1386 l 1,16,-1
 1002.09 1493 l 1,17,-1
 1442.19 1493 l 1,18,-1
 1423.48 1386 l 1,19,-1
 1272.28 1386 l 1,20,-1
 816.183 811 l 1,21,-1
 1116.75 106 l 1,22,-1
 1260.75 106 l 1,23,-1
 1242.21 0 l 1,24,-1
 709.406 0 l 1,25,-1
 727.949 106 l 1,26,-1
 888.148 106 l 1,27,-1
 660.993 639 l 1,0,-1
EndSplineSet
EndChar
StartChar: afii10040
Encoding: 1062 1062 194
Width: 1699
Flags: HW
Fore
1551.22 107 m 1,0,-1
 1343.32 107 l 1,1,-1
 1567.25 1387 l 1,2,-1
 1738.25 1387 l 1,3,-1
 1756.79 1493 l 1,4,-1
 1232.09 1493 l 1,5,-1
 1213.55 1387 l 1,6,-1
 1384.55 1387 l 1,7,-1
 1163.42 123 l 1,8,-1
 466.821 123 l 1,9,-1
 687.948 1387 l 1,10,-1
 858.948 1387 l 1,11,-1
 877.492 1493 l 1,12,-1
 352.792 1493 l 1,13,-1
 334.248 1387 l 1,14,-1
 505.248 1387 l 1,15,-1
 281.322 107 l 1,16,-1
 110.322 107 l 1,17,-1
 91.6035 0 l 1,18,-1
 1350.7 0 l 1,19,-1
 1294.55 -321 l 1,20,-1
 1476.35 -321 l 1,21,-1
 1551.22 107 l 1,0,-1
EndSplineSet
EndChar
StartChar: afii10041
Encoding: 1063 1063 195
Width: 1461
Flags: HW
Fore
1470.31 1493 m 1,0,-1
 1451.6 1386 l 1,1,-1
 1280.6 1386 l 1,2,-1
 1056.67 106 l 1,3,-1
 1253.77 106 l 1,4,-1
 1235.23 0 l 1,5,-1
 687.127 0 l 1,6,-1
 705.67 106 l 1,7,-1
 873.97 106 l 1,8,-1
 969.663 653 l 1,9,-1
 687.963 653 l 2,10,11
 420.663 653 420.663 653 322.706 767 c 0,12,13
 224.751 881 224.751 881 258.339 1073 c 2,14,-1
 313.097 1386 l 1,15,-1
 142.097 1386 l 1,16,-1
 160.814 1493 l 1,17,-1
 678.313 1493 l 1,18,-1
 659.597 1386 l 1,19,-1
 493.097 1386 l 1,20,-1
 438.339 1073 l 2,21,22
 411.747 921 411.747 921 467.864 840.5 c 0,23,24
 523.982 760 523.982 760 750.782 760 c 2,25,-1
 988.378 760 l 1,26,-1
 1099.7 1386 l 1,27,-1
 928.696 1386 l 1,28,-1
 947.414 1493 l 1,29,-1
 1470.31 1493 l 1,0,-1
EndSplineSet
EndChar
StartChar: afii10042
Encoding: 1064 1064 196
Width: 1993
Flags: HW
Fore
1027.22 123 m 1,0,-1
 1428.62 123 l 1,1,-1
 1649.75 1387 l 1,2,-1
 1478.75 1387 l 1,3,-1
 1497.29 1493 l 1,4,-1
 2021.99 1493 l 1,5,-1
 2003.45 1387 l 1,6,-1
 1832.45 1387 l 1,7,-1
 1608.52 107 l 1,8,-1
 1779.52 107 l 1,9,-1
 1760.81 0 l 1,10,-1
 76.0059 0 l 1,11,-1
 94.7236 107 l 1,12,-1
 265.724 107 l 1,13,-1
 489.65 1387 l 1,14,-1
 318.65 1387 l 1,15,-1
 337.193 1493 l 1,16,-1
 861.894 1493 l 1,17,-1
 843.351 1387 l 1,18,-1
 672.351 1387 l 1,19,-1
 451.224 123 l 1,20,-1
 852.623 123 l 1,21,-1
 1049.95 1251 l 1,22,-1
 1224.55 1251 l 1,23,-1
 1027.22 123 l 1,0,-1
EndSplineSet
EndChar
StartChar: afii10043
Encoding: 1065 1065 197
Width: 2039
Flags: HW
Fore
1847.62 107 m 1,0,-1
 1639.72 107 l 1,1,-1
 1863.65 1387 l 1,2,-1
 2034.65 1387 l 1,3,-1
 2053.19 1493 l 1,4,-1
 1528.49 1493 l 1,5,-1
 1509.95 1387 l 1,6,-1
 1680.95 1387 l 1,7,-1
 1459.82 123 l 1,8,-1
 1058.42 123 l 1,9,-1
 1255.75 1251 l 1,10,-1
 1081.15 1251 l 1,11,-1
 883.821 123 l 1,12,-1
 482.422 123 l 1,13,-1
 703.548 1387 l 1,14,-1
 874.548 1387 l 1,15,-1
 893.093 1493 l 1,16,-1
 368.393 1493 l 1,17,-1
 349.848 1387 l 1,18,-1
 520.848 1387 l 1,19,-1
 296.923 107 l 1,20,-1
 125.922 107 l 1,21,-1
 107.203 0 l 1,22,-1
 1647.1 0 l 1,23,-1
 1590.95 -321 l 1,24,-1
 1772.75 -321 l 1,25,-1
 1847.62 107 l 1,0,-1
EndSplineSet
EndChar
StartChar: afii10044
Encoding: 1066 1066 198
Width: 1479
Flags: HW
Fore
791.858 106 m 2,0,1
 918.759 106 918.759 106 1007.1 184 c 0,2,3
 1095.45 262 1095.45 262 1125.19 432 c 0,4,5
 1153.35 593 1153.35 593 1092.67 670.5 c 0,6,7
 1031.97 748 1031.97 748 904.172 748 c 2,8,-1
 760.172 748 l 1,9,-1
 647.858 106 l 1,10,-1
 791.858 106 l 2,0,1
460.658 106 m 1,11,-1
 681.785 1370 l 1,12,-1
 360.485 1370 l 1,13,-1
 323.922 1161 l 1,14,-1
 213.223 1161 l 1,15,-1
 271.303 1493 l 1,16,-1
 1059.7 1493 l 1,17,-1
 1040.99 1386 l 1,18,-1
 871.785 1386 l 1,19,-1
 781.515 870 l 1,20,-1
 885.015 870 l 1,21,22
 1189.87 848 1189.87 848 1291.73 710 c 0,23,24
 1362.78 612 1362.78 612 1331.29 432 c 0,25,26
 1292.45 210 1292.45 210 1148.08 105 c 0,27,28
 1003.72 0 1003.72 0 771.516 0 c 2,29,-1
 231.516 0 l 1,30,-1
 250.059 106 l 1,31,-1
 460.658 106 l 1,11,-1
EndSplineSet
EndChar
StartChar: afii10045
Encoding: 1067 1067 199
Width: 2019
Flags: HW
Fore
1532.85 106 m 1,0,-1
 1703.85 106 l 1,1,-1
 1685.31 0 l 1,2,-1
 1160.61 0 l 1,3,-1
 1179.15 106 l 1,4,-1
 1350.15 106 l 1,5,-1
 1574.08 1386 l 1,6,-1
 1403.08 1386 l 1,7,-1
 1421.79 1493 l 1,8,-1
 1946.49 1493 l 1,9,-1
 1927.78 1386 l 1,10,-1
 1756.78 1386 l 1,11,-1
 1532.85 106 l 1,0,-1
325.049 106 m 1,12,-1
 548.977 1386 l 1,13,-1
 377.977 1386 l 1,14,-1
 396.693 1493 l 1,15,-1
 921.394 1493 l 1,16,-1
 902.676 1386 l 1,17,-1
 731.676 1386 l 1,18,-1
 641.405 870 l 1,19,-1
 749.405 870 l 1,20,21
 1054.26 848 1054.26 848 1156.12 710 c 0,22,23
 1227.17 612 1227.17 612 1195.68 432 c 0,24,25
 1156.84 210 1156.84 210 1012.47 105 c 0,26,27
 868.106 0 868.106 0 635.906 0 c 2,28,-1
 535.106 0 l 1,29,-1
 135.506 0 l 1,30,-1
 154.049 106 l 1,31,-1
 325.049 106 l 1,12,-1
553.648 106 m 1,32,-1
 656.249 106 l 2,33,34
 783.148 106 783.148 106 871.495 184 c 0,35,36
 959.84 262 959.84 262 989.58 432 c 0,37,38
 1017.74 593 1017.74 593 957.055 670.5 c 0,39,40
 896.362 748 896.362 748 768.562 748 c 2,41,-1
 620.062 748 l 1,42,-1
 507.749 106 l 1,43,-1
 553.648 106 l 1,32,-1
EndSplineSet
EndChar
StartChar: afii10046
Encoding: 1068 1068 200
Width: 1335
Flags: HW
Fore
283.875 106 m 1,0,-1
 507.802 1386 l 1,1,-1
 336.802 1386 l 1,2,-1
 355.52 1493 l 1,3,-1
 880.219 1493 l 1,4,-1
 861.502 1386 l 1,5,-1
 690.502 1386 l 1,6,-1
 600.23 870 l 1,7,-1
 708.23 870 l 1,8,9
 1013.08 848 1013.08 848 1114.94 710 c 0,10,11
 1186 612 1186 612 1154.51 432 c 0,12,13
 1115.66 210 1115.66 210 971.296 105 c 0,14,15
 826.932 0 826.932 0 594.731 0 c 2,16,-1
 493.932 0 l 1,17,-1
 94.3311 0 l 1,18,-1
 112.875 106 l 1,19,-1
 283.875 106 l 1,0,-1
512.475 106 m 1,20,-1
 615.074 106 l 2,21,22
 741.975 106 741.975 106 830.32 184 c 0,23,24
 918.665 262 918.665 262 948.406 432 c 0,25,26
 976.569 593 976.569 593 915.881 670.5 c 0,27,28
 855.188 748 855.188 748 727.389 748 c 2,29,-1
 578.889 748 l 1,30,-1
 466.574 106 l 1,31,-1
 512.475 106 l 1,20,-1
EndSplineSet
EndChar
StartChar: afii10047
Encoding: 1069 1069 201
Width: 1485
Flags: HW
Fore
1159.14 694 m 1,0,1
 1100.3 404 1100.3 404 971.312 248 c 0,2,3
 830.872 78 830.872 78 615.771 78 c 0,4,5
 465.472 78 465.472 78 382.18 157.5 c 0,6,7
 298.887 237 298.887 237 283.329 395 c 1,8,-1
 117.729 395 l 1,9,10
 140.565 186 140.565 186 261.71 78.5 c 0,11,12
 382.853 -29 382.853 -29 597.053 -29 c 0,13,14
 728.453 -29 728.453 -29 849.7 21 c 0,15,16
 970.948 71 970.948 71 1075.22 168 c 0,17,18
 1195.61 280 1195.61 280 1269.58 422.5 c 0,19,20
 1343.56 565 1343.56 565 1375.06 745 c 0,21,22
 1435.94 1093 1435.94 1093 1292.39 1306.5 c 128,-1,23
 1148.84 1520 1148.84 1520 852.739 1520 c 0,24,25
 742.939 1520 742.939 1520 613.141 1488 c 0,26,27
 483.342 1456 483.342 1456 328.872 1391 c 1,28,-1
 268.69 1047 l 1,29,-1
 370.391 1047 l 1,30,31
 436.58 1235 436.58 1235 552.5 1324 c 0,32,33
 668.42 1413 668.42 1413 849.32 1413 c 0,34,35
 1064.42 1413 1064.42 1413 1145.56 1244 c 0,36,37
 1217.24 1093 1217.24 1093 1179.58 816 c 1,38,-1
 643.18 816 l 1,39,-1
 664.872 940 l 1,40,-1
 554.172 940 l 1,41,-1
 490.144 574 l 1,42,-1
 600.844 574 l 1,43,-1
 621.836 694 l 1,44,-1
 1159.14 694 l 1,0,1
EndSplineSet
EndChar
StartChar: afii10048
Encoding: 1070 1070 202
Width: 2314
Flags: HW
Fore
458.439 106 m 1,0,-1
 629.439 106 l 1,1,-1
 610.896 0 l 1,2,-1
 86.1963 0 l 1,3,-1
 104.74 106 l 1,4,-1
 275.739 106 l 1,5,-1
 499.667 1386 l 1,6,-1
 328.667 1386 l 1,7,-1
 347.385 1493 l 1,8,-1
 872.085 1493 l 1,9,-1
 853.366 1386 l 1,10,-1
 682.366 1386 l 1,11,-1
 588.597 850 l 1,12,-1
 911.696 850 l 1,13,14
 942.415 969 942.415 969 993.935 1068 c 0,15,16
 1068.45 1211 1068.45 1211 1188.84 1323 c 0,17,18
 1294.19 1421 1294.19 1421 1416.16 1470 c 0,19,20
 1538.31 1520 1538.31 1520 1676.91 1520 c 0,21,22
 1969.41 1520 1969.41 1520 2112.14 1307 c 0,23,24
 2254.88 1094 2254.88 1094 2193.83 745 c 0,25,26
 2162.51 566 2162.51 566 2087.82 422 c 0,27,28
 2013.3 279 2013.3 279 1893.09 168 c 0,29,30
 1787.75 70 1787.75 70 1665.6 20 c 0,31,32
 1543.62 -29 1543.62 -29 1405.92 -29 c 0,33,34
 1269.12 -29 1269.12 -29 1163.57 21 c 0,35,36
 1057.12 71 1057.12 71 986.786 168 c 0,37,38
 905.58 280 905.58 280 880.922 422 c 0,39,40
 860.864 544 860.864 544 880.806 694 c 1,41,-1
 561.306 694 l 1,42,-1
 458.439 106 l 1,0,-1
1424.64 78 m 0,43,44
 1645.14 78 1645.14 78 1787.04 246 c 0,45,46
 1929.1 415 1929.1 415 1986.83 745 c 0,47,48
 2044.73 1076 2044.73 1076 1961.63 1244 c 0,49,50
 1878.69 1413 1878.69 1413 1658.19 1413 c 0,51,52
 1436.79 1413 1436.79 1413 1294.73 1244 c 0,53,54
 1152.83 1076 1152.83 1076 1094.93 745 c 0,55,56
 1037.2 415 1037.2 415 1120.13 246 c 0,57,58
 1203.24 78 1203.24 78 1424.64 78 c 0,43,44
EndSplineSet
EndChar
StartChar: afii10049
Encoding: 1071 1071 203
Width: 1640
Flags: HW
Fore
734.938 741 m 1,0,1
 668.613 722 668.613 722 615.204 676.5 c 0,2,3
 561.794 631 561.794 631 511.449 549 c 2,4,-1
 238.648 106 l 1,5,-1
 74.8486 106 l 1,6,-1
 56.3057 0 l 1,7,-1
 373.106 0 l 1,8,-1
 665.903 475 l 1,9,10
 750.345 613 750.345 613 807.83 653.5 c 0,11,12
 865.315 694 865.315 694 953.516 694 c 2,13,-1
 1154.21 694 l 1,14,-1
 1051.35 106 l 1,15,-1
 861.449 106 l 1,16,-1
 842.906 0 l 1,17,-1
 1386.51 0 l 1,18,-1
 1405.05 106 l 1,19,-1
 1234.05 106 l 1,20,-1
 1457.98 1386 l 1,21,-1
 1628.98 1386 l 1,22,-1
 1647.69 1493 l 1,23,-1
 966.394 1493 l 2,24,25
 770.193 1493 770.193 1493 645.351 1389 c 0,26,27
 520.507 1285 520.507 1285 487.092 1094 c 0,28,29
 460.15 940 460.15 940 522.519 851.5 c 0,30,31
 584.886 763 584.886 763 734.938 741 c 1,0,1
1172.93 801 m 1,32,-1
 907.435 801 l 2,33,34
 771.534 801 771.534 801 719.242 872.5 c 128,-1,35
 666.951 944 666.951 944 693.192 1094 c 128,-1,36
 719.434 1244 719.434 1244 796.654 1315 c 0,37,38
 873.876 1386 873.876 1386 1009.78 1386 c 2,39,-1
 1275.28 1386 l 1,40,-1
 1172.93 801 l 1,32,-1
EndSplineSet
EndChar
StartChar: afii10065
Encoding: 1072 1072 204
Width: 1155
Flags: HW
Fore
755.584 334 m 2,0,-1
 794.946 559 l 1,1,-1
 581.646 559 l 2,2,3
 458.347 559 458.347 559 387.725 500 c 0,4,5
 317.103 441 317.103 441 295.76 319 c 0,6,7
 276.342 208 276.342 208 326.17 143 c 0,8,9
 375.999 78 375.999 78 480.399 78 c 0,10,11
 583.899 78 583.899 78 659.77 149 c 0,12,13
 735.641 220 735.641 220 755.584 334 c 2,0,-1
978.919 664 m 2,14,-1
 881.297 106 l 1,15,-1
 1028.9 106 l 1,16,-1
 1010.36 0 l 1,17,-1
 697.153 0 l 1,18,-1
 717.272 115 l 1,19,20
 649.426 41 649.426 41 571.304 6 c 0,21,22
 493.181 -29 493.181 -29 396.88 -29 c 0,23,24
 237.58 -29 237.58 -29 160.424 65 c 0,25,26
 83.2695 159 83.2695 159 111.26 319 c 0,27,28
 140.125 484 140.125 484 263.145 575 c 0,29,30
 386.166 666 386.166 666 581.466 666 c 2,31,-1
 813.666 666 l 1,32,-1
 826.436 739 l 2,33,34
 847.604 860 847.604 860 793.087 926.5 c 0,35,36
 738.571 993 738.571 993 618.871 993 c 0,37,38
 519.871 993 519.871 993 452.624 943 c 0,39,40
 385.377 893 385.377 893 353.832 795 c 1,41,-1
 268.332 795 l 1,42,-1
 305.945 1010 l 1,43,44
 399.518 1051 399.518 1051 484.555 1071.5 c 0,45,46
 569.59 1092 569.59 1092 646.99 1092 c 0,47,48
 845.891 1092 845.891 1092 930.684 982.5 c 0,49,50
 1015.48 873 1015.48 873 978.919 664 c 2,14,-1
EndSplineSet
EndChar
StartChar: afii10066
Encoding: 1073 1073 205
Width: 1171
Flags: HW
Fore
480.075 -29 m 0,0,1
 271.275 -29 271.275 -29 171.229 124.5 c 0,2,3
 71.1826 278 71.1826 278 115.619 532 c 0,4,5
 160.053 786 160.053 786 312.82 939 c 0,6,7
 357.417 983 357.417 983 405.141 1014 c 1,8,9
 376.69 1016 376.69 1016 341.562 1057 c 2,10,-1
 335.587 1064 l 2,11,12
 291.908 1123 291.908 1123 310.904 1211 c 0,13,14
 312.679 1216 312.679 1216 313.379 1220 c 0,15,16
 359.418 1406 359.418 1406 546.113 1470 c 0,17,18
 612.237 1493 612.237 1493 697.513 1502 c 0,19,20
 810.312 1514 810.312 1514 958.137 1505 c 0,21,22
 972.366 1504 972.366 1504 981.187 1503 c 0,23,24
 1011.26 1500 1011.26 1500 1098.64 1521 c 0,25,26
 1123.09 1527 1123.09 1527 1138.91 1530 c 1,27,-1
 1099.17 1380 l 1,28,-1
 1018.04 1369 l 1,29,30
 963.168 1364 963.168 1364 907.37 1364 c 1,31,-1
 741.37 1372 l 1,32,33
 705.37 1372 705.37 1372 667.42 1366 c 0,34,35
 559.321 1350 559.321 1350 488.75 1281 c 0,36,37
 451.853 1245 451.853 1245 446.078 1212 c 0,38,39
 436.107 1155 436.107 1155 493.734 1114 c 0,40,41
 526.436 1090 526.436 1090 569.862 1081 c 1,42,43
 621.286 1092 621.286 1092 676.187 1092 c 0,44,45
 885.886 1092 885.886 1092 985.569 939 c 0,46,47
 1085.25 786 1085.25 786 1040.82 532 c 128,-1,48
 996.387 278 996.387 278 843.079 124.5 c 0,49,50
 689.775 -29 689.775 -29 480.075 -29 c 0,0,1
497.396 70 m 0,51,52
 630.596 70 630.596 70 719.014 187 c 128,-1,53
 807.432 304 807.432 304 847.318 532 c 0,54,55
 887.205 760 887.205 760 839.636 876.5 c 128,-1,56
 792.066 993 792.066 993 658.867 993 c 0,57,58
 525.666 993 525.666 993 436.799 876 c 0,59,60
 349.006 760 349.006 760 309.118 532 c 0,61,62
 269.231 304 269.231 304 317.163 187 c 0,63,64
 365.096 70 365.096 70 497.396 70 c 0,51,52
EndSplineSet
EndChar
StartChar: afii10067
Encoding: 1074 1074 206
Width: 1085
Flags: HW
Fore
354.753 103 m 1,0,-1
 538.354 103 l 2,1,2
 643.653 103 643.653 103 711.051 159 c 0,3,4
 777.547 215 777.547 215 793.816 308 c 0,5,6
 809.911 400 809.911 400 762.833 455 c 128,-1,7
 715.755 510 715.755 510 609.555 510 c 2,8,-1
 425.955 510 l 1,9,-1
 354.753 103 l 1,0,-1
449.047 642 m 1,10,-1
 601.147 642 l 2,11,12
 696.547 642 696.547 642 756.082 686.5 c 0,13,14
 815.617 731 815.617 731 827.688 800 c 0,15,16
 839.935 870 839.935 870 795.969 914.5 c 0,17,18
 752.004 959 752.004 959 656.604 959 c 2,19,-1
 504.504 959 l 1,20,-1
 449.047 642 l 1,10,-1
24.4336 0 m 1,21,-1
 42.4531 103 l 1,22,-1
 192.753 103 l 1,23,-1
 342.504 959 l 1,24,-1
 192.204 959 l 1,25,-1
 210.397 1063 l 1,26,-1
 736.897 1063 l 2,27,28
 892.598 1063 892.598 1063 959.348 997 c 0,29,30
 1027.01 931 1027.01 931 1004.09 800 c 0,31,32
 987.645 706 987.645 706 922.772 649 c 0,33,34
 858.074 593 858.074 593 750.501 580 c 1,35,36
 878.026 563 878.026 563 934.356 494 c 0,37,38
 989.606 424 989.606 424 969.32 308 c 0,39,40
 941.676 150 941.676 150 832.256 75 c 0,41,42
 722.834 0 722.834 0 518.534 0 c 2,43,-1
 24.4336 0 l 1,21,-1
EndSplineSet
EndChar
StartChar: afii10068
Encoding: 1075 1075 207
Width: 1044
Flags: HW
Fore
1057.88 1063 m 1,0,-1
 200.182 1063 l 1,1,-1
 181.812 958 l 1,2,-1
 341.112 958 l 1,3,-1
 192.062 106 l 1,4,-1
 42.6621 106 l 1,5,-1
 24.1182 0 l 1,6,-1
 467.818 0 l 1,7,-1
 486.361 106 l 1,8,-1
 357.662 106 l 1,9,-1
 503.563 940 l 1,10,-1
 941.863 940 l 1,11,-1
 916.673 796 l 1,12,-1
 1011.17 796 l 1,13,-1
 1057.88 1063 l 1,0,-1
EndSplineSet
EndChar
StartChar: afii10069
Encoding: 1076 1076 208
Width: 1322
Flags: HW
Fore
269.458 0 m 2,0,1
 198.122 0 198.122 0 146.443 -163 c 0,2,3
 128.371 -220 128.371 -220 107.379 -340 c 1,4,-1
 -29.4209 -340 l 1,5,-1
 48.2529 104 l 1,6,-1
 124.027 105 l 2,7,8
 261.144 106.81 261.144 106.81 297.215 313 c 2,9,-1
 410.754 962 l 1,10,-1
 291.054 962 l 1,11,-1
 308.722 1063 l 1,12,-1
 1247.42 1063 l 1,13,-1
 1229.76 962 l 1,14,-1
 1123.56 962 l 1,15,-1
 996.892 238 l 1,16,17
 981.475 191 981.475 191 1009.75 152 c 0,18,19
 1038.36 112 1038.36 112 1136.36 104 c 1,20,-1
 1058.68 -340 l 1,21,-1
 917.379 -340 l 1,22,23
 945.588 -178.75 945.588 -178.75 945.644 -163 c 0,24,25
 943.123 0 943.123 0 874.258 0 c 2,26,-1
 269.458 0 l 2,0,1
832.194 238 m 1,27,-1
 955.354 942 l 1,28,-1
 556.654 942 l 1,29,-1
 445.565 307 l 1,30,31
 430.695 222 430.695 222 386.275 143 c 0,32,33
 373.076 119 373.076 119 377.978 111 c 0,34,35
 383.105 103.927 383.105 103.927 405.553 104 c 2,36,-1
 711.728 105 l 2,37,38
 806.287 105.309 806.287 105.309 832.194 238 c 1,27,-1
EndSplineSet
EndChar
StartChar: afii10070
Encoding: 1077 1077 209
Width: 1151
Flags: HW
Fore
1056.08 512 m 1,0,-1
 342.38 512 l 1,1,-1
 340.979 504 l 2,2,3
 303.367 289 303.367 289 357.111 179.5 c 128,-1,4
 410.855 70 410.855 70 553.056 70 c 0,5,6
 661.956 70 661.956 70 742.814 133.5 c 0,7,8
 823.673 197 823.673 197 873.44 322 c 1,9,-1
 1006.64 322 l 1,10,11
 936.426 147 936.426 147 814.381 59 c 0,12,13
 692.336 -29 692.336 -29 518.637 -29 c 0,14,15
 308.937 -29 308.937 -29 208.44 124.5 c 0,16,17
 107.943 278 107.943 278 152.38 532 c 0,18,19
 196.464 784 196.464 784 348.506 938 c 0,20,21
 500.546 1092 500.546 1092 703.946 1092 c 0,22,23
 920.847 1092 920.847 1092 1010.96 943.5 c 0,24,25
 1101.09 795 1101.09 795 1056.08 512 c 1,0,-1
879.323 618 m 1,26,27
 906.464 804 906.464 804 857.745 898.5 c 0,28,29
 809.027 993 809.027 993 686.627 993 c 0,30,31
 572.328 993 572.328 993 490.008 898 c 0,32,33
 407.688 803 407.688 803 360.923 618 c 1,34,-1
 879.323 618 l 1,26,27
EndSplineSet
EndChar
StartChar: afii10072
Encoding: 1078 1078 210
Width: 1650
Flags: HW
Fore
945.914 505 m 1,0,-1
 875.412 102 l 1,1,-1
 985.209 102 l 1,2,-1
 967.368 0 l 1,3,-1
 575.868 0 l 1,4,-1
 593.713 102 l 1,5,-1
 703.513 102 l 1,6,-1
 774.014 505 l 1,7,-1
 338.269 0 l 1,8,-1
 90.7676 0 l 1,9,-1
 108.612 102 l 1,10,-1
 208.513 102 l 1,11,-1
 645.984 586 l 1,12,-1
 410.087 961 l 1,13,-1
 311.087 961 l 1,14,-1
 328.932 1063 l 1,15,-1
 662.831 1063 l 1,16,-1
 644.987 961 l 1,17,-1
 550.487 961 l 1,18,-1
 788.009 585 l 1,19,-1
 853.787 961 l 1,20,-1
 743.987 961 l 1,21,-1
 761.831 1063 l 1,22,-1
 1153.33 1063 l 1,23,-1
 1135.49 961 l 1,24,-1
 1025.69 961 l 1,25,-1
 959.909 585 l 1,26,-1
 1329.89 961 l 1,27,-1
 1235.39 961 l 1,28,-1
 1253.23 1063 l 1,29,-1
 1586.23 1063 l 1,30,-1
 1568.39 961 l 1,31,-1
 1470.29 961 l 1,32,-1
 1084.28 586 l 1,33,-1
 1370.41 102 l 1,34,-1
 1470.31 102 l 1,35,-1
 1452.47 0 l 1,36,-1
 1204.97 0 l 1,37,-1
 945.914 505 l 1,0,-1
EndSplineSet
EndChar
StartChar: afii10073
Encoding: 1079 1079 211
Width: 1038
Flags: HW
Fore
263.779 1010 m 1,0,1
 370.002 1041 370.002 1041 466.576 1058 c 0,2,3
 562.976 1074 562.976 1074 611.576 1074 c 0,4,5
 787.976 1074 787.976 1074 864.454 1007 c 0,6,7
 940.759 939 940.759 939 918.19 810 c 0,8,9
 895.973 683 895.973 683 814.825 641 c 2,10,-1
 660.605 562 l 1,11,12
 790.307 542 790.307 542 829.384 503 c 0,13,14
 903.213 426 903.213 426 875.746 269 c 0,15,16
 849.68 120 849.68 120 714.186 40 c 0,17,18
 577.965 -39 577.965 -39 400.664 -39 c 0,19,20
 331.364 -39 331.364 -39 238.214 -21 c 0,21,22
 144.163 -3 144.163 -3 55.0605 33 c 1,23,-1
 91.0986 239 l 1,24,-1
 192.673 264 l 1,25,26
 183.827 162 183.827 162 250.156 109 c 0,27,28
 316.484 56 316.484 56 420.885 56 c 0,29,30
 520.784 56 520.784 56 609.38 120 c 0,31,32
 696.901 183 696.901 183 711.598 267 c 0,33,34
 730.666 376 730.666 376 662.837 441 c 0,35,36
 595.733 505 595.733 505 475.133 505 c 2,37,-1
 392.333 505 l 1,38,-1
 410.702 610 l 1,39,-1
 453.902 610 l 2,40,41
 573.602 610 573.602 610 659.199 662 c 0,42,43
 743.721 713 743.721 713 759.115 801 c 0,44,45
 771.012 869 771.012 869 716.76 919 c 0,46,47
 663.231 968 663.231 968 578.631 968 c 0,48,49
 494.031 968 494.031 968 421.359 923 c 0,50,51
 348.512 877 348.512 877 322.143 788 c 1,52,-1
 229.315 813 l 1,53,-1
 263.779 1010 l 1,0,1
EndSplineSet
EndChar
StartChar: afii10074
Encoding: 1080 1080 212
Width: 1294
Flags: HW
Fore
1122.69 957 m 1,0,-1
 1272.09 957 l 1,1,-1
 1290.63 1063 l 1,2,-1
 826.231 1063 l 1,3,-1
 807.688 957 l 1,4,-1
 957.088 957 l 1,5,-1
 940.469 862 l 1,6,-1
 412.073 347 l 1,7,-1
 518.788 957 l 1,8,-1
 668.188 957 l 1,9,-1
 686.731 1063 l 1,10,-1
 222.332 1063 l 1,11,-1
 203.788 957 l 1,12,-1
 353.188 957 l 1,13,-1
 204.312 106 l 1,14,-1
 54.9121 106 l 1,15,-1
 36.3682 0 l 1,16,-1
 500.769 0 l 1,17,-1
 519.312 106 l 1,18,-1
 369.912 106 l 1,19,-1
 384.632 185 l 1,20,-1
 913.027 700 l 1,21,-1
 808.212 106 l 1,22,-1
 658.812 106 l 1,23,-1
 640.269 0 l 1,24,-1
 1104.67 0 l 1,25,-1
 1123.21 106 l 1,26,-1
 973.811 106 l 1,27,-1
 1122.69 957 l 1,0,-1
EndSplineSet
EndChar
StartChar: afii10076
Encoding: 1082 1082 214
Width: 1180
Flags: HW
Fore
676.481 1063 m 1,0,-1
 657.764 956 l 1,1,-1
 515.563 956 l 1,2,-1
 443.312 543 l 1,3,-1
 918.764 956 l 1,4,-1
 781.063 956 l 1,5,-1
 799.781 1063 l 1,6,-1
 1232.68 1063 l 1,7,-1
 1213.96 956 l 1,8,-1
 1050.16 956 l 1,9,-1
 714.681 664 l 1,10,-1
 980.661 106 l 1,11,-1
 1118.36 106 l 1,12,-1
 1099.82 0 l 1,13,-1
 628.218 0 l 1,14,-1
 646.762 106 l 1,15,-1
 783.562 106 l 1,16,-1
 573.812 543 l 1,17,-1
 419.694 408 l 1,18,-1
 366.861 106 l 1,19,-1
 516.262 106 l 1,20,-1
 497.718 0 l 1,21,-1
 33.3174 0 l 1,22,-1
 51.8613 106 l 1,23,-1
 201.262 106 l 1,24,-1
 350.312 958 l 1,25,-1
 191.013 958 l 1,26,-1
 209.382 1063 l 1,27,-1
 676.481 1063 l 1,0,-1
EndSplineSet
EndChar
StartChar: afii10077
Encoding: 1083 1083 215
Width: 1207
Flags: HW
Fore
-58.918 0 m 1,0,1
 -55.3174 0 -55.3174 0 43.3828 -12 c 0,2,3
 164.784 -28 164.784 -28 286.628 82 c 0,4,5
 391.097 175 391.097 175 419.787 339 c 2,6,-1
 524.929 940 l 1,7,-1
 923.629 940 l 1,8,-1
 777.727 106 l 1,9,-1
 673.326 106 l 1,10,-1
 654.782 0 l 1,11,-1
 1027.38 0 l 1,12,-1
 1045.93 106 l 1,13,-1
 943.326 106 l 1,14,-1
 1092.38 958 l 1,15,-1
 1201.28 958 l 1,16,-1
 1219.65 1063 l 1,17,-1
 280.046 1063 l 1,18,-1
 261.677 958 l 1,19,-1
 376.877 958 l 1,20,-1
 268.587 339 l 2,21,22
 249.169 228 249.169 228 198.722 166 c 0,23,24
 149.177 104 149.177 104 67.2764 104 c 0,25,26
 15.9766 104 15.9766 104 -41.2256 132 c 1,27,-1
 -58.918 0 l 1,0,1
EndSplineSet
EndChar
StartChar: afii10078
Encoding: 1084 1084 216
Width: 1633
Flags: HW
Fore
830.057 188 m 1,0,-1
 725.657 188 l 1,1,-1
 464.75 739 l 1,2,-1
 354.012 106 l 1,3,-1
 503.412 106 l 1,4,-1
 484.868 0 l 1,5,-1
 55.5674 0 l 1,6,-1
 74.1113 106 l 1,7,-1
 223.512 106 l 1,8,-1
 372.388 957 l 1,9,-1
 222.988 957 l 1,10,-1
 241.531 1063 l 1,11,-1
 471.932 1063 l 1,12,-1
 813.545 392 l 1,13,-1
 1389.93 1063 l 1,14,15
 1655.43 1063 l 1,16,-1
 1636.89 957 l 1,17,-1
 1487.49 957 l 1,18,-1
 1338.61 106 l 1,19,-1
 1488.01 106 l 1,20,-1
 1469.47 0 l 1,21,-1
 1005.07 0 l 1,22,-1
 1023.61 106 l 1,23,-1
 1173.01 106 l 1,24,-1
 1283.75 739 l 1,25,-1
 830.057 188 l 1,0,-1
EndSplineSet
EndChar
StartChar: afii10079
Encoding: 1085 1085 217
Width: 1294
Flags: HW
Fore
1122.69 957 m 1,0,-1
 1272.09 957 l 1,1,-1
 1290.63 1063 l 1,2,-1
 826.231 1063 l 1,3,-1
 807.688 957 l 1,4,-1
 957.088 957 l 1,5,-1
 901.631 640 l 1,6,-1
 463.331 640 l 1,7,-1
 518.788 957 l 1,8,-1
 668.188 957 l 1,9,-1
 686.731 1063 l 1,10,-1
 222.332 1063 l 1,11,-1
 203.788 957 l 1,12,-1
 353.188 957 l 1,13,-1
 204.312 106 l 1,14,-1
 54.9121 106 l 1,15,-1
 36.3682 0 l 1,16,-1
 500.769 0 l 1,17,-1
 519.312 106 l 1,18,-1
 369.912 106 l 1,19,-1
 442.538 516 l 1,20,-1
 880.838 516 l 1,21,-1
 808.212 106 l 1,22,-1
 658.812 106 l 1,23,-1
 640.269 0 l 1,24,-1
 1104.67 0 l 1,25,-1
 1123.21 106 l 1,26,-1
 973.811 106 l 1,27,-1
 1122.69 957 l 1,0,-1
EndSplineSet
EndChar
